<svg id="圖層_2" data-name="圖層 2" xmlns="http://www.w3.org/2000/svg" viewBox="0 0 278.44 90.83"><defs><style>.cls-1{fill:#00487e;}.cls-2{fill:#231815;}</style></defs><title>cht</title><path class="cls-1" d="M49,1.15A45.42,45.42,0,0,0,29.6,5.46H68.33A45.36,45.36,0,0,0,49,1.15ZM34.44,9.79H22.3a44,44,0,0,0-5.11,4.32H28.33A34.42,34.42,0,0,1,34.44,9.79Zm23.25,13h30a46.72,46.72,0,0,0-3-4.33H57.69v4.33Zm-33.5-4.33H13.31a47.26,47.26,0,0,0-3,4.33h11A34.55,34.55,0,0,1,24.19,18.44Zm33.5-4.33H80.75a45,45,0,0,0-5.12-4.32H57.69v4.32Zm36.7,32.44c0-.71,0-1.45-0.06-2.16H78.66a36.36,36.36,0,0,0-2.12-4.33H93.91c-0.21-1.47-.49-2.91-0.84-4.33H73.56a34,34,0,0,0-4.15-4.32H91.8A46.29,46.29,0,0,0,90,27.1H40.2V48.73H57.69V70.36H10.27a45.58,45.58,0,0,0,3,4.31H40.18V79h-23a42.93,42.93,0,0,0,5.12,4.31H40.18v4.33H29.6a45.51,45.51,0,0,0,38.73,0H63.44a34.36,34.36,0,0,0,6.09-4.33h6.1A43.74,43.74,0,0,0,80.75,79H73.64a35.75,35.75,0,0,0,2.95-4.33h8a43.54,43.54,0,0,0,3-4.31h-9A34,34,0,0,0,80.11,66H90c0.66-1.42,1.27-2.85,1.79-4.34H80.93a36,36,0,0,0,.26-4.28v0H93.08c0.34-1.42.63-2.86,0.84-4.32h-13a36.37,36.37,0,0,0-.83-4.32H94.32C94.36,48,94.39,47.28,94.39,46.56ZM24.19,61.69h-18C6.67,63.18,7.26,64.61,7.92,66H28.33A36,36,0,0,1,24.19,61.69Zm-5.07-8.64H4a42.53,42.53,0,0,0,.82,4.32H21.24A33.22,33.22,0,0,1,19.12,53.05Zm-2.51-13a36,36,0,0,1,.27-4.33h-12A42.68,42.68,0,0,0,4,40.07H16.61Zm2.51-13H7.92a46.43,46.43,0,0,0-1.78,4.32H17.7A33.27,33.27,0,0,1,19.12,27.1ZM16.88,44.4H3.6c0,0.71,0,1.45,0,2.16s0,1.45,0,2.17H17.7A32.23,32.23,0,0,1,16.88,44.4Z" transform="translate(-3.56 -1.15)"/><path class="cls-2" d="M129.47,74.85a9.06,9.06,0,0,1-5,1.18,7.46,7.46,0,0,1,0-14.91,8.73,8.73,0,0,1,4.83,1.08l-0.7,1.73a8.05,8.05,0,0,0-3.94-.89c-2.56,0-4.9,2.32-4.9,5.56a5.3,5.3,0,0,0,5,5.51,7.55,7.55,0,0,0,3.94-.9Zm8,0.92V69.49A1.4,1.4,0,0,0,136,67.86a4.43,4.43,0,0,0-2.38.93v7h-2.31V62l2.31-.63v5.87A4.76,4.76,0,0,1,137,66.07,2.63,2.63,0,0,1,139.79,69v6.79h-2.31Zm43.7,0V69.49a1.4,1.4,0,0,0-1.53-1.63,4.44,4.44,0,0,0-2.38.93v7H175V62l2.31-.63v5.87a4.73,4.73,0,0,1,3.39-1.21A2.63,2.63,0,0,1,183.48,69v6.79h-2.3Zm-21.9,0V69.49a1.4,1.4,0,0,0-1.52-1.63,4.52,4.52,0,0,0-2.41.93v7h-2.3V66.88l2.2-.59,0.06,1a5,5,0,0,1,3.37-1.21A2.68,2.68,0,0,1,161.58,69v6.79h-2.3Zm7.79-3.6c-0.58,0-1.65.17-1.65,0.95s1,0.92,1.63.92h2.7c2.07,0,3.58,1.21,3.34,3.29s-2.69,3.6-4.94,3.6c-2.45,0-5.16-.59-5.16-2.7a2.9,2.9,0,0,1,1.72-2.53,2.22,2.22,0,0,1-1.19-2.07,2.63,2.63,0,0,1,1.68-2.38A2.39,2.39,0,0,1,164,69.11c0-1.42,1.18-3,3.57-3a7,7,0,0,1,1.87.22h3.65v1.22h-2a2.36,2.36,0,0,1,.66,1.6c0,2-1.83,3.05-3.74,3.05h-0.95ZM164.92,78c0,1.08,1.7,1.47,3,1.47,1.48,0,2.92-.9,3.05-1.9A1.33,1.33,0,0,0,169.46,76h-3.09A2.69,2.69,0,0,0,164.92,78Zm1.22-8.84a1.58,1.58,0,0,0,1.73,1.62,1.54,1.54,0,0,0,1.71-1.62,1.62,1.62,0,0,0-1.71-1.68A1.69,1.69,0,0,0,166.15,69.13Zm23.61-2.84h2.13L194,72.5l2.15-6.21H198l-3.68,9.63h-1.25l-1.7-4.85-1.87,4.85H188.3l-3.4-9.63h2.23l2.13,6.41L190.69,69ZM201.59,76a2.61,2.61,0,0,1-2.93-2.63c0-1.64,1.29-3.06,3.68-3.18l2-.1V69.27a1.49,1.49,0,0,0-1.74-1.68,6.33,6.33,0,0,0-2.66.62L199.42,67a8.61,8.61,0,0,1,3.88-.92c2.17,0,3.32,1.14,3.32,2.79v5.41a4.62,4.62,0,0,0,.35,1.5h-2.4a1.69,1.69,0,0,1-.19-0.85A4.54,4.54,0,0,1,201.59,76Zm2.76-4.57-1.33.11c-1.25.11-2.21,0.55-2.21,1.6a1.34,1.34,0,0,0,1.59,1.27,3.48,3.48,0,0,0,2-.82V71.4Zm-59.83-5.12v6.26a1.35,1.35,0,0,0,1.43,1.63,3.94,3.94,0,0,0,2.29-.92v-7h2.3v8.88l-2.19.6-0.06-1A5.19,5.19,0,0,1,145,76c-1.84,0-2.75-1.14-2.75-2.91V66.29h2.31Zm65.41-4.88h11.62v1.85H217V75.77h-2.48V63.25h-4.58V61.4Zm14.85,13a5.69,5.69,0,0,0,2.61-.49l0.52,1.28a7.59,7.59,0,0,1-3.81.79c-2.92,0-4.76-1.83-4.76-4.87a4.73,4.73,0,0,1,4.58-5c2.31,0,4.34,1.56,4.34,5.18h-6.49C221.78,73.19,222.78,74.39,224.77,74.39Zm-0.92-6.76c-1.25,0-1.88,1-2,2.21h4C225.7,68.41,225,67.63,223.85,67.63Zm6.33-5.6,2.33-.62V75.77h-2.33V62Zm9.77,12.37a5.67,5.67,0,0,0,2.61-.49l0.51,1.28a7.55,7.55,0,0,1-3.8.79c-2.91,0-4.76-1.83-4.76-4.87a4.74,4.74,0,0,1,4.59-5c2.31,0,4.33,1.56,4.33,5.18h-6.47C236.95,73.19,237.95,74.39,239.94,74.39ZM239,67.63c-1.25,0-1.87,1-2,2.21h4C240.85,68.41,240.17,67.63,239,67.63Zm10.84-1.56a7.15,7.15,0,0,1,3.22.59l-0.49,1.43a5.57,5.57,0,0,0-2.43-.45A3.11,3.11,0,0,0,247.29,71a3.19,3.19,0,0,0,2.87,3.37,6.4,6.4,0,0,0,2.47-.43l0.54,1.4a6.78,6.78,0,0,1-3.34.61,4.7,4.7,0,0,1-5-4.95A4.94,4.94,0,0,1,249.86,66.07Zm14.38,5a5.16,5.16,0,1,1-5.17-5A4.85,4.85,0,0,1,264.24,71Zm-7.84,0c0,2,1.06,3.41,2.67,3.41S261.72,73,261.72,71s-1.16-3.43-2.65-3.43C257.33,67.59,256.4,69,256.4,71Zm23.5,4.74h-2.3V69.49a1.38,1.38,0,0,0-1.41-1.66,3.5,3.5,0,0,0-2,.89v7h-2.28V69.49c0-.95-0.3-1.66-1.39-1.66a3.76,3.76,0,0,0-2,.91v7h-2.3V66.88l2.17-.59,0.08,1a4.58,4.58,0,0,1,3-1.23,2.49,2.49,0,0,1,2.44,1.28,4.6,4.6,0,0,1,3.19-1.28,2.62,2.62,0,0,1,2.82,2.87v6.83Z" transform="translate(-3.56 -1.15)"/><path class="cls-2" d="M253.53,18.22a1.74,1.74,0,0,1,1,.66,1.89,1.89,0,0,1,.23,1.4,45.64,45.64,0,0,1-2,7.27V50.33a1.7,1.7,0,0,1-1.68,1.79,1.69,1.69,0,0,1-1.19-.47,1.9,1.9,0,0,1-.46-1.32V33.94c-0.83,1.2-1.36,1.35-1.75,1.4A1.53,1.53,0,0,1,246.5,35a1.8,1.8,0,0,1-.6-1.12,2.3,2.3,0,0,1,.49-1.34,30.45,30.45,0,0,0,5.14-12.82,1.79,1.79,0,0,1,.7-1.23A1.9,1.9,0,0,1,253.53,18.22ZM259,39.72h18.56a2.5,2.5,0,0,1,1.85.66,2,2,0,0,1,.68,1.5V49a2.46,2.46,0,0,1-.82,1.78,2.42,2.42,0,0,1-1.71.79H259a1.88,1.88,0,0,1-1.55-.77,2.56,2.56,0,0,1-.62-1.8V41.88a2.24,2.24,0,0,1,.63-1.53A2.21,2.21,0,0,1,259,39.72Zm2.18,3.2a1,1,0,0,0-.78.22,1,1,0,0,0-.24.7v3.52a1,1,0,0,0,.23.74,1.1,1.1,0,0,0,.81.27h14.48a1.2,1.2,0,0,0,.85-0.26,1,1,0,0,0,.21-0.75V44a1.06,1.06,0,0,0-.19-0.74,1.09,1.09,0,0,0-.83-0.3H261.13Zm-2.34-8.57a1.62,1.62,0,0,0-1.18.47,1.64,1.64,0,0,0-.42,1.11,1.71,1.71,0,0,0,.42,1.15,1.63,1.63,0,0,0,1.18.47h19.28a1.59,1.59,0,0,0,1.16-.47,1.7,1.7,0,0,0,.41-1.15,1.66,1.66,0,0,0-.41-1.16,1.55,1.55,0,0,0-1.15-.42H258.79Zm0-5.05a1.5,1.5,0,0,0-1.18.46,1.71,1.71,0,0,0-.42,1.14,1.66,1.66,0,0,0,.42,1.14,1.54,1.54,0,0,0,1.18.47h19.28a1.63,1.63,0,0,0,1.16-.5,1.61,1.61,0,0,0,.41-1.11,1.52,1.52,0,0,0-.41-1.09,1.57,1.57,0,0,0-1.15-.5H258.79Zm-2.35-5.13a1.47,1.47,0,0,0-1.19.47,1.72,1.72,0,0,0,0,2.27,1.51,1.51,0,0,0,1.19.46h24a1.52,1.52,0,0,0,1.16-.46,1.76,1.76,0,0,0,0-2.27,1.59,1.59,0,0,0-1.15-.47h-24Zm2.35-5.05a1.57,1.57,0,0,0-1.18.45,1.5,1.5,0,0,0-.42,1.15,1.52,1.52,0,0,0,.42,1.15,1.65,1.65,0,0,0,1.18.45h19.28a1.53,1.53,0,0,0,1.16-.45,1.48,1.48,0,0,0,.41-1.15,1.49,1.49,0,0,0-.42-1.15,1.47,1.47,0,0,0-1.14-.44H258.79Z" transform="translate(-3.56 -1.15)"/><path class="cls-2" d="M195.73,21.7a1.63,1.63,0,0,1-.4,1.07,1.53,1.53,0,0,1-1.11.47h-7.6v0.12a1.73,1.73,0,0,1-.48,1.29,1.71,1.71,0,0,1-2.4,0,1.7,1.7,0,0,1-.46-1.29V23.23h-9.53v0.12a1.72,1.72,0,0,1-.48,1.3,1.62,1.62,0,0,1-1.19.5,1.66,1.66,0,0,1-1.21-.5,1.74,1.74,0,0,1-.46-1.29V23.23h-7.58a1.56,1.56,0,0,1-1.12-.43,1.62,1.62,0,0,1,0-2.19,1.51,1.51,0,0,1,1.12-.44h7.57V19.43a1.79,1.79,0,0,1,.47-1.3,1.68,1.68,0,0,1,2.87,1.3v0.76h9.54V19.43a1.73,1.73,0,0,1,.46-1.3,1.71,1.71,0,0,1,1.2-.48,1.73,1.73,0,0,1,1.19.48,1.8,1.8,0,0,1,.47,1.3v0.76h7.61a1.53,1.53,0,0,1,1.09.44A1.62,1.62,0,0,1,195.73,21.7ZM171.67,35.25v3.09h5.19V35.25h-5.19ZM180.19,29v3.24h5.2V29h-5.2Zm5.2,6.75V35.25h-5.2v3.09h13.09a1.42,1.42,0,0,1,1.09.4,1.76,1.76,0,0,1,.43,1.13,1.68,1.68,0,0,1-.41,1.07,1.5,1.5,0,0,1-1.1.47H180.19v2.53h14a1.46,1.46,0,0,1,1.08.41,1.68,1.68,0,0,1,.42,1.13,1.92,1.92,0,0,1-.42,1.13,1.33,1.33,0,0,1-1.09.4h-14v3.35a1.78,1.78,0,0,1-.47,1.29,1.7,1.7,0,0,1-1.2.48,1.6,1.6,0,0,1-1.19-.5,1.67,1.67,0,0,1-.46-1.28V47h-14a1.46,1.46,0,0,1-1.11-.43,1.8,1.8,0,0,1-.42-1.1,1.75,1.75,0,0,1,.42-1.1,1.55,1.55,0,0,1,1.13-.44h14V41.4H163.77a1.53,1.53,0,0,1-1.14-.43,1.6,1.6,0,0,1-.38-1.08,1.69,1.69,0,0,1,.41-1.11,1.6,1.6,0,0,1,1.13-.44h4.55V35.25h-6.49a1.52,1.52,0,0,1-1.11-.42,1.64,1.64,0,0,1-.43-1.11,1.68,1.68,0,0,1,.43-1.08,1.46,1.46,0,0,1,1.12-.44h6.48V31.84a1.74,1.74,0,0,1,.45-1.29,1.64,1.64,0,0,1,1.2-.49,1.68,1.68,0,0,1,1.21.49,1.75,1.75,0,0,1,.47,1.29v0.36h5.19V29H163.78a1.61,1.61,0,0,1-1.12-.43,1.65,1.65,0,0,1,0-2.19,1.56,1.56,0,0,1,1.12-.43h29.49a1.45,1.45,0,0,1,1.09.39,1.72,1.72,0,0,1,.43,1.11,1.74,1.74,0,0,1-.41,1.07,1.36,1.36,0,0,1-1.1.48h-4.55v3.24h6.47a1.34,1.34,0,0,1,1.07.39,1.53,1.53,0,0,1,.43,1.13,1.42,1.42,0,0,1-.41,1.06,1.35,1.35,0,0,1-1.09.47h-6.47v0.46a1.78,1.78,0,0,1-.47,1.19,1.7,1.7,0,0,1-1.2.5,1.63,1.63,0,0,1-1.2-.5,1.71,1.71,0,0,1-.45-1.18h0Z" transform="translate(-3.56 -1.15)"/><path class="cls-2" d="M133,18.12a1.88,1.88,0,0,0-.46,1.34V22H120.34a3.24,3.24,0,0,0-2.31.91,3.15,3.15,0,0,0-1,2.26V42.77a3,3,0,0,0,1,2.21,3.32,3.32,0,0,0,2.28.94h12.22v4.24a2.05,2.05,0,0,0,.49,1.46,1.87,1.87,0,0,0,1.32.5,1.77,1.77,0,0,0,1.27-.5,2.11,2.11,0,0,0,.53-1.46V45.92h12.26a3.46,3.46,0,0,0,2.3-1,3.52,3.52,0,0,0,.92-2.27V25.28A3.41,3.41,0,0,0,150.8,23a3,3,0,0,0-2.39-1H136.17V19.46a1.89,1.89,0,0,0-.47-1.34A2.06,2.06,0,0,0,133,18.12Zm-12.15,24a1,1,0,0,1-.31-0.73V26.63a1.14,1.14,0,0,1,.32-0.78,1,1,0,0,1,.77-0.33h10.91V42.45H121.67A1.14,1.14,0,0,1,120.86,42.13ZM147,25.51a1.16,1.16,0,0,1,.82.34,1.06,1.06,0,0,1,.31.77V41.41a1.11,1.11,0,0,1-.32.73,0.93,0.93,0,0,1-.72.31h-11V25.51H147Z" transform="translate(-3.56 -1.15)"/><path class="cls-2" d="M209.93,38.36a0.88,0.88,0,0,1,.21-0.6,0.82,0.82,0,0,1,.65-0.21H220v2H209.93S209.93,38.4,209.93,38.36ZM220,42.18v2h-9.21a0.85,0.85,0,0,1-.66-0.23,0.84,0.84,0,0,1-.2-0.62V42.18H220Zm12.52-4.63a0.87,0.87,0,0,1,.69.28,0.9,0.9,0,0,1,.18.63v1.08H223.32v-2h9.2Zm0.87,4.63v1.09a0.85,0.85,0,0,1-.22.63,0.92,0.92,0,0,1-.66.23h-9.18v-2h10.06Zm3.13,6.64H224.78a1.76,1.76,0,0,1-1.22-.37,2.69,2.69,0,0,1-.25-1.67h11a2.19,2.19,0,0,0,1.55-.67,2.31,2.31,0,0,0,.73-1.6V36.89a1.88,1.88,0,0,0-.6-1.37,2.54,2.54,0,0,0-1.68-.6H208.66a1.91,1.91,0,0,0-1.4.57,1.8,1.8,0,0,0-.53,1.4V44.5a2.24,2.24,0,0,0,.55,1.6,1.89,1.89,0,0,0,1.36.68H220V48a3.75,3.75,0,0,0,1.35,2.85,3.84,3.84,0,0,0,2.38.77h12.78a1.39,1.39,0,0,0,1.38-1.39A1.37,1.37,0,0,0,236.51,48.82Z" transform="translate(-3.56 -1.15)"/><path class="cls-2" d="M215.65,27.68a1.15,1.15,0,0,1,.84.31,1.18,1.18,0,0,1,.31.85,1.23,1.23,0,0,1-.31.84,1.11,1.11,0,0,1-.84.35h-5.9a1.14,1.14,0,0,1-1.19-1.19,1.21,1.21,0,0,1,.32-0.85,1.16,1.16,0,0,1,.87-0.31h5.9Z" transform="translate(-3.56 -1.15)"/><path class="cls-2" d="M217.68,31.26a1.14,1.14,0,0,1,.83.31,1.25,1.25,0,0,1,0,1.68,1.06,1.06,0,0,1-.83.36h-5.91a1.14,1.14,0,0,1-1.18-1.19,1.26,1.26,0,0,1,.31-0.85,1.19,1.19,0,0,1,.87-0.31h5.91Z" transform="translate(-3.56 -1.15)"/><path class="cls-2" d="M231.58,27.68a1.15,1.15,0,0,1,.85.31,1.18,1.18,0,0,1,.31.85,1.24,1.24,0,0,1-.31.84,1.1,1.1,0,0,1-.85.35h-5.89a1.15,1.15,0,0,1-1.19-1.19,1.21,1.21,0,0,1,.32-0.85,1.16,1.16,0,0,1,.87-0.31h5.89Z" transform="translate(-3.56 -1.15)"/><path class="cls-2" d="M233.6,31.26a1.19,1.19,0,0,1,.84,2,1.07,1.07,0,0,1-.84.36h-5.9a1.17,1.17,0,0,1-1.19-1.19,1.26,1.26,0,0,1,.32-0.85,1.18,1.18,0,0,1,.87-0.31h5.9Z" transform="translate(-3.56 -1.15)"/><path class="cls-2" d="M235.53,26.38a0.85,0.85,0,0,1,.54.23,0.88,0.88,0,0,1,.2.57v4.91a1.89,1.89,0,0,0,.51,1.31,1.61,1.61,0,0,0,1.12.42,1.61,1.61,0,0,0,1.57-1.73V26.24a2.46,2.46,0,0,0-.75-1.86,2.6,2.6,0,0,0-1.85-.78H223.25V21.89h11.65a1.41,1.41,0,0,0,1-.43,1.54,1.54,0,0,0,.38-1,1.7,1.7,0,0,0-.38-1,1.37,1.37,0,0,0-1-.35H208.45a1.39,1.39,0,0,0-1,.39,1.28,1.28,0,0,0-.4,1,1.49,1.49,0,0,0,.4,1,1.43,1.43,0,0,0,1,.38h11.61V23.6H206.43a2.57,2.57,0,0,0-1.84.78,2.45,2.45,0,0,0-.75,1.86v5.84a1.87,1.87,0,0,0,.46,1.25,1.89,1.89,0,0,0,1.11.48,1.62,1.62,0,0,0,1.12-.42,1.84,1.84,0,0,0,.51-1.31V27.18a0.89,0.89,0,0,1,.21-0.57,0.83,0.83,0,0,1,.53-0.23h12.27v6a1.81,1.81,0,0,0,.47,1.29,1.66,1.66,0,0,0,1.13.43,1.62,1.62,0,0,0,1.13-.45,1.87,1.87,0,0,0,.47-1.27v-6h12.27Z" transform="translate(-3.56 -1.15)"/></svg>