<?xml version="1.0" encoding="UTF-8" standalone="no"?>
<svg width="227px" height="81px" viewBox="0 0 227 81" version="1.1" xmlns="http://www.w3.org/2000/svg" xmlns:xlink="http://www.w3.org/1999/xlink">
    <!-- Generator: sketchtool 3.6.1 (26313) - http://www.bohemiancoding.com/sketch -->
    <title>logo</title>
    <desc>Created with sketchtool.</desc>
    <defs></defs>
    <g id="4g卡臨櫃快速訂購頁" stroke="none" stroke-width="1" fill="none" fill-rule="evenodd">
        <g id="產品訂購頁_002" transform="translate(-80.000000, -35.000000)">
            <g id="標頭">
                <g id="logo" transform="translate(80.000000, 35.000000)">
                    <path d="M84.0814861,26.1549574 C84.0814861,28.3103617 82.3626902,30.1337234 80.2139093,30.1337234 C78.1611889,30.1337234 76.3491914,28.2632553 76.3491914,26.1549574 C76.3491914,24.1868298 78.1611889,22.364617 80.2139093,22.364617 C82.2654861,22.364617 84.0814861,24.1397234 84.0814861,26.1549574" id="Fill-1" fill="#1A1918"></path>
                    <path d="M30.4014181,32.7211277 C29.1366222,32.7211277 27.3903804,32.7211277 25.3936952,34.1291489 C24.802466,33.228383 23.883602,32.7211277 22.5742065,32.7211277 C20.5695164,32.7211277 19.1377582,34.2584043 19.1377582,36.5585745 L19.1377582,54.9697021 C19.1377582,57.2738936 20.5695164,58.8065745 22.5742065,58.8065745 C24.5806121,58.8065745 26.007796,57.2738936 26.007796,54.9697021 L26.007796,43.7796383 C26.007796,40.1208511 28.5837028,39.3418723 30.4014181,39.3418723 C32.2219924,39.3418723 33.6972065,37.8608936 33.6972065,36.0335106 C33.6972065,34.2044043 32.2219924,32.7211277 30.4014181,32.7211277" id="Fill-2" fill="#1A1918"></path>
                    <path d="M83.6515013,36.1748298 C83.6515013,34.2675957 82.1105315,32.7211277 80.2139093,32.7211277 C78.3167154,32.7211277 76.7780327,34.2675957 76.7780327,36.1748298 L76.7780327,55.3545957 C76.7780327,57.2606809 78.3167154,58.8065745 80.2139093,58.8065745 C82.1105315,58.8065745 83.6515013,57.2606809 83.6515013,55.3545957 L83.6515013,36.1748298" id="Fill-3" fill="#1A1918"></path>
                    <path d="M43.9905416,26.1549574 C43.9905416,28.3103617 42.270602,30.1337234 40.1229647,30.1337234 C38.0702443,30.1337234 36.2582469,28.2632553 36.2582469,26.1549574 C36.2582469,24.1868298 38.0702443,22.364617 40.1229647,22.364617 C42.1756851,22.364617 43.9905416,24.1397234 43.9905416,26.1549574" id="Fill-4" fill="#1A1918"></path>
                    <path d="M43.5594131,36.1748298 C43.5594131,34.2675957 42.0218741,32.7211277 40.1241083,32.7211277 C38.2257708,32.7211277 36.6876599,34.2675957 36.6876599,36.1748298 L36.6876599,55.3545957 C36.6876599,57.2606809 38.2257708,58.8065745 40.1229647,58.8065745 C42.0218741,58.8065745 43.5594131,57.2606809 43.5594131,55.3545957 L43.5594131,36.1748298" id="Fill-5" fill="#1A1918"></path>
                    <path d="M12.9304232,33.0106596 L11.4026045,33.0106596 L11.4026045,28.5045319 C11.4026045,26.5972979 9.86563728,25.0519787 7.96844332,25.0519787 C6.07010579,25.0519787 4.53199496,26.5972979 4.53199496,28.5045319 L4.53199496,33.0106596 L3.00474811,33.0106596 C1.34541814,33.0106596 0,34.3629574 0,36.0323617 C0,37.6994681 1.34541814,39.0529149 3.00474811,39.0529149 L4.53199496,39.0529149 L4.53199496,55.3545957 C4.53199496,57.2606809 6.07010579,58.8065745 7.96844332,58.8065745 C9.86563728,58.8065745 11.4026045,57.2606809 11.4026045,55.3545957 L11.4026045,39.0529149 L12.9304232,39.0529149 C14.5897531,39.0529149 15.9357431,37.6994681 15.9357431,36.0323617 C15.9357431,34.3629574 14.5897531,33.0106596 12.9304232,33.0106596" id="Fill-6" fill="#1A1918"></path>
                    <path d="M99.9183098,33.0106596 L98.3916348,33.0106596 L98.3916348,28.5045319 C98.3916348,26.5972979 96.8523804,25.0519787 94.9569018,25.0519787 C93.0579924,25.0519787 91.5198816,26.5972979 91.5198816,28.5045319 L91.5198816,33.0106596 L89.9932065,33.0106596 C88.3333048,33.0106596 86.9890302,34.3629574 86.9890302,36.0323617 C86.9890302,37.6994681 88.3333048,39.0529149 89.9932065,39.0529149 L91.5198816,39.0529149 L91.5198816,55.3545957 C91.5198816,57.2606809 93.0579924,58.8065745 94.9569018,58.8065745 C96.8523804,58.8065745 98.3916348,57.2606809 98.3916348,55.3545957 L98.3916348,39.0529149 L99.9183098,39.0529149 C101.578212,39.0529149 102.92363,37.6994681 102.92363,36.0323617 C102.92363,34.3629574 101.578212,33.0106596 99.9183098,33.0106596" id="Fill-7" fill="#1A1918"></path>
                    <path d="M117.191466,33.0106596 L115.664791,33.0106596 L115.664791,28.5045319 C115.664791,26.5972979 114.127824,25.0519787 112.230058,25.0519787 C110.332292,25.0519787 108.793038,26.5972979 108.793038,28.5045319 L108.793038,33.0106596 L107.267506,33.0106596 C105.606461,33.0106596 104.262186,34.3629574 104.262186,36.0323617 C104.262186,37.6994681 105.606461,39.0529149 107.267506,39.0529149 L108.793038,39.0529149 L108.793038,55.3545957 C108.793038,57.2606809 110.332292,58.8065745 112.230058,58.8065745 C114.127824,58.8065745 115.664791,57.2606809 115.664791,55.3545957 L115.664791,39.0529149 L117.191466,39.0529149 C118.851368,39.0529149 120.197929,37.6994681 120.197929,36.0323617 C120.197929,34.3629574 118.851368,33.0106596 117.191466,33.0106596" id="Fill-8" fill="#1A1918"></path>
                    <path d="M61.8366297,32.7211277 C59.3665038,32.7211277 56.8088942,33.7218511 55.5212267,35.7077872 C55.2107456,33.8867234 53.8996348,32.7211277 52.1562519,32.7211277 C50.1527053,32.7211277 48.7180882,34.2584043 48.7180882,36.5585745 L48.7180882,65.4232979 C48.7180882,67.7240426 50.1527053,69.2578723 52.1562519,69.2578723 C54.1586549,69.2578723 55.5915567,67.7240426 55.5915567,65.4232979 L55.5915567,56.573617 C57.3458035,58.0390851 59.5609118,58.7956596 61.6010529,58.7956596 C68.3687406,58.7956596 72.6645869,52.4684681 72.6645869,46.0872766 C72.6645869,39.5216809 69.0697531,32.7211277 61.8366297,32.7211277 M60.7164962,52.6086383 C57.0290327,52.6086383 55.439461,48.8556383 55.439461,45.5702553 C55.439461,42.290617 57.1205189,38.9110213 60.7164962,38.9110213 C64.2152695,38.9110213 65.9443577,42.6169149 65.9443577,45.8069362 C65.9443577,48.9498511 64.2152695,52.6086383 60.7164962,52.6086383" id="Fill-9" fill="#1A1918"></path>
                    <path d="M141.822395,32.7211277 C140.080156,32.7211277 138.770189,33.8867234 138.459708,35.7077872 C137.17204,33.7218511 134.615574,32.7211277 132.143161,32.7211277 C124.910038,32.7211277 121.315204,39.5216809 121.315204,46.0872766 C121.315204,52.4684681 125.612194,58.7956596 132.377594,58.7956596 C134.420594,58.7956596 136.80438,58.0074894 138.593506,56.3920851 C139.057227,57.8799574 140.266559,58.8065745 141.822395,58.8065745 C143.828229,58.8065745 145.261131,57.2738936 145.261131,54.9714255 L145.261131,36.5585745 C145.261131,34.2584043 143.828229,32.7211277 141.822395,32.7211277 M133.265582,52.6086383 C129.765665,52.6086383 128.036005,48.9498511 128.036005,45.8069362 C128.036005,42.6169149 129.765665,38.9110213 133.265582,38.9110213 C136.860416,38.9110213 138.541474,42.290617 138.541474,45.5702553 C138.541474,48.8556383 136.949615,52.6086383 133.265582,52.6086383" id="Fill-10" fill="#1A1918"></path>
                    <path d="M224.974725,62.108617 L196.200617,43.1379574 C195.241728,42.4508936 194.069562,42.2435106 192.926557,43.208617 L192.912834,43.2195319 C191.788126,44.2058936 191.806995,45.3984894 192.327894,46.4612553 L206.479657,77.9794468 C206.479657,77.9794468 207.842801,81.2745957 210.83497,80.2158511 C210.83497,80.2158511 212.578924,79.6017447 212.828796,77.5497447 C213.076952,75.500617 212.544617,72.7420213 215.712325,70.0219149 L215.712325,70.019617 C218.877174,67.3035319 221.506257,68.2651915 223.561264,68.3381489 C225.617987,68.4099574 226.493967,66.7761702 226.493967,66.7761702 C228.00063,63.9721915 224.974725,62.108617 224.974725,62.108617" id="Fill-11" fill="#1A1918"></path>
                    <path d="M222.416544,63.7941064 L196.114277,46.035 L196.110846,46.035 C196.061673,46.0022553 195.998204,45.9821489 195.929018,45.9821489 C195.748904,45.9821489 195.599668,46.1315106 195.599668,46.3130426 C195.599668,46.4308085 195.79236,46.6611702 195.838675,46.7191915 L214.034126,68.1273191 C214.034126,68.1273191 216.621469,65.1923617 221.917373,65.4324894 C221.917373,65.4324894 222.868829,65.502 222.996338,64.7368085 C223.090111,64.1634894 222.416544,63.7941064 222.416544,63.7941064" id="Fill-12" fill="#FFFFFF"></path>
                    <path d="M195.863834,17.6534043 C194.982708,12.1120851 192.012267,7.40317021 187.833065,4.26944681 C184.361166,1.66653191 180.055028,0.143617021 175.409247,0.143617021 C166.882166,0.143617021 159.550695,5.34944681 156.375554,12.7618085 C153.047746,13.0800638 150.445537,15.8961064 150.445537,19.3239574 L154.763111,19.3239574 C154.718511,19.8662553 154.68935,20.4114255 154.68935,20.9634894 C154.68935,26.9494468 157.263542,32.6521915 161.749793,36.6085532 C162.112879,36.9285319 162.560589,37.0865106 163.006013,37.0865106 C163.535489,37.0865106 164.062678,36.8641915 164.440058,36.4321915 C165.134781,35.6394255 165.054159,34.4272979 164.263375,33.7304681 C160.601642,30.501383 158.500892,25.8464681 158.500892,20.9634894 C158.500892,20.4091277 158.528909,19.863383 158.581514,19.3239574 L158.584945,19.3239574 C161.574254,21.3345957 165.167945,22.5105319 169.034378,22.5105319 C177.667239,22.5105319 184.936385,16.6693404 187.152065,8.70778723 C189.710247,11.1831702 191.500516,14.4823404 192.100322,18.2583191 C192.267856,19.3032766 193.246186,20.0133191 194.283411,19.8444255 C195.32235,19.6784043 196.030224,18.6954894 195.863834,17.6534043" id="Fill-13" fill="#1A1918"></path>
                    <path d="M167.368186,17.3661702 C165.39037,17.3661702 163.782501,15.750766 163.782501,13.7648298 C163.782501,11.7748723 165.39037,10.1583191 167.368186,10.1583191 C169.346003,10.1583191 170.9533,11.7748723 170.9533,13.7648298 C170.9533,15.750766 169.346003,17.3661702 167.368186,17.3661702 M167.368186,11.7823404 C166.279501,11.7823404 165.396088,12.6721915 165.396088,13.7648298 C165.396088,14.8545957 166.279501,15.7432979 167.368186,15.7432979 C168.454584,15.7432979 169.340285,14.8545957 169.340285,13.7648298 C169.340285,12.6721915 168.454584,11.7823404 167.368186,11.7823404" id="Fill-14" fill="#FFFFFF"></path>
                    <path d="M190.541627,74.1218936 C176.448758,74.1218936 164.985544,62.6020851 164.985544,48.4425957 C164.985544,34.281383 176.448758,22.7644468 190.541627,22.7644468 C204.633924,22.7644468 216.098854,34.281383 216.098854,48.4425957 C216.098854,48.9136596 216.084559,49.3807021 216.058829,49.8437234 C215.998219,50.9805957 215.033612,51.8468936 213.900327,51.7928936 C212.767615,51.7297021 211.89964,50.7605745 211.960249,49.6225532 C211.981406,49.2324894 211.993413,48.8384043 211.993413,48.4425957 C211.993413,36.558 202.370214,26.8874043 190.541627,26.8874043 C178.71304,26.8874043 169.090413,36.558 169.090413,48.4425957 C169.090413,60.327766 178.71304,69.9983617 190.541627,69.9983617 C193.032909,69.9983617 195.477877,69.5698085 197.807343,68.7270638 C198.873728,68.3421702 200.048753,68.8965319 200.432995,69.9690638 C200.817237,71.0410213 200.263174,72.2209787 199.197932,72.6070213 C196.41904,73.6123404 193.507494,74.1218936 190.541627,74.1218936" id="Fill-15" fill="#1A1918"></path>
                </g>
            </g>
        </g>
    </g>
</svg>