<svg id="圖層_1" data-name="圖層 1" xmlns="http://www.w3.org/2000/svg" viewBox="0 0 42 24"><defs><style>.cls-1{fill:#f9ba0d;}.cls-1,.cls-2,.cls-3{fill-rule:evenodd;}.cls-2{fill:#e6001f;}.cls-3{fill:#fff;}.cls-4{fill:none;stroke:#fff;stroke-miterlimit:2.61;stroke-width:0.04px;}</style></defs><title>a</title><polygon class="cls-1" points="28.37 22.88 28.93 22.86 29.47 22.82 30.01 22.75 30.54 22.66 31.05 22.54 31.56 22.39 32.06 22.22 32.55 22.03 33.03 21.82 33.49 21.58 33.94 21.32 34.37 21.04 34.79 20.74 35.2 20.43 35.59 20.09 35.96 19.73 36.32 19.36 36.65 18.97 36.97 18.57 37.27 18.15 37.55 17.71 37.81 17.26 38.04 16.8 38.26 16.32 38.45 15.83 38.62 15.34 38.77 14.83 38.89 14.31 38.98 13.78 39.05 13.24 39.09 12.7 39.1 12.14 39.09 11.6 39.05 11.05 38.98 10.52 38.89 9.99 38.77 9.48 38.62 8.97 38.45 8.47 38.26 7.99 38.04 7.52 37.81 7.05 37.55 6.61 37.27 6.17 36.97 5.75 36.65 5.35 36.32 4.96 35.96 4.59 35.59 4.24 35.2 3.9 34.79 3.58 34.37 3.28 33.94 3 33.49 2.75 33.03 2.51 32.55 2.3 32.06 2.1 31.56 1.94 31.05 1.79 30.54 1.67 30.01 1.58 29.47 1.51 28.93 1.47 28.37 1.46 27.82 1.47 27.28 1.51 26.74 1.58 26.22 1.67 25.7 1.79 25.19 1.94 24.7 2.1 24.21 2.3 23.73 2.51 23.28 2.75 22.83 3 22.39 3.28 21.98 3.58 21.57 3.9 21.18 4.24 20.81 4.59 20.46 4.96 20.12 5.35 19.8 5.75 19.51 6.17 19.23 6.61 18.97 7.05 18.73 7.52 18.52 7.99 18.33 8.47 18.16 8.97 18.02 9.48 17.9 9.99 17.81 10.52 17.74 11.05 17.7 11.6 17.68 12.14 17.7 12.7 17.74 13.24 17.81 13.78 17.9 14.31 18.02 14.83 18.16 15.34 18.33 15.83 18.52 16.32 18.73 16.8 18.97 17.26 19.23 17.71 19.51 18.15 19.8 18.57 20.12 18.97 20.46 19.36 20.81 19.73 21.18 20.09 21.57 20.43 21.98 20.74 22.39 21.04 22.83 21.32 23.28 21.58 23.73 21.82 24.21 22.03 24.7 22.22 25.19 22.39 25.7 22.54 26.22 22.66 26.74 22.75 27.28 22.82 27.82 22.86 28.37 22.88 28.37 22.88 28.37 22.88"/><polygon class="cls-2" points="14.04 22.88 14.59 22.86 15.14 22.82 15.68 22.75 16.2 22.66 16.72 22.54 17.23 22.39 17.72 22.22 18.21 22.03 18.68 21.82 19.14 21.58 19.59 21.32 20.02 21.04 20.44 20.74 20.85 20.43 21.23 20.09 21.61 19.73 21.96 19.36 22.3 18.97 22.61 18.57 22.91 18.15 23.19 17.71 23.45 17.26 23.68 16.8 23.9 16.32 24.09 15.83 24.25 15.34 24.4 14.83 24.52 14.31 24.61 13.78 24.68 13.24 24.72 12.7 24.73 12.14 24.72 11.6 24.68 11.05 24.61 10.52 24.52 9.99 24.4 9.48 24.25 8.97 24.09 8.47 23.9 7.99 23.68 7.52 23.45 7.05 23.19 6.61 22.91 6.17 22.61 5.75 22.3 5.35 21.96 4.96 21.61 4.59 21.23 4.24 20.85 3.9 20.44 3.58 20.02 3.28 19.59 3 19.14 2.75 18.68 2.51 18.21 2.3 17.72 2.1 17.23 1.94 16.72 1.79 16.2 1.67 15.68 1.58 15.14 1.51 14.59 1.47 14.04 1.46 13.49 1.47 12.95 1.51 12.41 1.58 11.88 1.67 11.37 1.79 10.86 1.94 10.36 2.1 9.87 2.3 9.39 2.51 8.93 2.75 8.48 3 8.04 3.28 7.63 3.58 7.22 3.9 6.83 4.24 6.46 4.59 6.1 4.96 5.76 5.35 5.45 5.75 5.15 6.17 4.87 6.61 4.61 7.05 4.37 7.52 4.16 7.99 3.97 8.47 3.8 8.97 3.65 9.48 3.53 9.99 3.44 10.52 3.37 11.05 3.33 11.6 3.32 12.14 3.33 12.7 3.37 13.24 3.44 13.78 3.53 14.31 3.65 14.83 3.8 15.34 3.97 15.83 4.16 16.32 4.37 16.8 4.61 17.26 4.87 17.71 5.15 18.15 5.45 18.57 5.76 18.97 6.1 19.36 6.46 19.73 6.83 20.09 7.22 20.43 7.63 20.74 8.04 21.04 8.48 21.32 8.93 21.58 9.39 21.82 9.87 22.03 10.36 22.22 10.86 22.39 11.37 22.54 11.88 22.66 12.41 22.75 12.95 22.82 13.49 22.86 14.04 22.88 14.04 22.88 14.04 22.88"/><polygon class="cls-1" points="19.96 5.56 25.65 5.56 25.65 4.98 20.45 4.98 19.96 5.56 19.96 5.56 19.96 5.56"/><polygon class="cls-1" points="19.1 6.86 25.65 6.86 25.65 6.27 19.45 6.27 19.1 6.86 19.1 6.86 19.1 6.86"/><polygon class="cls-1" points="18.47 8.15 25.65 8.15 25.65 7.56 18.72 7.56 18.47 8.15 18.47 8.15 18.47 8.15"/><polygon class="cls-1" points="18.03 9.44 25.65 9.44 25.65 8.86 18.21 8.86 18.03 9.44 18.03 9.44 18.03 9.44"/><polygon class="cls-1" points="18.28 15.69 25.66 15.69 25.66 15.11 18.1 15.11 18.28 15.69 18.28 15.69 18.28 15.69"/><polygon class="cls-1" points="18.83 16.98 25.66 16.98 25.66 16.4 18.56 16.4 18.83 16.98 18.83 16.98 18.83 16.98"/><polygon class="cls-1" points="19.59 18.27 25.66 18.27 25.66 17.69 19.23 17.69 19.59 18.27 19.59 18.27 19.59 18.27"/><polygon class="cls-1" points="20.65 19.57 25.66 19.57 25.66 18.98 20.14 18.98 20.65 19.57 20.65 19.57 20.65 19.57"/><polygon class="cls-1" points="17.77 10.73 25.65 10.73 25.65 10.15 17.89 10.15 17.77 10.73 17.77 10.73 17.77 10.73"/><polygon class="cls-1" points="22.57 14.4 25.57 14.4 25.57 13.82 22.68 13.82 22.57 14.4 22.57 14.4 22.57 14.4"/><polygon class="cls-1" points="22.81 13.11 25.57 13.11 25.57 12.52 22.92 12.52 22.81 13.11 22.81 13.11 22.81 13.11"/><polygon class="cls-1" points="17.57 12.52 18.36 12.52 18.36 13.11 17.61 13.11 17.57 12.52 17.57 12.52 17.57 12.52"/><polygon class="cls-3" points="16.12 11.82 16.07 11.82 16.02 11.81 15.97 11.8 15.92 11.79 15.88 11.79 15.83 11.78 15.79 11.77 15.74 11.77 15.69 11.76 15.63 11.76 15.56 11.75 15.49 11.75 15.42 11.75 15.34 11.75 15.24 11.76 15.14 11.77 15.06 11.78 14.99 11.79 14.93 11.81 14.88 11.83 14.83 11.86 14.78 11.88 14.75 11.92 14.71 11.95 14.69 11.99 14.67 12.03 14.67 12.08 14.67 12.12 14.68 12.17 14.69 12.21 14.72 12.26 14.76 12.31 14.83 12.38 14.92 12.43 15.02 12.48 15.13 12.52 15.24 12.55 15.36 12.59 15.48 12.64 15.6 12.68 15.7 12.74 15.8 12.82 15.89 12.91 15.97 13.02 16.03 13.16 16.07 13.32 16.08 13.52 16.07 13.74 16.04 13.91 16 14.06 15.94 14.2 15.87 14.32 15.78 14.43 15.69 14.52 15.59 14.59 15.48 14.66 15.36 14.72 15.24 14.76 15.12 14.8 14.99 14.83 14.87 14.85 14.75 14.86 14.63 14.87 14.52 14.87 14.36 14.87 14.22 14.87 14.09 14.87 13.97 14.87 13.87 14.86 13.77 14.85 13.68 14.85 13.6 14.84 13.52 14.83 13.45 14.81 13.38 14.8 13.32 14.79 13.26 14.77 13.2 14.75 13.15 14.73 13.08 14.71 13.25 13.91 13.28 13.91 13.32 13.93 13.37 13.94 13.43 13.96 13.5 13.97 13.57 13.98 13.65 14 13.73 14.02 13.82 14.03 13.92 14.04 14.02 14.06 14.12 14.07 14.22 14.07 14.33 14.07 14.43 14.07 14.54 14.07 14.64 14.05 14.72 14.02 14.79 13.98 14.84 13.93 14.88 13.88 14.9 13.82 14.92 13.76 14.94 13.71 14.95 13.6 14.91 13.51 14.85 13.44 14.76 13.38 14.65 13.33 14.53 13.27 14.38 13.22 14.24 13.16 14.1 13.1 13.96 13.02 13.84 12.93 13.72 12.82 13.63 12.68 13.56 12.52 13.53 12.32 13.54 12.09 13.55 11.95 13.58 11.82 13.62 11.69 13.66 11.58 13.72 11.47 13.78 11.38 13.86 11.29 13.95 11.21 14.05 11.14 14.17 11.08 14.3 11.03 14.44 10.98 14.61 10.95 14.78 10.93 14.98 10.91 15.19 10.91 15.32 10.91 15.45 10.91 15.56 10.92 15.66 10.92 15.75 10.93 15.83 10.94 15.91 10.94 15.97 10.95 16.03 10.96 16.08 10.97 16.13 10.97 16.17 10.98 16.21 10.99 16.24 10.99 16.27 11 16.3 11 16.12 11.82 16.12 11.82 16.12 11.82"/><polyline class="cls-4" points="16.12 11.82 16.12 11.82 16.07 11.82 16.02 11.81 15.97 11.8 15.92 11.79 15.88 11.79 15.83 11.78 15.79 11.77 15.74 11.77 15.69 11.76 15.63 11.76 15.56 11.75 15.49 11.75 15.42 11.75 15.34 11.75 15.24 11.76 15.14 11.77 15.14 11.77 15.06 11.78 14.99 11.79 14.93 11.81 14.88 11.83 14.83 11.86 14.78 11.88 14.75 11.92 14.71 11.95 14.69 11.99 14.67 12.03 14.67 12.08 14.67 12.12 14.68 12.17 14.69 12.21 14.72 12.26 14.76 12.31 14.76 12.31 14.83 12.38 14.92 12.43 15.02 12.48 15.13 12.52 15.24 12.55 15.36 12.59 15.48 12.64 15.6 12.68 15.7 12.74 15.8 12.82 15.89 12.91 15.97 13.02 16.03 13.16 16.07 13.32 16.08 13.52 16.07 13.74 16.07 13.74 16.04 13.91 16 14.06 15.94 14.2 15.87 14.32 15.78 14.43 15.69 14.52 15.59 14.59 15.48 14.66 15.36 14.72 15.24 14.76 15.12 14.8 14.99 14.83 14.87 14.85 14.75 14.86 14.63 14.87 14.52 14.87 14.52 14.87 14.36 14.87 14.22 14.87 14.09 14.87 13.97 14.87 13.87 14.86 13.77 14.85 13.68 14.85 13.6 14.84 13.52 14.83 13.45 14.81 13.38 14.8 13.32 14.79 13.26 14.77 13.2 14.75 13.15 14.73 13.08 14.71 13.25 13.91 13.25 13.91 13.28 13.91 13.32 13.93 13.37 13.94 13.43 13.96 13.5 13.97 13.57 13.98 13.65 14 13.73 14.02 13.82 14.03 13.92 14.04 14.02 14.06 14.12 14.07 14.22 14.07 14.33 14.07 14.43 14.07 14.54 14.07 14.54 14.07 14.64 14.05 14.72 14.02 14.79 13.98 14.84 13.93 14.88 13.88 14.9 13.82 14.92 13.76 14.94 13.71 14.94 13.71 14.95 13.6 14.91 13.51 14.85 13.44 14.76 13.38 14.65 13.33 14.53 13.27 14.38 13.22 14.24 13.16 14.1 13.1 13.96 13.02 13.84 12.93 13.72 12.82 13.63 12.68 13.56 12.52 13.53 12.32 13.54 12.09 13.54 12.09 13.55 11.95 13.58 11.82 13.62 11.69 13.66 11.58 13.72 11.47 13.78 11.38 13.86 11.29 13.95 11.21 14.05 11.14 14.17 11.08 14.3 11.03 14.44 10.98 14.61 10.95 14.78 10.93 14.98 10.91 15.19 10.91 15.19 10.91 15.32 10.91 15.45 10.91 15.56 10.92 15.66 10.92 15.75 10.93 15.83 10.94 15.91 10.94 15.97 10.95 16.03 10.96 16.08 10.97 16.13 10.97 16.17 10.98 16.21 10.99 16.24 10.99 16.27 11 16.3 11 16.12 11.82"/><polygon class="cls-3" points="16.98 10.11 17.98 10.11 17.83 10.98 18.43 10.98 18.3 11.8 17.66 11.78 17.32 13.8 17.32 13.87 17.33 13.93 17.37 13.98 17.42 14.02 17.48 14.04 17.55 14.07 17.63 14.08 17.72 14.09 17.8 14.09 17.87 14.08 17.94 14.07 17.99 14.05 18.04 14.04 18.07 14.03 18.09 14.02 18.1 14.02 17.98 14.69 17.95 14.71 17.93 14.72 17.9 14.73 17.88 14.75 17.85 14.76 17.82 14.77 17.79 14.78 17.76 14.79 17.72 14.8 17.68 14.81 17.64 14.82 17.6 14.83 17.55 14.83 17.5 14.84 17.44 14.85 17.38 14.85 17.1 14.85 16.96 14.84 16.83 14.83 16.71 14.81 16.62 14.78 16.53 14.75 16.47 14.71 16.4 14.67 16.36 14.62 16.32 14.57 16.3 14.51 16.28 14.45 16.27 14.38 16.26 14.3 16.26 14.23 16.27 14.14 16.29 14.05 16.98 10.11 16.98 10.11 16.98 10.11"/><polyline class="cls-4" points="16.98 10.11 17.98 10.11 17.83 10.98 18.43 10.98 18.3 11.8 17.66 11.78 17.32 13.8 17.32 13.8 17.32 13.87 17.33 13.93 17.37 13.98 17.42 14.02 17.48 14.04 17.55 14.07 17.63 14.08 17.72 14.09 17.72 14.09 17.8 14.09 17.87 14.08 17.94 14.07 17.99 14.05 18.04 14.04 18.07 14.03 18.09 14.02 18.1 14.02 17.98 14.69 17.98 14.69 17.95 14.71 17.93 14.72 17.9 14.73 17.88 14.75 17.85 14.76 17.82 14.77 17.79 14.78 17.76 14.79 17.72 14.8 17.68 14.81 17.64 14.82 17.6 14.83 17.55 14.83 17.5 14.84 17.44 14.85 17.38 14.85 17.1 14.85 17.1 14.85 16.96 14.84 16.83 14.83 16.71 14.81 16.62 14.78 16.53 14.75 16.47 14.71 16.4 14.67 16.36 14.62 16.32 14.57 16.3 14.51 16.28 14.45 16.27 14.38 16.26 14.3 16.26 14.23 16.27 14.14 16.29 14.05 16.98 10.11"/><polygon class="cls-3" points="19.23 13.16 19.22 13.22 19.21 13.29 19.22 13.36 19.24 13.43 19.26 13.5 19.29 13.56 19.33 13.63 19.37 13.69 19.43 13.75 19.48 13.81 19.54 13.86 19.6 13.9 19.67 13.94 19.74 13.98 19.81 14 19.88 14.02 19.98 14.03 20.07 14.04 20.16 14.05 20.25 14.06 20.35 14.06 20.45 14.06 20.54 14.06 20.64 14.05 20.74 14.04 20.83 14.02 20.93 14 21.03 13.97 21.13 13.93 21.24 13.88 21.34 13.82 21.44 13.76 21.3 14.65 21.24 14.68 21.18 14.71 21.13 14.73 21.07 14.75 21.02 14.77 20.96 14.79 20.9 14.8 20.84 14.81 20.78 14.83 20.7 14.83 20.63 14.84 20.54 14.85 20.45 14.85 20.35 14.85 20.24 14.85 20.12 14.85 19.95 14.85 19.76 14.83 19.58 14.81 19.4 14.76 19.23 14.71 19.06 14.64 18.89 14.55 18.74 14.45 18.6 14.32 18.48 14.18 18.37 14.01 18.29 13.82 18.23 13.6 18.18 13.36 18.18 13.1 18.19 12.8 18.21 12.68 18.23 12.55 18.26 12.41 18.3 12.26 18.35 12.1 18.42 11.95 18.5 11.79 18.6 11.64 18.72 11.49 18.86 11.35 19.02 11.23 19.2 11.12 19.41 11.03 19.64 10.97 19.9 10.92 20.19 10.91 20.34 10.91 20.48 10.93 20.63 10.95 20.78 10.99 20.92 11.04 21.07 11.11 21.2 11.2 21.31 11.3 21.42 11.42 21.51 11.56 21.59 11.73 21.64 11.92 21.66 12.14 21.67 12.38 21.64 12.66 21.59 12.96 21.57 13.18 18.94 13.18 19.1 12.47 20.68 12.47 20.69 12.38 20.69 12.29 20.68 12.21 20.67 12.14 20.64 12.07 20.62 12.01 20.58 11.96 20.54 11.91 20.5 11.86 20.45 11.83 20.4 11.79 20.35 11.77 20.29 11.74 20.23 11.73 20.17 11.72 20.1 11.71 20.04 11.71 19.97 11.73 19.91 11.74 19.85 11.76 19.79 11.79 19.73 11.82 19.68 11.86 19.63 11.91 19.58 11.96 19.54 12.01 19.5 12.07 19.47 12.13 19.43 12.2 19.41 12.27 19.39 12.34 19.37 12.42 19.23 13.16 19.23 13.16 19.23 13.16"/><polyline class="cls-4" points="19.23 13.16 19.23 13.16 19.22 13.22 19.21 13.29 19.22 13.36 19.24 13.43 19.26 13.5 19.29 13.56 19.33 13.63 19.37 13.69 19.43 13.75 19.48 13.81 19.54 13.86 19.6 13.9 19.67 13.94 19.74 13.98 19.81 14 19.88 14.02 19.88 14.02 19.98 14.03 20.07 14.04 20.16 14.05 20.25 14.06 20.35 14.06 20.45 14.06 20.54 14.06 20.64 14.05 20.74 14.04 20.83 14.02 20.93 14 21.03 13.97 21.13 13.93 21.24 13.88 21.34 13.82 21.44 13.76 21.3 14.65 21.3 14.65 21.24 14.68 21.18 14.71 21.13 14.73 21.07 14.75 21.02 14.77 20.96 14.79 20.9 14.8 20.84 14.81 20.78 14.83 20.7 14.83 20.63 14.84 20.54 14.85 20.45 14.85 20.35 14.85 20.24 14.85 20.12 14.85 20.12 14.85 19.95 14.85 19.76 14.83 19.58 14.81 19.4 14.76 19.23 14.71 19.06 14.64 18.89 14.55 18.74 14.45 18.6 14.32 18.48 14.18 18.37 14.01 18.29 13.82 18.23 13.6 18.18 13.36 18.18 13.1 18.19 12.8 18.19 12.8 18.21 12.68 18.23 12.55 18.26 12.41 18.3 12.26 18.35 12.1 18.42 11.95 18.5 11.79 18.6 11.64 18.72 11.49 18.86 11.35 19.02 11.23 19.2 11.12 19.41 11.03 19.64 10.97 19.9 10.92 20.19 10.91 20.19 10.91 20.34 10.91 20.48 10.93 20.63 10.95 20.78 10.99 20.92 11.04 21.07 11.11 21.2 11.2 21.31 11.3 21.42 11.42 21.51 11.56 21.59 11.73 21.64 11.92 21.66 12.14 21.67 12.38 21.64 12.66 21.59 12.96 21.57 13.18 18.94 13.18 19.1 12.47 20.68 12.47 20.68 12.47 20.69 12.38 20.69 12.29 20.68 12.21 20.67 12.14 20.64 12.07 20.62 12.01 20.58 11.96 20.54 11.91 20.5 11.86 20.45 11.83 20.4 11.79 20.35 11.77 20.29 11.74 20.23 11.73 20.17 11.72 20.1 11.71 20.1 11.71 20.04 11.71 19.97 11.73 19.91 11.74 19.85 11.76 19.79 11.79 19.73 11.82 19.68 11.86 19.63 11.91 19.58 11.96 19.54 12.01 19.5 12.07 19.47 12.13 19.43 12.2 19.41 12.27 19.39 12.34 19.37 12.42 19.23 13.16"/><polygon class="cls-3" points="27.85 11.2 27.8 11.18 27.75 11.15 27.7 11.13 27.65 11.11 27.59 11.08 27.53 11.06 27.47 11.04 27.41 11.02 27.34 11 27.27 10.98 27.19 10.97 27.12 10.96 27.03 10.95 26.95 10.95 26.86 10.95 26.77 10.95 26.68 10.95 26.59 10.95 26.49 10.96 26.39 10.98 26.29 11.01 26.19 11.05 26.09 11.1 25.98 11.17 25.89 11.24 25.79 11.34 25.7 11.46 25.62 11.59 25.54 11.75 25.46 11.93 25.39 12.13 25.34 12.36 25.31 12.49 25.3 12.62 25.29 12.74 25.3 12.87 25.31 12.99 25.33 13.11 25.36 13.21 25.4 13.32 25.46 13.42 25.52 13.51 25.6 13.6 25.68 13.67 25.78 13.74 25.89 13.79 26.02 13.84 26.16 13.87 26.2 13.88 26.26 13.89 26.32 13.9 26.39 13.91 26.47 13.91 26.56 13.91 26.65 13.91 26.74 13.91 26.83 13.9 26.92 13.88 27.02 13.85 27.11 13.82 27.2 13.79 27.28 13.74 27.35 13.68 27.43 13.62 27.26 14.58 27.24 14.6 27.22 14.62 27.19 14.64 27.16 14.67 27.12 14.7 27.07 14.72 27.01 14.75 26.95 14.77 26.86 14.79 26.77 14.81 26.66 14.83 26.53 14.84 26.39 14.85 26.23 14.85 26.05 14.85 25.84 14.84 25.68 14.82 25.51 14.78 25.35 14.73 25.18 14.66 25.02 14.57 24.87 14.46 24.72 14.33 24.59 14.19 24.47 14.03 24.37 13.85 24.28 13.64 24.22 13.42 24.18 13.18 24.16 12.93 24.17 12.64 24.21 12.34 24.24 12.2 24.27 12.05 24.3 11.91 24.34 11.78 24.38 11.65 24.43 11.52 24.48 11.4 24.53 11.29 24.58 11.18 24.63 11.08 24.7 10.97 24.76 10.88 24.82 10.79 24.9 10.7 24.97 10.62 25.05 10.55 25.13 10.48 25.21 10.41 25.3 10.35 25.39 10.29 25.49 10.23 25.58 10.19 25.68 10.14 25.79 10.1 25.9 10.07 26.01 10.04 26.13 10.01 26.25 9.99 26.38 9.97 26.5 9.96 26.64 9.95 26.77 9.95 26.89 9.95 27 9.96 27.11 9.97 27.22 9.98 27.32 10 27.42 10.02 27.51 10.04 27.6 10.06 27.68 10.08 27.75 10.1 27.82 10.13 27.88 10.15 27.93 10.16 27.97 10.18 28 10.19 28.03 10.2 27.85 11.2 27.85 11.2 27.85 11.2"/><polyline class="cls-4" points="27.85 11.2 27.85 11.2 27.8 11.18 27.75 11.15 27.7 11.13 27.65 11.11 27.59 11.08 27.53 11.06 27.47 11.04 27.41 11.02 27.34 11 27.27 10.98 27.19 10.97 27.12 10.96 27.03 10.95 26.95 10.95 26.86 10.95 26.77 10.95 26.77 10.95 26.68 10.95 26.59 10.95 26.49 10.96 26.39 10.98 26.29 11.01 26.19 11.05 26.09 11.1 25.98 11.17 25.89 11.24 25.79 11.34 25.7 11.46 25.62 11.59 25.54 11.75 25.46 11.93 25.39 12.13 25.34 12.36 25.34 12.36 25.31 12.49 25.3 12.62 25.29 12.74 25.3 12.87 25.31 12.99 25.33 13.11 25.36 13.21 25.4 13.32 25.46 13.42 25.52 13.51 25.6 13.6 25.68 13.67 25.78 13.74 25.89 13.79 26.02 13.84 26.16 13.87 26.16 13.87 26.2 13.88 26.26 13.89 26.32 13.9 26.39 13.91 26.47 13.91 26.56 13.91 26.65 13.91 26.74 13.91 26.83 13.9 26.92 13.88 27.02 13.85 27.11 13.82 27.2 13.79 27.28 13.74 27.35 13.68 27.43 13.62 27.26 14.58 27.26 14.58 27.24 14.6 27.22 14.62 27.19 14.64 27.16 14.67 27.12 14.7 27.07 14.72 27.01 14.75 26.95 14.77 26.86 14.79 26.77 14.81 26.66 14.83 26.53 14.84 26.39 14.85 26.23 14.85 26.05 14.85 25.84 14.84 25.84 14.84 25.68 14.82 25.51 14.78 25.35 14.73 25.18 14.66 25.02 14.57 24.87 14.46 24.72 14.33 24.59 14.19 24.47 14.03 24.37 13.85 24.28 13.64 24.22 13.42 24.18 13.18 24.16 12.93 24.17 12.64 24.21 12.34 24.21 12.34 24.24 12.2 24.27 12.05 24.3 11.91 24.34 11.78 24.38 11.65 24.43 11.52 24.48 11.4 24.53 11.29 24.58 11.18 24.63 11.08 24.7 10.97 24.76 10.88 24.82 10.79 24.9 10.7 24.97 10.62 25.05 10.55 25.13 10.48 25.21 10.41 25.3 10.35 25.39 10.29 25.49 10.23 25.58 10.19 25.68 10.14 25.79 10.1 25.9 10.07 26.01 10.04 26.13 10.01 26.25 9.99 26.38 9.97 26.5 9.96 26.64 9.95 26.77 9.95 26.77 9.95 26.89 9.95 27 9.96 27.11 9.97 27.22 9.98 27.32 10 27.42 10.02 27.51 10.04 27.6 10.06 27.68 10.08 27.75 10.1 27.82 10.13 27.88 10.15 27.93 10.16 27.97 10.18 28 10.19 28.03 10.2 27.85 11.2"/><polygon class="cls-3" points="36.74 14.85 35.74 14.85 35.81 14.45 35.81 14.42 35.75 14.49 35.69 14.55 35.63 14.61 35.57 14.66 35.5 14.71 35.44 14.75 35.37 14.78 35.3 14.81 35.23 14.84 35.16 14.86 35.1 14.88 35.02 14.89 34.95 14.9 34.88 14.9 34.81 14.91 34.74 14.91 34.55 14.89 34.38 14.85 34.22 14.79 34.07 14.71 33.94 14.61 33.83 14.48 33.73 14.35 33.64 14.2 33.57 14.03 33.51 13.87 33.47 13.69 33.44 13.5 33.43 13.32 33.43 13.13 33.45 12.95 33.48 12.76 33.54 12.55 33.6 12.35 33.68 12.16 33.77 11.99 33.86 11.83 33.97 11.68 34.09 11.55 34.2 11.43 34.33 11.33 34.46 11.24 34.6 11.16 34.74 11.1 34.88 11.05 35.03 11.01 35.17 10.99 35.32 10.98 35.42 10.99 35.53 11 35.62 11.02 35.71 11.04 35.79 11.07 35.86 11.11 35.93 11.14 36 11.18 36.06 11.23 36.11 11.27 36.16 11.32 36.2 11.37 36.24 11.41 36.27 11.46 36.3 11.51 36.32 11.55 36.32 11.55 36.57 10.13 37.56 10.13 36.74 14.85 36.74 14.85 36.74 14.85"/><polyline class="cls-4" points="36.74 14.85 35.74 14.85 35.81 14.45 35.81 14.42 35.81 14.42 35.75 14.49 35.69 14.55 35.63 14.61 35.57 14.66 35.5 14.71 35.44 14.75 35.37 14.78 35.3 14.81 35.23 14.84 35.16 14.86 35.1 14.88 35.02 14.89 34.95 14.9 34.88 14.9 34.81 14.91 34.74 14.91 34.74 14.91 34.55 14.89 34.38 14.85 34.22 14.79 34.07 14.71 33.94 14.61 33.83 14.48 33.73 14.35 33.64 14.2 33.57 14.03 33.51 13.87 33.47 13.69 33.44 13.5 33.43 13.32 33.43 13.13 33.45 12.95 33.48 12.76 33.48 12.76 33.54 12.55 33.6 12.35 33.68 12.16 33.77 11.99 33.86 11.83 33.97 11.68 34.09 11.55 34.2 11.43 34.33 11.33 34.46 11.24 34.6 11.16 34.74 11.1 34.88 11.05 35.03 11.01 35.17 10.99 35.32 10.98 35.32 10.98 35.42 10.99 35.53 11 35.62 11.02 35.71 11.04 35.79 11.07 35.86 11.11 35.93 11.14 36 11.18 36.06 11.23 36.11 11.27 36.16 11.32 36.2 11.37 36.24 11.41 36.27 11.46 36.3 11.51 36.32 11.55 36.32 11.55 36.57 10.13 37.56 10.13 36.74 14.85"/><polygon class="cls-1" points="35.1 13.98 35.2 13.97 35.3 13.95 35.38 13.93 35.47 13.89 35.54 13.84 35.62 13.79 35.69 13.73 35.75 13.66 35.8 13.59 35.85 13.51 35.9 13.43 35.94 13.34 35.97 13.25 36 13.16 36.03 13.06 36.05 12.96 36.06 12.86 36.08 12.76 36.08 12.66 36.07 12.56 36.06 12.46 36.05 12.37 36.02 12.29 35.99 12.2 35.96 12.13 35.91 12.06 35.87 12 35.81 11.95 35.75 11.91 35.69 11.88 35.62 11.86 35.54 11.86 35.44 11.86 35.35 11.88 35.27 11.91 35.19 11.94 35.11 11.99 35.04 12.05 34.98 12.11 34.92 12.18 34.87 12.26 34.81 12.34 34.77 12.43 34.73 12.52 34.69 12.62 34.66 12.72 34.63 12.82 34.61 12.93 34.59 13.08 34.6 13.26 34.63 13.44 34.67 13.6 34.75 13.75 34.84 13.87 34.96 13.95 35.1 13.98 35.1 13.98 35.1 13.98"/><polygon class="cls-3" points="12.92 14.05 12.77 14.85 11.86 14.85 11.89 14.71 11.91 14.57 11.92 14.47 11.94 14.42 11.88 14.47 11.83 14.53 11.76 14.59 11.68 14.64 11.6 14.69 11.51 14.73 11.41 14.78 11.31 14.81 11.21 14.84 11.11 14.87 11 14.89 10.89 14.9 10.79 14.91 10.68 14.92 10.58 14.9 10.48 14.89 10.36 14.86 10.24 14.82 10.14 14.78 10.05 14.72 9.97 14.66 9.9 14.6 9.84 14.53 9.79 14.46 9.75 14.38 9.71 14.3 9.68 14.22 9.66 14.14 9.64 14.06 9.63 13.98 9.63 13.9 9.63 13.82 9.64 13.68 9.66 13.54 9.7 13.42 9.74 13.29 9.8 13.18 9.87 13.07 9.94 12.97 10.03 12.88 10.12 12.8 10.22 12.72 10.32 12.65 10.43 12.6 10.55 12.55 10.67 12.51 10.79 12.47 10.92 12.45 10.92 12.45 10.94 12.45 10.97 12.45 11.01 12.44 11.05 12.43 11.1 12.43 11.15 12.42 11.22 12.42 11.28 12.41 11.34 12.4 11.4 12.4 11.46 12.39 11.52 12.39 11.57 12.38 11.63 12.38 11.66 12.38 11.75 12.38 11.83 12.38 11.91 12.39 11.99 12.39 12.06 12.39 12.11 12.39 12.14 12.4 12.16 12.4 12.16 12.37 12.19 12.31 12.2 12.23 12.21 12.16 12.2 12.08 12.16 12.01 12.12 11.95 12.06 11.89 11.99 11.85 11.92 11.81 11.83 11.79 11.74 11.78 11.64 11.78 11.53 11.78 11.41 11.78 11.3 11.78 11.18 11.79 11.06 11.8 10.95 11.81 10.84 11.82 10.73 11.84 10.62 11.86 10.53 11.87 10.44 11.89 10.36 11.91 10.3 11.94 10.25 11.96 10.21 11.98 10.46 11.11 10.54 11.08 10.62 11.05 10.71 11.03 10.8 11.01 10.88 10.99 10.98 10.97 11.07 10.96 11.17 10.95 11.27 10.95 11.38 10.94 11.48 10.94 11.6 10.94 11.71 10.94 11.83 10.94 11.96 10.94 12.08 10.95 12.19 10.95 12.29 10.97 12.4 11 12.52 11.03 12.63 11.07 12.74 11.12 12.85 11.18 12.95 11.25 13.04 11.33 13.12 11.42 13.19 11.52 13.25 11.63 13.28 11.74 13.3 11.86 13.3 12 13.28 12.14 12.92 14.05 12.92 14.05 12.92 14.05"/><polyline class="cls-4" points="12.92 14.05 12.77 14.85 11.86 14.85 11.86 14.85 11.89 14.71 11.91 14.57 11.92 14.47 11.94 14.42 11.94 14.42 11.88 14.47 11.83 14.53 11.76 14.59 11.68 14.64 11.6 14.69 11.51 14.73 11.41 14.78 11.31 14.81 11.21 14.84 11.11 14.87 11 14.89 10.89 14.9 10.79 14.91 10.68 14.92 10.58 14.9 10.48 14.89 10.48 14.89 10.36 14.86 10.24 14.82 10.14 14.78 10.05 14.72 9.97 14.66 9.9 14.6 9.84 14.53 9.79 14.46 9.75 14.38 9.71 14.3 9.68 14.22 9.66 14.14 9.64 14.06 9.63 13.98 9.63 13.9 9.63 13.82 9.63 13.82 9.64 13.68 9.66 13.54 9.7 13.42 9.74 13.29 9.8 13.18 9.87 13.07 9.94 12.97 10.03 12.88 10.12 12.8 10.22 12.72 10.32 12.65 10.43 12.6 10.55 12.55 10.67 12.51 10.79 12.47 10.92 12.45 10.92 12.45 10.92 12.45 10.94 12.45 10.97 12.45 11.01 12.44 11.05 12.43 11.1 12.43 11.15 12.42 11.22 12.42 11.28 12.41 11.34 12.4 11.4 12.4 11.46 12.39 11.52 12.39 11.57 12.38 11.63 12.38 11.66 12.38 11.66 12.38 11.75 12.38 11.83 12.38 11.91 12.39 11.99 12.39 12.06 12.39 12.11 12.39 12.14 12.4 12.16 12.4 12.16 12.4 12.16 12.37 12.19 12.31 12.2 12.23 12.21 12.16 12.21 12.16 12.2 12.08 12.16 12.01 12.12 11.95 12.06 11.89 11.99 11.85 11.92 11.81 11.83 11.79 11.74 11.78 11.74 11.78 11.64 11.78 11.53 11.78 11.41 11.78 11.3 11.78 11.18 11.79 11.06 11.8 10.95 11.81 10.84 11.82 10.73 11.84 10.62 11.86 10.53 11.87 10.44 11.89 10.36 11.91 10.3 11.94 10.25 11.96 10.21 11.98 10.46 11.11 10.46 11.11 10.54 11.08 10.62 11.05 10.71 11.03 10.8 11.01 10.88 10.99 10.98 10.97 11.07 10.96 11.17 10.95 11.27 10.95 11.38 10.94 11.48 10.94 11.6 10.94 11.71 10.94 11.83 10.94 11.96 10.94 12.08 10.95 12.08 10.95 12.19 10.95 12.29 10.97 12.4 11 12.52 11.03 12.63 11.07 12.74 11.12 12.85 11.18 12.95 11.25 13.04 11.33 13.12 11.42 13.19 11.52 13.25 11.63 13.28 11.74 13.3 11.86 13.3 12 13.28 12.14 12.92 14.05"/><polygon class="cls-2" points="12.05 13.11 12.04 13.09 12.03 13.07 12.01 13.06 11.97 13.05 11.93 13.05 11.88 13.04 11.83 13.04 11.78 13.04 11.72 13.05 11.66 13.05 11.6 13.06 11.54 13.07 11.49 13.08 11.44 13.09 11.39 13.1 11.35 13.11 11.33 13.12 11.3 13.13 11.26 13.14 11.22 13.16 11.17 13.18 11.13 13.21 11.08 13.23 11.03 13.26 10.98 13.3 10.93 13.33 10.89 13.38 10.85 13.42 10.81 13.47 10.79 13.52 10.77 13.58 10.75 13.63 10.75 13.76 10.77 13.85 10.8 13.93 10.85 13.98 10.91 14.02 10.97 14.04 11.03 14.05 11.08 14.05 11.19 14.05 11.29 14.04 11.38 14.02 11.47 14 11.54 13.98 11.61 13.94 11.67 13.91 11.72 13.87 11.77 13.84 11.81 13.79 11.85 13.75 11.88 13.71 11.9 13.67 11.93 13.62 11.94 13.58 11.95 13.54 11.98 13.44 12.01 13.32 12.03 13.2 12.05 13.11 12.05 13.11 12.05 13.11"/><polygon class="cls-3" points="5.32 14.85 4.33 14.85 5.16 10.11 6.86 10.11 7.03 12.93 8.21 10.11 9.99 10.11 9.15 14.85 8.17 14.85 8.79 11.31 8.75 11.31 7.28 14.85 6.17 14.85 6.17 14.71 6.14 14.31 6.11 13.75 6.07 13.11 6.04 12.46 6 11.9 5.98 11.48 5.97 11.31 5.96 11.31 5.94 11.31 5.92 11.31 5.92 11.31 5.32 14.85 5.32 14.85 5.32 14.85"/><polyline class="cls-4" points="5.32 14.85 4.33 14.85 5.16 10.11 6.86 10.11 7.03 12.93 8.21 10.11 9.99 10.11 9.15 14.85 8.17 14.85 8.79 11.31 8.75 11.31 7.28 14.85 6.17 14.85 6.17 14.85 6.17 14.71 6.14 14.31 6.11 13.75 6.07 13.11 6.04 12.46 6 11.9 5.98 11.48 5.97 11.31 5.97 11.31 5.96 11.31 5.94 11.31 5.92 11.31 5.92 11.31 5.32 14.85"/><polygon class="cls-3" points="30.85 14.05 30.7 14.85 29.79 14.85 29.8 14.71 29.8 14.58 29.8 14.48 29.81 14.44 29.76 14.49 29.71 14.54 29.64 14.59 29.57 14.64 29.5 14.69 29.41 14.73 29.32 14.78 29.23 14.81 29.13 14.84 29.03 14.87 28.93 14.89 28.83 14.9 28.72 14.91 28.62 14.92 28.52 14.9 28.43 14.89 28.3 14.86 28.18 14.82 28.08 14.78 27.99 14.72 27.91 14.66 27.84 14.6 27.78 14.53 27.73 14.46 27.69 14.38 27.65 14.3 27.63 14.22 27.61 14.14 27.59 14.06 27.58 13.98 27.57 13.9 27.57 13.82 27.58 13.68 27.6 13.54 27.64 13.42 27.68 13.29 27.74 13.18 27.81 13.07 27.88 12.97 27.96 12.88 28.06 12.8 28.16 12.72 28.26 12.65 28.37 12.6 28.48 12.55 28.6 12.51 28.72 12.47 28.85 12.45 28.85 12.45 28.87 12.45 28.9 12.45 28.93 12.44 28.98 12.43 29.03 12.43 29.09 12.42 29.14 12.42 29.2 12.41 29.27 12.4 29.33 12.4 29.39 12.39 29.45 12.39 29.5 12.38 29.55 12.38 29.59 12.38 29.68 12.38 29.76 12.38 29.85 12.39 29.93 12.39 30 12.39 30.05 12.39 30.09 12.4 30.1 12.4 30.11 12.37 30.12 12.31 30.13 12.23 30.14 12.16 30.12 12.08 30.09 12.01 30.05 11.95 29.99 11.89 29.93 11.85 29.85 11.81 29.77 11.79 29.68 11.78 29.58 11.78 29.48 11.78 29.36 11.78 29.25 11.78 29.13 11.79 29.01 11.8 28.9 11.81 28.79 11.82 28.68 11.84 28.57 11.86 28.48 11.87 28.39 11.89 28.31 11.91 28.25 11.94 28.2 11.96 28.16 11.98 28.41 11.11 28.49 11.08 28.57 11.05 28.66 11.03 28.74 11.01 28.83 10.99 28.92 10.97 29.02 10.96 29.11 10.95 29.21 10.95 29.32 10.94 29.42 10.94 29.54 10.94 29.65 10.94 29.76 10.94 29.89 10.94 30.01 10.95 30.11 10.95 30.22 10.97 30.33 11 30.45 11.03 30.56 11.07 30.67 11.12 30.78 11.18 30.88 11.25 30.97 11.33 31.05 11.42 31.13 11.52 31.18 11.63 31.22 11.74 31.25 11.86 31.25 12 31.23 12.14 30.85 14.05 30.85 14.05 30.85 14.05"/><polygon class="cls-3" points="30.7 14.88 30.72 14.86 30.87 14.06 30.83 14.05 30.68 14.85 30.7 14.83 30.7 14.88 30.72 14.88 30.72 14.86 30.7 14.88 30.7 14.88 30.7 14.88"/><polygon class="cls-3" points="29.77 14.85 29.79 14.88 30.7 14.88 30.7 14.83 29.79 14.83 29.82 14.85 29.77 14.85 29.77 14.88 29.79 14.88 29.77 14.85 29.77 14.85 29.77 14.85"/><polygon class="cls-3" points="29.83 14.45 29.8 14.42 29.78 14.48 29.78 14.58 29.78 14.71 29.77 14.85 29.82 14.85 29.82 14.71 29.83 14.58 29.82 14.48 29.82 14.45 29.79 14.42 29.83 14.45 29.83 14.45 29.83 14.45"/><polygon class="cls-3" points="28.42 14.91 28.42 14.91 28.52 14.93 28.62 14.94 28.72 14.93 28.83 14.93 28.93 14.91 29.03 14.89 29.14 14.87 29.24 14.84 29.33 14.8 29.42 14.76 29.51 14.71 29.58 14.66 29.66 14.61 29.72 14.56 29.78 14.5 29.83 14.45 29.79 14.42 29.75 14.47 29.7 14.53 29.63 14.58 29.56 14.63 29.49 14.67 29.4 14.71 29.31 14.76 29.22 14.79 29.13 14.82 29.03 14.85 28.93 14.87 28.83 14.88 28.72 14.89 28.62 14.89 28.52 14.88 28.43 14.87 28.43 14.87 28.42 14.91 28.42 14.91 28.42 14.91"/><polygon class="cls-3" points="27.55 13.82 27.55 13.82 27.55 13.9 27.56 13.98 27.57 14.06 27.59 14.15 27.6 14.23 27.63 14.31 27.66 14.39 27.71 14.47 27.76 14.54 27.82 14.61 27.89 14.68 27.98 14.74 28.07 14.8 28.17 14.84 28.29 14.88 28.42 14.91 28.43 14.87 28.3 14.84 28.19 14.8 28.09 14.75 28 14.7 27.92 14.64 27.86 14.58 27.8 14.52 27.75 14.45 27.71 14.37 27.68 14.29 27.65 14.22 27.63 14.14 27.61 14.06 27.6 13.98 27.6 13.9 27.6 13.82 27.6 13.82 27.55 13.82 27.55 13.82 27.55 13.82"/><polygon class="cls-3" points="28.85 12.43 28.85 12.43 28.72 12.45 28.6 12.48 28.48 12.52 28.36 12.57 28.25 12.63 28.14 12.71 28.04 12.78 27.95 12.87 27.86 12.96 27.79 13.06 27.72 13.17 27.66 13.29 27.61 13.41 27.58 13.54 27.56 13.68 27.55 13.82 27.6 13.82 27.6 13.68 27.63 13.55 27.66 13.42 27.7 13.3 27.76 13.19 27.82 13.09 27.9 12.99 27.98 12.9 28.07 12.82 28.17 12.74 28.27 12.68 28.38 12.62 28.49 12.57 28.61 12.53 28.73 12.49 28.85 12.47 28.85 12.47 28.85 12.43 28.85 12.43 28.85 12.43"/><polygon class="cls-3" points="29.59 12.36 29.59 12.36 29.55 12.36 29.5 12.36 29.45 12.37 29.39 12.37 29.33 12.38 29.27 12.38 29.2 12.39 29.14 12.39 29.09 12.4 29.03 12.41 28.98 12.41 28.93 12.42 28.9 12.42 28.87 12.43 28.85 12.43 28.85 12.43 28.85 12.47 28.85 12.47 28.88 12.47 28.9 12.47 28.93 12.46 28.98 12.46 29.03 12.45 29.09 12.45 29.14 12.44 29.2 12.43 29.27 12.42 29.33 12.42 29.39 12.41 29.45 12.41 29.5 12.4 29.55 12.4 29.59 12.4 29.59 12.4 29.59 12.36 29.59 12.36 29.59 12.36"/><polygon class="cls-3" points="30.08 12.39 30.1 12.38 30.09 12.38 30.05 12.37 30 12.37 29.93 12.36 29.85 12.36 29.76 12.36 29.68 12.36 29.59 12.36 29.59 12.4 29.68 12.4 29.76 12.4 29.85 12.41 29.93 12.41 30 12.41 30.05 12.42 30.09 12.42 30.1 12.42 30.12 12.4 30.1 12.42 30.12 12.42 30.12 12.4 30.08 12.39 30.08 12.39 30.08 12.39"/><polygon class="cls-3" points="30.11 12.16 30.11 12.16 30.11 12.23 30.1 12.3 30.09 12.37 30.08 12.39 30.12 12.4 30.13 12.38 30.14 12.31 30.15 12.23 30.16 12.16 30.16 12.16 30.11 12.16 30.11 12.16 30.11 12.16"/><polygon class="cls-3" points="29.68 11.8 29.68 11.81 29.77 11.81 29.84 11.83 29.92 11.87 29.98 11.91 30.03 11.96 30.07 12.02 30.1 12.09 30.11 12.16 30.16 12.16 30.14 12.08 30.11 12 30.06 11.93 30.01 11.87 29.94 11.82 29.86 11.79 29.77 11.77 29.68 11.76 29.68 11.76 29.68 11.8 29.68 11.8 29.68 11.8"/><polygon class="cls-3" points="28.14 11.98 28.17 12 28.21 11.98 28.25 11.96 28.32 11.94 28.39 11.91 28.48 11.9 28.57 11.88 28.68 11.86 28.79 11.85 28.9 11.83 29.01 11.82 29.13 11.81 29.25 11.8 29.36 11.8 29.48 11.8 29.58 11.8 29.68 11.8 29.68 11.76 29.58 11.76 29.48 11.75 29.36 11.75 29.25 11.76 29.13 11.77 29.01 11.78 28.9 11.79 28.79 11.8 28.67 11.82 28.57 11.83 28.47 11.85 28.39 11.87 28.31 11.89 28.24 11.91 28.18 11.94 28.14 11.96 28.18 11.99 28.14 11.98 28.14 11.98 28.14 11.98"/><polygon class="cls-3" points="28.4 11.09 28.39 11.11 28.14 11.98 28.18 11.99 28.43 11.12 28.42 11.13 28.4 11.09 28.39 11.09 28.39 11.11 28.4 11.09 28.4 11.09 28.4 11.09"/><polygon class="cls-3" points="30.01 10.92 30.01 10.92 29.89 10.92 29.76 10.91 29.65 10.91 29.54 10.91 29.42 10.91 29.32 10.92 29.21 10.92 29.11 10.93 29.02 10.94 28.92 10.95 28.83 10.97 28.74 10.98 28.65 11 28.57 11.03 28.48 11.06 28.4 11.09 28.42 11.13 28.5 11.1 28.58 11.07 28.66 11.05 28.75 11.03 28.84 11.01 28.93 11 29.02 10.98 29.11 10.97 29.21 10.97 29.32 10.96 29.42 10.96 29.54 10.96 29.65 10.96 29.76 10.96 29.89 10.97 30.01 10.97 30.01 10.97 30.01 10.92 30.01 10.92 30.01 10.92"/><polygon class="cls-3" points="31.25 12.15 31.25 12.15 31.27 12 31.27 11.86 31.24 11.74 31.2 11.62 31.14 11.51 31.07 11.4 30.98 11.31 30.89 11.23 30.79 11.17 30.68 11.1 30.57 11.05 30.45 11.01 30.34 10.97 30.22 10.95 30.11 10.93 30.01 10.92 30.01 10.97 30.11 10.97 30.22 10.99 30.33 11.02 30.44 11.05 30.55 11.09 30.66 11.14 30.77 11.2 30.87 11.27 30.96 11.35 31.04 11.43 31.11 11.53 31.16 11.63 31.2 11.74 31.22 11.86 31.22 12 31.2 12.14 31.2 12.14 31.25 12.15 31.25 12.15 31.25 12.15"/><polygon class="cls-3" points="30.87 14.06 30.87 14.06 31.25 12.15 31.2 12.14 30.83 14.05 30.83 14.05 30.87 14.06 30.87 14.06 30.87 14.06"/><polygon class="cls-1" points="29.97 13.11 29.97 13.09 29.95 13.07 29.93 13.06 29.89 13.05 29.85 13.04 29.8 13.04 29.75 13.04 29.7 13.04 29.64 13.05 29.58 13.06 29.52 13.07 29.47 13.07 29.41 13.08 29.37 13.09 29.32 13.1 29.28 13.11 29.26 13.11 29.23 13.12 29.19 13.13 29.15 13.15 29.11 13.17 29.06 13.19 29.01 13.22 28.97 13.25 28.92 13.28 28.87 13.32 28.83 13.36 28.79 13.41 28.76 13.46 28.73 13.51 28.71 13.57 28.7 13.63 28.7 13.76 28.72 13.85 28.75 13.93 28.79 13.98 28.84 14.02 28.9 14.04 28.97 14.05 29.03 14.05 29.14 14.05 29.24 14.04 29.33 14.02 29.41 13.99 29.49 13.97 29.56 13.93 29.63 13.9 29.68 13.85 29.73 13.81 29.78 13.77 29.82 13.72 29.85 13.68 29.88 13.63 29.89 13.59 29.91 13.55 29.92 13.51 29.93 13.41 29.95 13.3 29.97 13.2 29.97 13.11 29.97 13.11 29.97 13.11"/><polygon class="cls-3" points="31.12 14.85 32.14 14.85 32.14 14.85 32.5 12.8 32.52 12.72 32.54 12.64 32.56 12.56 32.59 12.48 32.63 12.4 32.67 12.33 32.72 12.25 32.77 12.19 32.84 12.12 32.91 12.07 32.99 12.01 33.09 11.97 33.19 11.93 33.31 11.9 33.43 11.88 33.58 11.87 33.63 11.87 33.66 11.87 33.67 11.87 33.67 11.87 33.83 10.95 33.73 10.95 33.63 10.96 33.54 10.98 33.45 11.01 33.37 11.04 33.3 11.07 33.23 11.11 33.16 11.15 33.09 11.21 33.03 11.26 32.97 11.31 32.91 11.37 32.86 11.43 32.81 11.5 32.75 11.57 32.7 11.64 32.81 10.98 31.79 10.98 31.12 14.85 31.12 14.85 31.12 14.85 31.12 14.85"/><polyline class="cls-4" points="31.12 14.85 32.14 14.85 32.14 14.85 32.5 12.8 32.5 12.8 32.52 12.72 32.54 12.64 32.56 12.56 32.59 12.48 32.63 12.4 32.67 12.33 32.72 12.25 32.77 12.19 32.84 12.12 32.91 12.07 32.99 12.01 33.09 11.97 33.19 11.93 33.31 11.9 33.43 11.88 33.58 11.87 33.58 11.87 33.63 11.87 33.66 11.87 33.67 11.87 33.67 11.87 33.83 10.95 33.83 10.95 33.73 10.95 33.63 10.96 33.54 10.98 33.45 11.01 33.37 11.04 33.3 11.07 33.23 11.11 33.16 11.15 33.09 11.21 33.03 11.26 32.97 11.31 32.91 11.37 32.86 11.43 32.81 11.5 32.75 11.57 32.7 11.64 32.81 10.98 31.79 10.98 31.12 14.85 31.12 14.85"/><polygon class="cls-3" points="21.55 14.85 22.57 14.85 22.59 14.85 22.94 12.8 22.95 12.72 22.97 12.64 22.99 12.57 23.01 12.49 23.04 12.42 23.08 12.36 23.12 12.29 23.17 12.23 23.23 12.17 23.29 12.12 23.37 12.08 23.46 12.04 23.56 12 23.67 11.97 23.8 11.96 23.94 11.95 23.95 11.95 23.96 11.95 23.98 11.95 24 11.95 24.02 11.96 24.03 11.96 24.04 11.96 24.05 11.96 24.05 11.95 24.06 11.91 24.07 11.84 24.09 11.76 24.12 11.67 24.14 11.57 24.18 11.47 24.21 11.37 24.24 11.3 24.27 11.23 24.31 11.16 24.34 11.1 24.38 11.04 24.4 11 24.42 10.97 24.43 10.96 24.42 10.96 24.41 10.96 24.39 10.96 24.37 10.95 24.34 10.95 24.31 10.95 24.29 10.95 24.26 10.95 24.15 10.95 24.05 10.96 23.95 10.98 23.87 11 23.79 11.03 23.71 11.07 23.64 11.11 23.57 11.15 23.51 11.2 23.46 11.25 23.4 11.3 23.35 11.37 23.29 11.43 23.24 11.49 23.19 11.57 23.14 11.64 23.27 10.98 22.23 10.98 21.55 14.85 21.55 14.85 21.55 14.85 21.55 14.85"/><polyline class="cls-4" points="21.55 14.85 22.57 14.85 22.59 14.85 22.94 12.8 22.94 12.8 22.95 12.72 22.97 12.64 22.99 12.57 23.01 12.49 23.04 12.42 23.08 12.36 23.12 12.29 23.17 12.23 23.23 12.17 23.29 12.12 23.37 12.08 23.46 12.04 23.56 12 23.67 11.97 23.8 11.96 23.94 11.95 23.94 11.95 23.95 11.95 23.96 11.95 23.98 11.95 24 11.95 24.02 11.96 24.03 11.96 24.04 11.96 24.05 11.96 24.05 11.96 24.05 11.95 24.06 11.91 24.07 11.84 24.09 11.76 24.12 11.67 24.14 11.57 24.18 11.47 24.21 11.37 24.21 11.37 24.24 11.3 24.27 11.23 24.31 11.16 24.34 11.1 24.38 11.04 24.4 11 24.42 10.97 24.43 10.96 24.43 10.96 24.42 10.96 24.41 10.96 24.39 10.96 24.37 10.95 24.34 10.95 24.31 10.95 24.29 10.95 24.26 10.95 24.26 10.95 24.15 10.95 24.05 10.96 23.95 10.98 23.87 11 23.79 11.03 23.71 11.07 23.64 11.11 23.57 11.15 23.51 11.2 23.46 11.25 23.4 11.3 23.35 11.37 23.29 11.43 23.24 11.49 23.19 11.57 23.14 11.64 23.27 10.98 22.23 10.98 21.55 14.85 21.55 14.85"/></svg>