<svg id="圖層_1" data-name="圖層 1" xmlns="http://www.w3.org/2000/svg" viewBox="0 0 45 30"><defs><style>.cls-1{fill:#cf0a2c;}.cls-2{fill:#002856;}.cls-3{fill:#007078;}.cls-4,.cls-5{fill:#fff;}.cls-4{fill-rule:evenodd;}</style></defs><title>a</title><path class="cls-1" d="M9.78,2.08H20.32a2.05,2.05,0,0,1,2,2.68L17.45,25.83a3.58,3.58,0,0,1-3.29,2.67H3.62a2.05,2.05,0,0,1-2-2.67L6.49,4.75A3.57,3.57,0,0,1,9.78,2.08Z"/><path class="cls-2" d="M19.44,2.08H31.57c1.47,0,.81,1.2.46,2.68L27.12,25.83c-0.34,1.47-.24,2.67-1.71,2.67H13.28a2,2,0,0,1-2-2.67L16.15,4.75A3.58,3.58,0,0,1,19.44,2.08Z"/><path class="cls-3" d="M31.09,2.08H41.63a2.05,2.05,0,0,1,2,2.68L38.76,25.83a3.58,3.58,0,0,1-3.29,2.67H24.93a2.05,2.05,0,0,1-2-2.67L27.8,4.75A3.57,3.57,0,0,1,31.09,2.08Z"/><path class="cls-4" d="M29.33,21.9h1l0.29-1h-1Zm0.79-2.64-0.34,1.13a5.06,5.06,0,0,1,.58-0.25c0.2,0,.52-0.09.52-0.09l0.24-.79h-1m0.49-1.63-0.33,1.09a5.54,5.54,0,0,1,.57-0.22,3.22,3.22,0,0,1,.51-0.07l0.24-.79h-1m2.2,0-1.29,4.25h0.35l-0.27.88H31.26L31.18,23H30L30,22.77H27.56L27.81,22h0.25l1.3-4.32,0.26-.87h1.25l-0.13.44a2.33,2.33,0,0,1,.65-0.32c0.31-.08,2.12-0.11,2.12-0.11l-0.27.87H32.81"/><path class="cls-5" d="M33.36,16.77H34.7v0.5c0,0.08.06,0.12,0.22,0.12H35.2L35,18.21H34.23c-0.62,0-.86-0.22-0.84-0.52Z"/><path class="cls-5" d="M33.54,20.66H32.27l0.22-.73h1.45l0.21-.67H32.71L33,18.44h4l-0.25.82H35.36l-0.21.67h1.34l-0.22.73H34.82L34.56,21h0.59l0.14,0.92a0.48,0.48,0,0,0,0,.19,0.75,0.75,0,0,0,.31,0h0.18L35.56,23H34.78a0.86,0.86,0,0,1-.32-0.14,0.43,0.43,0,0,1-.24-0.31l-0.14-.92-0.66.9a1.12,1.12,0,0,1-1,.5H31.53l0.24-.8h0.35a0.57,0.57,0,0,0,.26-0.07A0.4,0.4,0,0,0,32.58,22Z"/><path class="cls-5" d="M19.64,18.66H23l-0.25.8H21.41l-0.21.68h1.38L22.32,21H20.95l-0.33,1.11c0,0.12.33,0.14,0.46,0.14l0.69-.09L21.49,23H19.94a1.48,1.48,0,0,1-.35,0,0.37,0.37,0,0,1-.25-0.18,0.35,0.35,0,0,1-.08-0.36L19.7,21H18.94l0.25-.84H20l0.2-.68H19.4Z"/><path class="cls-5" d="M21.9,17.22h1.38L23,18.06H21.15l-0.2.18a0.68,0.68,0,0,1-.23.11,1.37,1.37,0,0,1-.62.16h-0.6l0.24-.81h0.18a0.67,0.67,0,0,0,.31,0,0.73,0.73,0,0,0,.2-0.26l0.35-.63h1.37Z"/><path class="cls-4" d="M24.55,18.6a2.16,2.16,0,0,1,1-.46c0.15,0,1.06,0,1.06,0l0.14-.46H24.83Zm1.82,0.35H24.44l-0.12.39H26a1.38,1.38,0,0,1,.25,0l0.12-.38m-2.49-2.18H25l-0.17.59a3.44,3.44,0,0,1,.63-0.4,6,6,0,0,1,.84-0.18h1.9L27.6,18.92a2.52,2.52,0,0,1-.32.72,0.83,0.83,0,0,1-.32.3,1.2,1.2,0,0,1-.44.15l-0.59,0H24.11l-0.51,1.7a0.43,0.43,0,0,0,0,.3,0.21,0.21,0,0,0,.17.09l0.81-.08L24.26,23h-0.9l-0.64,0A0.75,0.75,0,0,1,22.33,23a0.48,0.48,0,0,1-.21-0.27,3.39,3.39,0,0,1,.11-0.46l1.64-5.45"/><path class="cls-5" d="M27.3,20.25l-0.11.52a0.7,0.7,0,0,1-.21.39,0.84,0.84,0,0,1-.63.22l-0.65,0V22c0,0.16,0,.15.06,0.17a0.24,0.24,0,0,0,.09.05H26l0.62,0L26.41,23H25.7a2.29,2.29,0,0,1-1-.11,0.32,0.32,0,0,1-.13-0.34l0-2.28h1.14l0,0.47H26a0.38,0.38,0,0,0,.2,0,0.21,0.21,0,0,0,.08-0.12l0.11-.37h0.9Z"/><path class="cls-5" d="M11,8.81l-0.77,3.56a2.47,2.47,0,0,1-.66,1.48,1.18,1.18,0,0,1-.78.27A0.72,0.72,0,0,1,8,13.43V13.28l0.15-.92S8.91,9.28,9,8.88v0a11.31,11.31,0,0,1-1.78,0s0,0.22,0,.22L6.45,12.5l-0.07.29-0.13,1a1.42,1.42,0,0,0,.17.71,2.3,2.3,0,0,0,2,.72,3.79,3.79,0,0,0,1.91-.45,2.83,2.83,0,0,0,1.22-1.91l0.09-.34s0.79-3.19.93-3.61a0.14,0.14,0,0,1,0,0A11.36,11.36,0,0,1,11,8.81Z"/><path class="cls-5" d="M15.4,15.15c-0.53,0-.72,0-1.34,0l0,0c0.05-.24.11-0.47,0.16-0.71l0.08-.32c0.11-.5.23-1.08,0.24-1.26a0.27,0.27,0,0,0-.26-0.37,1,1,0,0,0-.4.13c-0.07.27-.22,1-0.3,1.36-0.15.72-.16,0.8-0.23,1.16l0,0c-0.55,0-.74,0-1.37,0l0-.05c0.1-.43.21-0.86,0.31-1.29a18.16,18.16,0,0,0,.4-2.19l0.05,0c0.61-.09.76-0.1,1.43-0.24l0.06,0.06L14,11.8l0.33-.19a2.09,2.09,0,0,1,.85-0.2,0.72,0.72,0,0,1,.74.42,2.49,2.49,0,0,1-.12,1.4l-0.09.37c-0.17.81-.2,1-0.29,1.51Z"/><path class="cls-5" d="M17.55,15.15H16.83l-0.69,0,0,0,0,0a4.56,4.56,0,0,1,.17-0.52,3.69,3.69,0,0,0,.15-0.53c0.09-.41.15-0.69,0.19-0.94s0.07-.45.1-0.68l0,0,0,0,0.73-.11,0.75-.13v0.06L18.07,13c-0.06.26-.12,0.51-0.18,0.76-0.12.53-.17,0.73-0.19,0.88s0,0.21-.08.48l0,0Z"/><path class="cls-5" d="M20.93,13.27a2.77,2.77,0,0,1-.31.87,0.51,0.51,0,0,1-.4.26A0.32,0.32,0,0,1,19.91,14,2.65,2.65,0,0,1,20,13.4c0.14-.62.3-1.14,0.72-1.14S21.07,12.65,20.93,13.27Zm1.39,0.06a1.58,1.58,0,0,0-.14-1.43,1.56,1.56,0,0,0-1.27-.47,2.33,2.33,0,0,0-1.6.55,2.62,2.62,0,0,0-.71,1.38,1.35,1.35,0,0,0,.58,1.73,2.42,2.42,0,0,0,.86.14,2.25,2.25,0,0,0,1.69-.66,3,3,0,0,0,.58-1.24"/><path class="cls-5" d="M35.28,15.21c-0.64,0-.82,0-1.42,0l0,0c0.16-.61.32-1.21,0.46-1.83a13.3,13.3,0,0,0,.29-1.6l0,0c0.64-.09.81-0.12,1.47-0.24l0,0.06L35.76,13c-0.24,1.05-.33,1.59-0.42,2.14Z"/><path class="cls-5" d="M34.32,13.34a3,3,0,0,1-.32.86,0.73,0.73,0,0,1-.51.25,0.32,0.32,0,0,1-.31-0.38,2.63,2.63,0,0,1,.09-0.6c0.14-.61.3-1.12,0.73-1.12S34.46,12.72,34.32,13.34Zm1.26,0.06c0.19-.81-0.56-0.07-0.68-0.34-0.18-.42-0.07-1.26-0.81-1.55a1.77,1.77,0,0,0-1.52.55,2.58,2.58,0,0,0-.7,1.37,1.32,1.32,0,0,0,.57,1.71,1.61,1.61,0,0,0,.74.13c0.83,0,1.46-1.29,1.92-1.79s0.42,0.15.48-.09"/><path class="cls-5" d="M25.94,15.15c-0.53,0-.71,0-1.34,0l0,0c0.05-.24.11-0.47,0.17-0.71l0.07-.32a12.14,12.14,0,0,0,.24-1.26,0.27,0.27,0,0,0-.25-0.37,1,1,0,0,0-.4.13c-0.07.27-.23,1-0.3,1.36-0.15.72-.16,0.8-0.23,1.16l0,0c-0.55,0-.73,0-1.36,0l0-.05c0.1-.43.21-0.86,0.31-1.29a18.79,18.79,0,0,0,.4-2.19l0,0c0.61-.09.76-0.1,1.43-0.24l0.05,0.06-0.1.37,0.33-.19a2.08,2.08,0,0,1,.85-0.2,0.73,0.73,0,0,1,.74.42,2.52,2.52,0,0,1-.13,1.4l-0.08.37c-0.17.81-.2,1-0.29,1.51Z"/><path class="cls-5" d="M30.53,8.8H30.09c-1.15,0-1.61,0-1.79,0l0,0.23-0.41,1.91-1,4.24c1,0,1.41,0,1.58,0l0.27-1.32s0.2-.83.21-0.86A0.49,0.49,0,0,1,29,12.87h0.09a4.25,4.25,0,0,0,2.6-.56,2.77,2.77,0,0,0,1-1.65,2.49,2.49,0,0,0,.07-0.57,1.2,1.2,0,0,0-.21-0.73C32.21,8.82,31.43,8.81,30.53,8.8Zm0.57,2a1.39,1.39,0,0,1-.72.95,2.27,2.27,0,0,1-1,.16H29.14l0-.1L29.59,9.9V9.73l0.17,0,0.92,0.08a0.75,0.75,0,0,1,.4,1"/><path class="cls-5" d="M40.52,11.46l-0.05-.06c-0.65.13-.77,0.15-1.37,0.23l0,0v0h0c-0.45,1-.43.81-0.8,1.62,0,0,0-.06,0-0.1l-0.09-1.76-0.06-.06c-0.69.13-.7,0.15-1.34,0.23l0,0a0.46,0.46,0,0,0,0,.07h0a8.83,8.83,0,0,1,.14,1c0,0.31.09,0.63,0.12,0.94,0.06,0.52.1,0.77,0.17,1.56-0.43.71-.53,1-0.94,1.59l0,0.06c0.62,0,.76,0,1.22,0l0.1-.11C37.88,16,40.52,11.46,40.52,11.46Z"/><path class="cls-5" d="M18.13,11.9c0.35-.24.4-0.58,0.1-0.75a1.21,1.21,0,0,0-1.18.12C16.7,11.5,16.66,11.84,17,12A1.2,1.2,0,0,0,18.13,11.9Z"/><path class="cls-5" d="M37.49,16.79L37,17.67a1,1,0,0,1-.95.53H35.21l0.24-.79h0.16a0.43,0.43,0,0,0,.19,0,0.22,0.22,0,0,0,.11-0.1l0.3-.48h1.28Z"/></svg>