<svg id="圖層_1" data-name="圖層 1" xmlns="http://www.w3.org/2000/svg" viewBox="0 0 42 24"><defs><style>.cls-1,.cls-3{fill:#0a518e;}.cls-2{fill:#fff;}.cls-2,.cls-3,.cls-4{fill-rule:evenodd;}.cls-4{fill:#eda51f;}</style></defs><title>a</title><polygon class="cls-1" points="41.2 24 0.71 24 0 24 0 23.39 0 0.61 0 0 0.71 0 41.2 0 41.92 0 41.92 0.61 41.92 23.39 41.92 24 41.2 24 41.2 24"/><polygon class="cls-2" points="41.03 23.04 1.16 23.04 1.16 1.14 41.03 1.14 41.03 23.04 41.03 23.04"/><polygon class="cls-3" points="15.83 15.7 18.09 8.33 20.1 8.33 17.84 15.7 15.83 15.7 15.83 15.7"/><path class="cls-3" d="M14.93,8.33l-1.81,3.13a7.54,7.54,0,0,0-.86,1.75h0c0-.66-0.06-1.46-0.07-1.92l-0.2-3H8.56l0,0.2a1.4,1.4,0,0,1,1.53,1.32l0.66,5.85h2.09L17,8.33h-2.1Z"/><path class="cls-3" d="M30.6,15.7l-0.06-1.1H28l-0.51,1.1H25.32l4-7.36H32l0.67,7.36h-2Zm-0.23-4.35a16.83,16.83,0,0,1,0-1.73h0c-0.12.37-.65,1.47-0.88,2L28.7,13.24h1.77l-0.1-1.89h0Z"/><path class="cls-3" d="M22.22,15.91a5.67,5.67,0,0,1-3-.85l1-1.45a3.75,3.75,0,0,0,2.17.72,0.94,0.94,0,0,0,.88-0.42c0.28-.48-0.06-0.74-0.85-1.18L22,12.49c-1.17-.79-1.67-1.54-1.12-2.85a2.79,2.79,0,0,1,2.81-1.47,4.54,4.54,0,0,1,2.62.89l-1.1,1.28a2.46,2.46,0,0,0-1.56-.68,0.94,0.94,0,0,0-.86.38c-0.21.41,0.07,0.69,0.68,1.07l0.46,0.29c1.42,0.89,1.75,1.81,1.4,2.68a2.92,2.92,0,0,1-3.06,1.83h0Z"/><polygon class="cls-4" points="40 17.99 2.29 17.99 2.29 22.36 40 22.36 40 17.99 40 17.99"/><polygon class="cls-3" points="40.17 1.7 2.12 1.7 2.12 6.07 40.17 6.07 40.17 1.7 40.17 1.7"/></svg>