<?xml version="1.0" encoding="utf-8"?>
<!-- Generator: Adobe Illustrator 19.2.1, SVG Export Plug-In . SVG Version: 6.00 Build 0)  -->
<svg version="1.1" id="圖層_1" xmlns="http://www.w3.org/2000/svg" xmlns:xlink="http://www.w3.org/1999/xlink" x="0px" y="0px"
	 viewBox="0 0 464 302" style="enable-background:new 0 0 464 302;" xml:space="preserve">
<style type="text/css">
	.st0{fill:#FFFFFF;stroke:#CCCCCC;stroke-width:2;stroke-linecap:round;stroke-linejoin:round;}
	.st1{fill:#040000;}
	.st2{fill:#A69F20;}
	.st3{fill:#6D6D6F;}
	.st4{fill:#FFFFFF;}
	.st5{fill:#0E64A0;}
	.st6{fill:#221714;}
	.st7{fill:none;stroke:#CCCCCC;stroke-width:2;stroke-linecap:round;stroke-linejoin:round;}
	.st8{fill:#4D92C0;stroke:#FFFFFF;stroke-width:16;stroke-linecap:round;stroke-linejoin:round;}
</style>
<title>15day</title>
<rect x="1" y="1" class="st0" width="462" height="300"/>
<path class="st1" d="M379.5,160v-6.8H400v5.3c-2.1,2.7-3.8,5.6-5.1,8.6c-1.8,3.8-3.1,7.9-4,12c-0.9,3.8-1.4,7.7-1.4,11.6h-5.8
	c0.2-5.5,1.1-10.9,2.7-16.2c1.6-5.2,3.8-10.1,6.7-14.6H379.5z"/>
<path class="st1" d="M411.2,152.6c3,0,5.5,1.4,7.3,4.3c1.9,2.9,2.8,7.9,2.8,15.1c0,7.2-0.9,12.2-2.8,15.1c-1.9,2.9-4.3,4.3-7.3,4.3
	c-3,0-5.8-1.6-7.3-4.3c-1.9-2.9-2.8-7.9-2.8-15.2c0-7.1,0.9-12.1,2.8-15S408.2,152.7,411.2,152.6z M411.2,158.6
	c-1.2,0-2.1,0.8-2.8,2.3c-0.7,1.6-1.1,5.2-1,11c0,5.8,0.4,9.5,1,11c0.7,1.5,1.6,2.3,2.8,2.3c1.2,0,2.1-0.8,2.8-2.3
	c0.7-1.6,1-5.2,1-11c0-5.8-0.3-9.5-1-11C413.4,159.4,412.4,158.7,411.2,158.6L411.2,158.6z"/>
<path class="st1" d="M432.8,152.6c3,0,5.5,1.4,7.3,4.3c1.9,2.9,2.8,7.9,2.8,15.1c0,7.2-0.9,12.2-2.8,15.1c-1.9,2.9-4.3,4.3-7.3,4.3
	c-3,0-5.8-1.6-7.3-4.3c-1.9-2.9-2.8-7.9-2.8-15.2c0-7.1,0.9-12.1,2.8-15C427.3,154.1,429.8,152.7,432.8,152.6z M432.8,158.6
	c-1.2,0-2.1,0.8-2.8,2.3c-0.7,1.6-1.1,5.2-1,11c0,5.8,0.3,9.5,1,11c0.7,1.5,1.6,2.3,2.8,2.3c1.2,0,2.1-0.8,2.8-2.3
	c0.7-1.6,1-5.2,1-11c0-5.8-0.3-9.5-1-11C435,159.4,434,158.7,432.8,158.6L432.8,158.6z"/>
<path class="st1" d="M337.3,186.7v-17.9h2.8l5.9,12v-12h2.7v17.9h-2.9l-5.8-11.7v11.7H337.3L337.3,186.7z"/>
<path class="st1" d="M354.4,186.7v-14.9h-4.2v-3h11.4v3h-4.2v14.9H354.4z"/>
<path class="st1" d="M366.2,184.1V179c-1.1-0.4-2.1-1.1-2.8-2.1c-0.6-1-0.9-2.2-0.9-3.4c0-1.2,0.3-2.4,1-3.4
	c0.6-0.9,1.6-1.5,2.7-1.6v-1.2h1.4v1.2c1,0.1,1.8,0.6,2.5,1.3c0.7,0.8,1.1,1.9,1.2,2.9l-2.5,0.4c0-0.8-0.5-1.6-1.2-2v4.8
	c1.3,0.3,2.4,1,3.2,2.1c0.6,1,0.9,2.1,0.9,3.2c0,1.3-0.3,2.6-1.1,3.7c-0.7,1-1.8,1.7-3,1.9v2.3h-1.4V187c-1.1-0.1-2.1-0.7-2.7-1.6
	c-0.8-1.1-1.3-2.4-1.4-3.7l2.5-0.3c0.1,0.6,0.3,1.2,0.6,1.7C365.4,183.5,365.8,183.8,366.2,184.1z M366.2,171.3
	c-0.4,0.2-0.7,0.5-0.9,0.8c-0.2,0.4-0.3,0.8-0.3,1.3c0,0.4,0.1,0.8,0.3,1.2c0.2,0.4,0.6,0.7,1,0.9V171.3L366.2,171.3z M367.6,184.3
	c0.5-0.1,0.9-0.4,1.2-0.9c0.3-0.5,0.5-1,0.5-1.6c0-0.5-0.1-1-0.4-1.4c-0.3-0.4-0.8-0.8-1.3-0.9L367.6,184.3L367.6,184.3z"/>
<path class="st2" d="M279.6,242.5h10.8v2.1h-10.8V242.5z M277.9,249.2h13.5v2h-4.2v9.5c0.1,0.8-0.3,1.6-1,2.1
	c-0.5,0.4-1.9,0.7-4.1,0.7l-1-2.4h2.4c0.8,0,1.3-0.2,1.3-0.7v-9.1h-6.8V249.2z M275.2,241.2l2,0.7c0.2,0,0.3,0.1,0.4,0.3
	c0,0.1-0.1,0.2-0.2,0.3c-0.6,0.3-1.1,0.8-1.5,1.3c-1.4,1.4-2.9,2.6-4.6,3.6l-2.1-1.2C271.5,244.9,273.6,243.2,275.2,241.2
	L275.2,241.2z M276.5,245.8l2,0.7c0.2,0,0.3,0.1,0.4,0.3c0,0.1-0.1,0.2-0.2,0.3c-0.8,0.5-1.5,1.3-2,2.1c-0.4,0.6-0.9,1.1-1.3,1.6
	v12.5H273v-10.1c-0.7,0.6-1.4,1.2-2.1,1.9l-2.1-1.2C271.9,251.7,274.5,249,276.5,245.8L276.5,245.8z"/>
<path class="st2" d="M304.8,253.8v-1.3h-2.6v1.3H304.8z M302.1,249.8v1.2h2.6v-1.3L302.1,249.8L302.1,249.8z M300.1,253.8v-1.3h-2.7
	v1.3H300.1z M297.4,251h2.7v-1.3h-2.7V251L297.4,251z M305.9,242.9c-0.3,0-0.7,0.1-1,0.2c-0.9,0.2-1.8,0.4-2.6,0.5v1.4h5.1v1.9h-5.1
	v1.1h4.6v7.5h-4.7v1.3h4.5v1.8h-4.5v1.4c1.6-0.1,3.2-0.3,4.8-0.5v1.1c0.6-0.9,1.1-1.9,1.5-3c0.5-1.7,0.9-3.4,1.1-5.1
	c0.1-1.1,0.2-2.7,0.3-4.9h-2v-2h2c0-1.4,0-2.9,0-4.6l2,0.1c0.4,0,0.5,0.1,0.5,0.2c-0.1,0.2-0.2,0.4-0.4,0.5c0,1.4,0,2.6,0,3.8h4.4
	c0.1,4.3,0,8.6-0.4,12.9c0,1.3-0.4,2.5-1.1,3.6c-0.9,0.8-2,1.1-3.2,1l-1.1-2.2c1.5,0,2.4-0.2,2.7-0.6c0.4-0.7,0.6-1.5,0.6-2.3
	c0.3-3.5,0.5-6.9,0.4-10.4h-2.3c0,2-0.2,4-0.5,6c-0.2,1.7-0.6,3.4-1.1,5.1c-0.5,1.6-1.2,3.1-2.2,4.5l-2.1-1.3l0.4-0.5
	c-2.4,0.3-6,0.7-10.7,1.3c-0.1,0.2-0.3,0.3-0.5,0.4c-0.2,0-0.3-0.2-0.3-0.3c0,0,0,0,0,0l-0.5-2.2c1.9-0.1,3.8-0.2,5.6-0.4v-1.6h-4.7
	v-1.8h4.7v-1.3h-4.7V248h4.7v-1.2h-5.4V245h5.4v-1.2c-1.3,0.1-2.8,0.1-4.3,0.1l-0.9-1.8h2.7c2.6,0,5.2-0.4,7.7-1.2l1.6,1.6
	c0.1,0.1,0.2,0.2,0.1,0.4c0,0.1,0,0.2-0.1,0.2c-0.2,0-0.4-0.1-0.5-0.2C306.2,242.9,306,242.9,305.9,242.9L305.9,242.9z"/>
<path class="st2" d="M329,240.9l2.2,0.2c0.4,0,0.6,0.1,0.6,0.3c-0.1,0.3-0.3,0.5-0.5,0.7v5.9h8.7v2.1h-8.7v9.7h10.7v2.3h-21.7v-2.2
	h8.6L329,240.9L329,240.9z"/>
<path class="st2" d="M361.8,252h3.7v-2.5h-3.7V252z M356.5,252h3.4v-2.5h-3.4V252z M356.5,247.7h1.8c-0.4-1-0.8-1.9-1.3-2.8l1.8-0.4
	c0.6,1,1.1,2.1,1.5,3.2h1.5l1.2-3.2l1.5,0.3c0.3,0,0.4,0.1,0.4,0.3c0,0.2-0.2,0.5-0.4,0.6l-0.9,2h1.9v-4h-9L356.5,247.7L356.5,247.7
	z M349.8,240.9l1.6,0.8c0.2,0,0.3,0.2,0.4,0.3c0,0.2-0.2,0.4-0.4,0.5l-2.4,3.2c0.5,0.3,0.9,0.7,1.4,1l1.6-2.4l1.6,1
	c0.1,0.1,0.2,0.2,0.2,0.4c0,0.1-0.2,0.2-0.5,0.3l-3.9,5.4c0.9-0.1,1.8-0.1,2.6-0.2c-0.1-0.4-0.3-0.8-0.4-1.2l1.8-0.4
	c0.4,0.9,0.7,1.9,1,2.9v-10.7h13v19.2c0,0.9-0.6,1.7-1.5,1.8c-0.7,0.2-1.5,0.3-2.3,0.3l-0.8-1.9l1.8,0c0.4,0.1,0.7-0.2,0.8-0.6
	c0-0.1,0-0.1,0-0.2v-6.7h-5.4v2.7c0,0.2,0.2,0.3,0.5,0.3h4.3v1.7h-5.2c-1,0-1.5-0.4-1.5-1.1v-3.6h-1.6v9.4h-2v-2.5l-1.8,0.3
	c-0.3-1.7-0.7-3.4-1.1-5.1l1.9-0.4c0.3,1.2,0.6,2.3,0.9,3.4V254l-1.6,0.3c-0.1-0.4-0.2-0.9-0.3-1.3l-1.3,0.2v10h-2v-9.7l-2.4,0.3
	c-0.1,0.2-0.3,0.4-0.5,0.4c-0.1,0-0.2-0.1-0.2-0.4l-0.5-2l1.5-0.1l2.1-3.2c-1.3-1-2.5-1.9-3.6-2.7l1.2-1.6l0.7,0.4L349.8,240.9z
	 M346.7,255.5l1.9,0.5c0.1,0,0.3,0.1,0.3,0.2c0,0,0,0,0,0c0,0.2-0.2,0.4-0.4,0.6c-0.3,1.6-0.6,3.2-1.2,4.8l-1.9-0.7
	c0.3-0.7,0.6-1.4,0.7-2.1C346.4,257.7,346.6,256.6,346.7,255.5L346.7,255.5z"/>
<path class="st2" d="M381.8,247.9h4.8v-7l2.2,0.2c0.4,0,0.6,0.1,0.6,0.3c-0.1,0.2-0.3,0.4-0.5,0.6v5.9h4.7v2.1H389v13.2h-2.3v-13.2
	h-4.8V247.9z M374.1,260.1h4.8v-2.7h-4.8V260.1z M372.5,252h7.9v1.8h-7.9V252z M372.5,248.7h7.9v1.8h-7.9V248.7z M372.5,241.6h7.9
	v1.9h-7.9V241.6z M371.9,255.5h9.3v7.4h-2.2V262h-4.8v1.4h-2.2L371.9,255.5L371.9,255.5z M371.1,245.2h10.5v2h-10.5V245.2z"/>
<path class="st2" d="M401.8,258.5h12.7v-6.1h-12.7V258.5z M401.8,250.4h12.7v-6.1h-12.7V250.4z M399.5,242.1h17.3v20.6h-2.3v-2.1
	h-12.7v2.1h-2.3V242.1L399.5,242.1z"/>
<path class="st2" d="M441.3,240.8l2.3,0.3c0.2,0,0.3,0.1,0.4,0.3c-0.1,0.3-0.3,0.5-0.6,0.6v9.6c0.1,0.8-0.2,1.6-0.8,2.1
	c-0.5,0.5-1.6,0.7-3.4,0.7l-0.9-2.1h1.9c0.6,0,1-0.4,1-1c0,0,0,0,0-0.1L441.3,240.8L441.3,240.8z M436.5,242l2,0.2
	c0.4,0,0.5,0.1,0.5,0.3c-0.1,0.2-0.2,0.4-0.4,0.5v8.2h-2.1L436.5,242L436.5,242z M429.9,247.1v-3.3h-2.4v3.4L429.9,247.1
	L429.9,247.1z M424.6,255.7h7.8v-3.1l2,0.2c0.4,0,0.6,0.1,0.6,0.3c-0.1,0.2-0.2,0.4-0.4,0.6v2h7.7v2h-7.7v2.8h10v2h-22.2v-2h10v-2.7
	h-7.8L424.6,255.7L424.6,255.7z M423.3,241.8h10.9v2h-2.2v3.4h3.1v1.9h-3.1v4.9h-2v-4.9h-2.7c-0.1,0.6-0.3,1.1-0.5,1.7
	c-0.6,1.3-1.5,2.5-2.6,3.5l-2.1-1.1c1.1-0.7,1.9-1.7,2.5-2.9c0.2-0.4,0.4-0.8,0.5-1.2h-2.6v-1.9h3v-3.3h-2.1L423.3,241.8
	L423.3,241.8z"/>
<path class="st3" d="M295.9,54.1v-6.5l-4.5,6.5L295.9,54.1L295.9,54.1z M295.9,59.1v-3.4h-6.3v-1.6l6.6-9.3h1.5v9.3h2v1.6h-2v3.4
	L295.9,59.1L295.9,59.1z"/>
<path class="st3" d="M309.6,53.5v-1.7h6.2v5.3c-0.9,0.7-1.9,1.3-3,1.7c-1,0.4-2,0.6-3.1,0.6c-1.4,0-2.7-0.3-3.9-0.9
	c-1.1-0.6-2.1-1.5-2.6-2.6c-0.6-1.2-0.9-2.5-0.9-3.8c0-1.4,0.3-2.7,0.9-3.9c0.5-1.1,1.4-2.1,2.6-2.7c1.2-0.6,2.5-0.9,3.8-0.9
	c1,0,1.9,0.2,2.9,0.5c0.8,0.3,1.5,0.8,2,1.4c0.5,0.7,0.9,1.5,1.1,2.3l-1.7,0.5c-0.2-0.6-0.4-1.2-0.8-1.7c-0.4-0.5-0.8-0.8-1.4-1
	c-0.6-0.3-1.3-0.4-2-0.4c-0.8,0-1.6,0.1-2.3,0.4c-0.6,0.2-1.1,0.6-1.5,1c-0.4,0.4-0.7,0.9-0.9,1.4c-0.4,0.9-0.6,1.9-0.6,2.9
	c0,1.1,0.2,2.2,0.7,3.2c0.4,0.8,1.1,1.5,2,1.9c0.8,0.4,1.8,0.6,2.7,0.6c0.8,0,1.7-0.2,2.4-0.5c0.7-0.2,1.3-0.6,1.8-1v-2.6H309.6z"/>
<path class="st3" d="M327.4,51.7h3.8c0.9,0.1,1.9-0.1,2.6-0.7c0.5-0.5,0.8-1.2,0.8-1.9c0-0.5-0.1-1.1-0.5-1.5
	c-0.3-0.4-0.7-0.7-1.2-0.8c-0.6-0.1-1.2-0.2-1.8-0.1h-3.7L327.4,51.7L327.4,51.7z M325.4,59.2V44.8h5.5c0.7,0,1.5,0,2.2,0.1
	c0.6,0.1,1.3,0.3,1.8,0.7c0.5,0.3,0.9,0.8,1.2,1.3c0.3,0.6,0.5,1.3,0.4,2c0,1.1-0.4,2.3-1.2,3.1c-0.8,0.8-2.2,1.3-4.3,1.3h-3.7v5.8
	L325.4,59.2L325.4,59.2z"/>
<path class="st3" d="M339.4,59.2V48.8h1.6v1.6c0.3-0.6,0.7-1.1,1.1-1.5c0.3-0.2,0.7-0.4,1.1-0.3c0.7,0,1.3,0.2,1.8,0.6l-0.6,1.6
	c-0.4-0.2-0.8-0.4-1.3-0.4c-0.4,0-0.7,0.1-1,0.3c-0.3,0.3-0.6,0.6-0.7,1c-0.2,0.6-0.3,1.3-0.3,2v5.4H339.4L339.4,59.2z"/>
<path class="st3" d="M348.1,53h5.9c0-0.7-0.2-1.4-0.7-2c-0.5-0.7-1.4-1-2.2-1c-0.8,0-1.5,0.3-2.1,0.8
	C348.5,51.4,348.1,52.2,348.1,53z M354,55.8l1.8,0.2c-0.2,1-0.8,1.9-1.6,2.5c-0.9,0.6-1.9,0.9-3,0.9c-1.4,0.1-2.7-0.4-3.7-1.4
	c-1-1.1-1.4-2.5-1.4-3.9c-0.1-1.5,0.4-2.9,1.4-4c0.9-1,2.2-1.5,3.5-1.4c1.3,0,2.6,0.5,3.5,1.4c1,1.1,1.4,2.5,1.3,4
	c0,0.1,0,0.3,0,0.5H348c0,1,0.4,1.9,1,2.6c0.6,0.6,1.4,0.9,2.2,0.9c0.6,0,1.2-0.2,1.7-0.5C353.4,57.1,353.8,56.5,354,55.8L354,55.8z
	"/>
<path class="st3" d="M360.3,54c-0.1,1.1,0.2,2.1,0.8,3c0.5,0.6,1.2,1,2,1c0.8,0,1.5-0.4,2-1c0.6-0.9,0.9-2,0.9-3.1
	c0.1-1.1-0.2-2.1-0.8-3c-0.5-0.6-1.2-1-2-1c-0.8,0-1.5,0.4-2,1C360.5,51.8,360.2,52.9,360.3,54z M358.7,63.1V48.8h1.6v1.3
	c0.3-0.5,0.8-0.9,1.3-1.2c0.5-0.3,1.1-0.4,1.8-0.4c1.7,0,3.3,1,3.9,2.6c0.3,0.9,0.5,1.8,0.5,2.7c0,1-0.2,2-0.6,2.9
	c-0.7,1.6-2.3,2.6-4,2.6c-0.6,0-1.1-0.1-1.6-0.4c-0.5-0.2-0.8-0.5-1.2-0.9v5L358.7,63.1L358.7,63.1z"/>
<path class="st3" d="M377.3,54c-0.9,0.3-1.9,0.5-2.9,0.7c-0.5,0.1-1.1,0.2-1.6,0.3c-0.3,0.1-0.5,0.3-0.7,0.6
	c-0.2,0.2-0.3,0.5-0.2,0.8c0,0.5,0.2,0.9,0.5,1.2c0.5,0.3,1,0.5,1.6,0.5c0.6,0,1.3-0.1,1.8-0.4c0.5-0.3,0.9-0.7,1.2-1.2
	c0.2-0.6,0.3-1.2,0.3-1.8L377.3,54L377.3,54z M377.5,57.9c-0.6,0.5-1.2,0.9-1.9,1.2c-0.6,0.2-1.3,0.4-2,0.3c-1,0.1-1.9-0.2-2.7-0.8
	c-0.6-0.5-1-1.3-0.9-2.1c0-0.5,0.1-1,0.4-1.4c0.2-0.4,0.5-0.7,0.9-1c0.4-0.3,0.8-0.5,1.3-0.6c0.5-0.1,1.1-0.2,1.6-0.3
	c1.1-0.1,2.1-0.3,3.2-0.6v-0.5c0.1-0.6-0.1-1.1-0.5-1.5c-0.6-0.4-1.3-0.6-2-0.6c-0.6-0.1-1.3,0.1-1.9,0.4c-0.5,0.4-0.8,0.9-0.9,1.5
	l-1.7-0.2c0.1-0.6,0.4-1.3,0.8-1.8c0.4-0.5,1-0.8,1.6-1c0.8-0.3,1.6-0.4,2.4-0.4c0.7,0,1.5,0.1,2.2,0.3c0.5,0.2,0.9,0.4,1.2,0.8
	c0.3,0.3,0.5,0.8,0.6,1.2c0.1,0.5,0.1,1.1,0.1,1.6v2.3c0,1,0,2.1,0.1,3.1c0.1,0.4,0.2,0.9,0.5,1.2h-1.9
	C377.6,58.8,377.5,58.3,377.5,57.9L377.5,57.9z"/>
<path class="st3" d="M382.5,59.2V48.8h1.8v10.4H382.5z M382.5,46.9v-2h1.8v2H382.5z"/>
<path class="st3" d="M388.8,54c-0.1,1.1,0.2,2.1,0.9,3c0.5,0.6,1.2,1,2,1c0.8,0,1.5-0.3,2-0.9c0.6-0.8,0.9-1.8,0.8-2.9
	c0.1-1.1-0.2-2.2-0.8-3.1c-0.5-0.6-1.2-1-2-1c-0.8,0-1.5,0.4-2,1C389,51.9,388.7,53,388.8,54z M394.4,59.2v-1.3
	c-0.6,1-1.8,1.6-3,1.5c-0.8,0-1.6-0.2-2.3-0.7c-0.7-0.5-1.3-1.1-1.6-1.9c-0.4-0.9-0.6-1.8-0.6-2.8c0-1,0.2-1.9,0.5-2.8
	c0.3-0.8,0.9-1.5,1.6-1.9c0.7-0.4,1.5-0.7,2.4-0.7c0.6,0,1.2,0.1,1.7,0.4c0.5,0.2,0.9,0.6,1.2,1v-5.1h1.8v14.3L394.4,59.2
	L394.4,59.2z"/>
<path class="st3" d="M412.7,55.4l1.8,0.2c-0.1,1.1-0.7,2.1-1.5,2.8c-0.8,0.7-1.9,1-2.9,1c-1.3,0.1-2.6-0.4-3.5-1.4
	c-0.9-1.1-1.4-2.5-1.3-4c0-1,0.2-2,0.6-2.9c0.3-0.8,1-1.5,1.7-1.9c0.8-0.4,1.6-0.6,2.5-0.6c1,0,2,0.3,2.8,0.8
	c0.8,0.6,1.3,1.5,1.4,2.4l-1.7,0.3c-0.1-0.6-0.4-1.2-0.9-1.6c-0.4-0.4-1-0.5-1.5-0.5c-0.8,0-1.6,0.4-2.2,1c-0.6,0.9-0.9,1.9-0.9,3
	c-0.1,1.1,0.2,2.1,0.8,3c0.5,0.6,1.3,1,2.1,1c0.6,0,1.3-0.2,1.8-0.6C412.3,56.8,412.6,56.1,412.7,55.4z"/>
<path class="st3" d="M423.3,54c-0.9,0.3-1.9,0.5-2.9,0.7c-0.5,0-1.1,0.2-1.6,0.3c-0.3,0.1-0.5,0.3-0.7,0.6c-0.2,0.2-0.3,0.5-0.2,0.8
	c0,0.5,0.2,0.9,0.5,1.2c0.5,0.3,1,0.5,1.6,0.5c0.6,0,1.3-0.1,1.8-0.4c0.5-0.3,0.9-0.7,1.2-1.2c0.2-0.6,0.3-1.2,0.3-1.8L423.3,54
	L423.3,54z M423.4,57.9c-0.6,0.5-1.2,0.9-1.9,1.2c-0.6,0.2-1.3,0.4-2,0.3c-1,0.1-1.9-0.2-2.7-0.8c-0.6-0.5-1-1.3-0.9-2.1
	c0-0.5,0.1-1,0.4-1.4c0.2-0.4,0.5-0.7,0.9-1c0.4-0.3,0.8-0.5,1.3-0.6c0.5-0.1,1.1-0.2,1.6-0.3c1.1-0.1,2.1-0.3,3.2-0.6v-0.5
	c0.1-0.6-0.1-1.1-0.5-1.5c-0.6-0.4-1.3-0.6-2-0.6c-0.6-0.1-1.3,0.1-1.9,0.4c-0.5,0.4-0.8,0.9-0.9,1.5l-1.7-0.2
	c0.1-0.6,0.4-1.3,0.8-1.8c0.4-0.5,1-0.8,1.6-1c0.8-0.3,1.6-0.4,2.4-0.4c0.7,0,1.5,0.1,2.2,0.3c0.5,0.2,0.9,0.4,1.2,0.8
	c0.3,0.3,0.5,0.8,0.6,1.2c0.1,0.5,0.1,1.1,0.1,1.6v2.3c0,1,0,2.1,0.1,3.1c0.1,0.4,0.2,0.9,0.5,1.2h-1.8
	C423.6,58.8,423.5,58.3,423.4,57.9L423.4,57.9z"/>
<path class="st3" d="M428.5,59.2V48.8h1.6v1.6c0.3-0.6,0.7-1.1,1.1-1.5c0.3-0.2,0.7-0.4,1.1-0.3c0.7,0,1.3,0.2,1.8,0.6l-0.6,1.6
	c-0.4-0.2-0.8-0.4-1.3-0.4c-0.4,0-0.7,0.1-1,0.3c-0.3,0.3-0.6,0.6-0.7,1c-0.2,0.6-0.3,1.3-0.3,2v5.4H428.5L428.5,59.2z"/>
<path class="st3" d="M437,54c-0.1,1.1,0.2,2.1,0.9,3c0.5,0.6,1.2,1,2,1c0.8,0,1.5-0.3,2-0.9c0.6-0.8,0.9-1.8,0.8-2.9
	c0.1-1.1-0.2-2.3-0.8-3.2c-0.5-0.6-1.3-1-2.1-1c-0.8,0-1.5,0.4-2,1C437.2,51.9,436.9,52.9,437,54z M442.7,59.2v-1.3
	c-0.6,1-1.7,1.6-2.9,1.6c-0.8,0-1.6-0.2-2.3-0.7c-0.7-0.5-1.3-1.1-1.7-1.9c-0.4-0.9-0.6-1.8-0.6-2.8c0-1,0.2-1.9,0.5-2.8
	c0.3-0.8,0.9-1.5,1.6-1.9c0.7-0.4,1.5-0.7,2.4-0.7c1.1,0,2.2,0.5,2.9,1.4v-5.2h1.8v14.3L442.7,59.2L442.7,59.2z"/>
<path class="st3" d="M335.3,31.2v-8.1l-5.7,8.1L335.3,31.2L335.3,31.2z M335.3,37.5v-4.3h-7.9v-2l8.3-11.6h1.8v11.6h2.5v2h-2.5v4.3
	L335.3,37.5L335.3,37.5z"/>
<path class="st3" d="M351.7,30.5v-2.1h7.7V35c-1.1,0.9-2.3,1.6-3.7,2.1c-1.2,0.5-2.5,0.7-3.9,0.7c-1.7,0-3.4-0.4-4.9-1.1
	c-1.4-0.7-2.6-1.9-3.3-3.3c-0.8-1.5-1.1-3.1-1.1-4.8c0-1.7,0.4-3.4,1.1-4.9c0.7-1.4,1.8-2.6,3.2-3.4c1.5-0.8,3.1-1.1,4.8-1.1
	c1.2,0,2.4,0.2,3.6,0.6c1,0.4,1.8,1,2.5,1.8c0.7,0.9,1.1,1.9,1.4,2.9l-2.2,0.6c-0.2-0.8-0.5-1.5-1-2.1c-0.5-0.6-1.1-1-1.7-1.2
	c-0.8-0.3-1.7-0.5-2.5-0.5c-1,0-1.9,0.1-2.9,0.5c-0.7,0.3-1.4,0.7-1.9,1.3c-0.5,0.5-0.9,1.1-1.1,1.8c-0.5,1.1-0.7,2.4-0.7,3.6
	c0,1.4,0.2,2.8,0.8,4c0.5,1,1.4,1.9,2.4,2.4c1.1,0.5,2.2,0.8,3.4,0.8c1,0,2-0.2,3-0.6c0.8-0.3,1.6-0.7,2.3-1.3v-3.3H351.7
	L351.7,30.5z"/>
<path class="st3" d="M390.1,31.7h-6.6v2h6.5L390.1,31.7L390.1,31.7z M390.1,29.8v-1.9h-6.6v2L390.1,29.8L390.1,29.8z M390.1,26v-1.9
	h-6.6V26L390.1,26L390.1,26z M393.3,18v1.9h-5.2l-0.7,2.2h5v13.5h-2c1.1,1.1,2.4,1.9,3.8,2.5l-1.6,1.7c-1.4-0.9-2.6-2-3.6-3.3
	l0.8-0.9h-5.6l1.1,0.7c0.1,0.1,0.2,0.2,0.2,0.3c0,0.2-0.1,0.3-0.3,0.3c-1.3,1.1-2.6,2.1-4.1,3l-1.8-1.4c1.5-0.7,3-1.7,4.2-2.8h-2.2
	V22.1h3.7l0.7-2.2h-5.7V18H393.3L393.3,18z M378.5,18.6l1.1,0.7c0.1,0.1,0.2,0.2,0.2,0.3c-0.1,0.3-0.3,0.5-0.5,0.6l-2.7,4
	c0.6,0.4,1.2,0.8,1.8,1.2l-0.7,0.5h1.2l0.5-0.1c0.2,0,0.4,0.1,0.5,0.2l1,0.6c0.1,0.1,0.2,0.2,0.2,0.3c-0.1,0.3-0.2,0.5-0.5,0.6
	l-1.4,3.7l-1.7-0.6l1-2.9h-2v9.4c0,0.7-0.3,1.4-0.8,1.8c-0.5,0.4-1.6,0.6-3.5,0.6l-0.9-2.2h1.9c0.5,0.1,1-0.2,1.1-0.7c0,0,0,0,0,0
	v-9h-3.6v-1.9h4.8c-1.1-0.8-2.2-1.5-3.4-2l1.5-1.2c0.5,0.2,1,0.5,1.5,0.7l1.8-2.8h-5.7v-1.9h6.5l0.5-0.1
	C378.2,18.3,378.4,18.4,378.5,18.6L378.5,18.6z"/>
<path class="st3" d="M409.8,32.2l-2.1,1.4c-0.8-1.5-1.8-2.9-2.9-4.2l1.6-1.3C407.7,29.3,408.8,30.7,409.8,32.2z M412.7,23.2v-5.7
	l2.4,0.3c0.3,0,0.4,0.1,0.4,0.3c-0.1,0.3-0.3,0.6-0.6,0.7v4.5h3.6v2.1h-3.6v11.2c0.1,0.9-0.3,1.7-1,2.2c-0.6,0.5-1.9,0.7-4.2,0.7
	l-0.9-2.2h2.4c0.6,0.1,1.2-0.3,1.4-0.9c0,0,0-0.1,0-0.2V25.4h-9.3v-2.1L412.7,23.2L412.7,23.2z M403.9,18c0.2,0,0.3,0.2,0.4,0.3
	c-0.1,0.3-0.4,0.6-0.7,0.6c-0.6,1.5-1.2,2.8-1.8,3.9v16.9h-2.3v-13c-0.6,0.9-1.2,1.8-1.9,2.7l-1.7-1.7c1.3-1.6,2.4-3.2,3.3-5
	c1-1.8,1.9-3.7,2.6-5.7L403.9,18z"/>
<path class="st3" d="M432.8,17.2c0.4,0,0.6,0.1,0.6,0.3c-0.1,0.2-0.2,0.4-0.4,0.5v2.1h8.1v2H433v3.3h11.4v2.1H433v2.2
	c2.9,1.3,5.6,2.8,8.1,4.6l-1.5,1.6c-2.1-1.4-4.3-2.7-6.6-3.8v7.7h-2.2V27.6h-9.2v-2.1h9.2v-8.4L432.8,17.2z"/>
<path class="st2" d="M220.4,280.9h2.7c0.7,0,1.3-0.1,2-0.2c0.4-0.1,0.8-0.3,1.1-0.6c0.4-0.5,0.7-1,0.9-1.6c0.2-0.8,0.3-1.6,0.3-2.4
	c0.1-1-0.2-2.1-0.6-3c-0.4-0.6-0.9-1.1-1.6-1.4c-0.7-0.2-1.4-0.3-2.1-0.2h-2.6L220.4,280.9L220.4,280.9z M218.7,282.4v-12.6h4.3
	c0.8,0,1.5,0,2.2,0.2c0.7,0.1,1.3,0.5,1.8,0.9c0.7,0.6,1.2,1.3,1.5,2.1c0.3,1,0.5,2,0.5,3c0,0.9-0.1,1.7-0.3,2.5
	c-0.2,0.7-0.5,1.3-0.9,1.8c-0.3,0.4-0.7,0.8-1.1,1.1c-0.5,0.3-1,0.5-1.5,0.6c-0.7,0.2-1.3,0.2-2,0.2L218.7,282.4L218.7,282.4z"/>
<path class="st2" d="M237.5,277.9c-0.8,0.3-1.7,0.5-2.5,0.6c-0.5,0-0.9,0.2-1.4,0.3c-0.2,0.1-0.5,0.3-0.6,0.5
	c-0.1,0.2-0.2,0.5-0.2,0.7c0,0.4,0.2,0.8,0.5,1c0.4,0.3,0.9,0.4,1.4,0.4c0.6,0,1.1-0.1,1.6-0.4c0.4-0.2,0.8-0.6,1-1.1
	c0.2-0.5,0.3-1,0.2-1.5L237.5,277.9L237.5,277.9z M237.6,281.3c-0.5,0.4-1,0.8-1.6,1c-0.5,0.2-1.1,0.3-1.7,0.3
	c-0.8,0.1-1.7-0.2-2.3-0.7c-0.5-0.5-0.8-1.2-0.8-1.9c0-0.8,0.4-1.6,1.1-2.1c0.3-0.2,0.7-0.4,1.1-0.5c0.5-0.1,0.9-0.2,1.4-0.2
	c0.9-0.1,1.9-0.3,2.8-0.5v-0.4c0-0.5-0.1-1-0.4-1.3c-0.5-0.4-1.1-0.6-1.8-0.5c-0.6,0-1.1,0.1-1.6,0.4c-0.4,0.3-0.7,0.8-0.8,1.4
	l-1.5-0.2c0.1-0.6,0.3-1.1,0.7-1.6c0.4-0.4,0.8-0.7,1.4-0.9c0.7-0.2,1.4-0.3,2.1-0.3c0.6,0,1.3,0.1,1.9,0.3c0.4,0.1,0.8,0.4,1.1,0.7
	c0.2,0.3,0.4,0.6,0.5,1c0.1,0.5,0.1,1,0.1,1.4v2.1c0,0.9,0,1.8,0.1,2.7c0.1,0.4,0.2,0.8,0.4,1.1h-1.6
	C237.8,282,237.7,281.7,237.6,281.3L237.6,281.3z"/>
<path class="st2" d="M241.9,285.9l-0.1-1.4c0.3,0.1,0.6,0.1,0.9,0.1c0.3,0,0.6,0,0.8-0.2c0.2-0.1,0.4-0.3,0.5-0.5
	c0.2-0.4,0.3-0.8,0.5-1.1l0.1-0.4l-3.5-9.1h1.6l1.9,5.3c0.2,0.7,0.5,1.4,0.7,2.1c0.2-0.7,0.4-1.4,0.6-2.1l1.9-5.3h1.5l-3.5,9.3
	c-0.2,0.7-0.5,1.4-0.9,2.1c-0.2,0.4-0.5,0.8-0.9,1.1c-0.4,0.2-0.8,0.4-1.3,0.4C242.6,286.1,242.2,286.1,241.9,285.9z"/>
<path class="st2" d="M258.6,275.8h3.2c0.8,0.1,1.6-0.1,2.3-0.6c0.5-0.4,0.7-1.1,0.7-1.7c0-0.5-0.1-1-0.4-1.4c-0.2-0.4-0.6-0.6-1-0.7
	c-0.5-0.1-1-0.1-1.5-0.1h-3.2L258.6,275.8L258.6,275.8z M256.9,282.4v-12.6h4.7c0.6,0,1.3,0,1.9,0.1c0.6,0.1,1.1,0.3,1.5,0.6
	c0.4,0.3,0.8,0.7,1,1.2c0.7,1.5,0.4,3.2-0.6,4.4c-0.7,0.7-1.9,1.1-3.7,1.1h-3.2v5.1L256.9,282.4L256.9,282.4z"/>
<path class="st2" d="M274.8,277.9c-0.8,0.3-1.7,0.5-2.5,0.6c-0.5,0-0.9,0.2-1.4,0.3c-0.2,0.1-0.5,0.3-0.6,0.5
	c-0.1,0.2-0.2,0.5-0.2,0.7c0,0.4,0.2,0.8,0.5,1c0.4,0.3,0.9,0.4,1.4,0.4c0.6,0,1.1-0.1,1.6-0.4c0.4-0.2,0.8-0.6,1-1.1
	c0.2-0.5,0.3-1,0.2-1.5L274.8,277.9L274.8,277.9z M274.9,281.3c-0.5,0.4-1,0.8-1.6,1c-0.5,0.2-1.1,0.3-1.7,0.3
	c-0.8,0.1-1.7-0.2-2.3-0.7c-0.5-0.5-0.8-1.2-0.8-1.9c0-0.4,0.1-0.8,0.3-1.2c0.2-0.4,0.5-0.7,0.8-0.9c0.3-0.2,0.7-0.4,1.1-0.5
	c0.5-0.1,0.9-0.2,1.4-0.2c0.9-0.1,1.9-0.3,2.8-0.5c0-0.2,0-0.3,0-0.4c0-0.5-0.1-1-0.4-1.3c-0.5-0.4-1.1-0.6-1.8-0.5
	c-0.6,0-1.1,0.1-1.6,0.4c-0.4,0.3-0.7,0.8-0.8,1.4l-1.5-0.2c0.1-0.6,0.3-1.1,0.7-1.6c0.4-0.4,0.8-0.7,1.4-0.9
	c0.7-0.2,1.4-0.3,2.1-0.3c0.6,0,1.3,0.1,1.9,0.3c0.4,0.1,0.8,0.4,1.1,0.7c0.2,0.3,0.4,0.6,0.5,1c0.1,0.5,0.1,1,0.1,1.4v2.1
	c0,0.9,0,1.8,0.1,2.7c0.1,0.4,0.2,0.8,0.4,1.1h-1.6C275,282,274.9,281.7,274.9,281.3L274.9,281.3z"/>
<path class="st2" d="M278.6,279.7l1.5-0.2c0.1,0.5,0.3,1,0.7,1.4c0.5,0.4,1.1,0.5,1.6,0.5c0.6,0,1.1-0.1,1.6-0.4
	c0.3-0.2,0.5-0.6,0.5-1c0-0.3-0.2-0.6-0.5-0.8c-0.5-0.2-1-0.4-1.6-0.5c-0.8-0.2-1.6-0.4-2.4-0.7c-0.4-0.2-0.8-0.5-1-0.9
	c-0.2-0.4-0.3-0.8-0.3-1.2c0-0.4,0.1-0.8,0.3-1.1c0.2-0.3,0.4-0.6,0.8-0.9c0.3-0.2,0.6-0.4,1-0.5c0.4-0.1,0.9-0.2,1.3-0.2
	c0.6,0,1.3,0.1,1.9,0.3c0.5,0.2,0.9,0.4,1.2,0.8c0.3,0.4,0.5,0.9,0.5,1.4l-1.5,0.2c0-0.4-0.3-0.8-0.6-1.1c-0.4-0.3-0.9-0.4-1.4-0.4
	c-0.5,0-1.1,0.1-1.5,0.4c-0.3,0.2-0.4,0.5-0.5,0.8c0,0.2,0.1,0.4,0.2,0.5c0.2,0.2,0.4,0.3,0.6,0.4c0.1,0.1,0.6,0.2,1.4,0.4
	c0.8,0.2,1.5,0.4,2.3,0.7c0.4,0.2,0.8,0.5,1,0.8c0.3,0.4,0.4,0.9,0.4,1.3c0,0.5-0.2,1-0.5,1.5c-0.3,0.5-0.8,0.8-1.3,1
	c-0.6,0.3-1.3,0.4-1.9,0.4c-1,0.1-1.9-0.2-2.7-0.7C279.2,281.4,278.7,280.6,278.6,279.7z"/>
<path class="st2" d="M287.9,279.7l1.5-0.2c0.1,0.5,0.3,1,0.7,1.4c0.5,0.4,1.1,0.5,1.6,0.5c0.6,0,1.1-0.1,1.6-0.4
	c0.3-0.2,0.5-0.6,0.5-1c0-0.3-0.2-0.6-0.5-0.8c-0.5-0.2-1-0.4-1.6-0.5c-0.8-0.2-1.6-0.4-2.4-0.7c-0.4-0.2-0.8-0.5-1-0.9
	c-0.2-0.4-0.3-0.8-0.3-1.2c0-0.4,0.1-0.8,0.3-1.1c0.2-0.3,0.4-0.6,0.8-0.9c0.3-0.2,0.6-0.4,1-0.5c0.4-0.1,0.9-0.2,1.3-0.2
	c0.6,0,1.3,0.1,1.9,0.3c0.5,0.2,0.9,0.4,1.2,0.8c0.3,0.4,0.5,0.9,0.5,1.4l-1.5,0.2c0-0.4-0.3-0.8-0.6-1.1c-0.4-0.3-0.9-0.4-1.4-0.4
	c-0.5,0-1.1,0.1-1.5,0.4c-0.3,0.2-0.4,0.5-0.5,0.8c0,0.2,0.1,0.4,0.2,0.5c0.2,0.2,0.4,0.3,0.6,0.4c0.1,0.1,0.6,0.2,1.4,0.4
	c0.8,0.2,1.5,0.4,2.3,0.7c0.4,0.2,0.7,0.5,1,0.8c0.3,0.4,0.4,0.9,0.4,1.3c0,0.5-0.2,1-0.5,1.5c-0.3,0.5-0.8,0.8-1.3,1
	c-0.6,0.3-1.3,0.4-1.9,0.4c-1,0.1-1.9-0.2-2.7-0.7C288.5,281.4,288,280.6,287.9,279.7z"/>
<path class="st2" d="M304.3,277.9c-0.1,0.9,0.2,1.9,0.8,2.6c0.9,1.1,2.5,1.2,3.6,0.2c0.1-0.1,0.2-0.2,0.2-0.2
	c0.6-0.8,0.8-1.7,0.8-2.7c0.1-0.9-0.2-1.8-0.8-2.6c-0.9-1.1-2.5-1.2-3.6-0.2c-0.1,0.1-0.2,0.1-0.2,0.2
	C304.5,276,304.2,276.9,304.3,277.9z M302.7,277.9c-0.1-1.4,0.4-2.8,1.4-3.8c0.8-0.7,1.8-1,2.9-1c1.2,0,2.3,0.4,3.1,1.2
	c0.8,0.9,1.3,2.2,1.2,3.4c0,1-0.1,1.9-0.5,2.8c-0.3,0.7-0.9,1.2-1.5,1.6c-0.7,0.4-1.4,0.6-2.2,0.6c-1.2,0.1-2.3-0.4-3.1-1.2
	C303,280.4,302.6,279.2,302.7,277.9z"/>
<path class="st2" d="M313.9,282.4v-7.9h-1.4v-1.2h1.4v-1c0-0.5,0-0.9,0.2-1.4c0.1-0.4,0.4-0.8,0.8-1c0.5-0.3,1-0.4,1.6-0.4
	c0.5,0,1,0.1,1.4,0.2l-0.2,1.3c-0.3-0.1-0.6-0.1-0.9-0.1c-0.4,0-0.7,0.1-1,0.3c-0.2,0.3-0.3,0.7-0.3,1.1v0.8h1.8v1.2h-1.8v7.9
	L313.9,282.4L313.9,282.4z"/>
<path class="st2" d="M332.8,269.9h1.7v7.3c0,1-0.1,2-0.4,3c-0.3,0.8-0.8,1.4-1.5,1.8c-0.9,0.5-1.9,0.7-2.9,0.7c-1,0-2-0.2-2.9-0.6
	c-0.7-0.4-1.3-1-1.6-1.8c-0.4-1-0.5-2.1-0.5-3.1v-7.3h1.7v7.2c0,0.8,0.1,1.6,0.3,2.4c0.2,0.5,0.5,0.9,1,1.2c0.6,0.3,1.2,0.4,1.8,0.4
	c0.9,0.1,1.9-0.2,2.6-0.8c0.6-0.9,0.9-2.1,0.8-3.2L332.8,269.9L332.8,269.9z"/>
<path class="st2" d="M337.6,282.4v-9.1h1.4v1.3c0.6-1,1.7-1.5,2.9-1.5c0.5,0,1,0.1,1.5,0.3c0.4,0.2,0.7,0.4,1,0.8
	c0.2,0.3,0.4,0.7,0.5,1.1c0.1,0.5,0.1,1,0.1,1.5v5.6h-1.5v-5.5c0-0.5,0-1-0.2-1.4c-0.1-0.3-0.3-0.6-0.6-0.8
	c-0.3-0.2-0.7-0.3-1.1-0.3c-0.6,0-1.2,0.2-1.7,0.6c-0.6,0.7-0.8,1.5-0.7,2.4v5L337.6,282.4L337.6,282.4z"/>
<rect x="347.9" y="269.9" class="st2" width="1.5" height="12.6"/>
<path class="st2" d="M352.3,282.4v-9.1h1.5v9.1H352.3z M352.3,271.6v-1.8h1.5v1.8H352.3z"/>
<path class="st2" d="M356.8,282.4v-9.1h1.4v1.3c0.3-0.4,0.7-0.8,1.1-1.1c0.5-0.3,1.1-0.4,1.6-0.4c0.6,0,1.2,0.1,1.7,0.4
	c0.4,0.3,0.8,0.7,0.9,1.2c0.6-1,1.7-1.6,2.8-1.6c0.8-0.1,1.5,0.2,2.1,0.8c0.5,0.6,0.8,1.5,0.7,2.3v6.2h-1.5v-5.7
	c0-0.4,0-0.9-0.1-1.3c-0.1-0.3-0.3-0.5-0.5-0.7c-0.3-0.2-0.6-0.3-0.9-0.2c-0.6,0-1.2,0.2-1.6,0.6c-0.5,0.6-0.7,1.3-0.6,2v5.3h-1.5
	v-5.9c0-0.5-0.1-1.1-0.4-1.5c-0.3-0.4-0.8-0.6-1.2-0.5c-0.4,0-0.8,0.1-1.2,0.3c-0.4,0.2-0.7,0.6-0.8,1c-0.2,0.6-0.3,1.3-0.2,1.9v4.7
	L356.8,282.4L356.8,282.4z"/>
<path class="st2" d="M371.9,282.4v-9.1h1.5v9.1H371.9z M371.9,271.6v-1.8h1.5v1.8H371.9z"/>
<path class="st2" d="M379.7,281l0.2,1.4c-0.4,0.1-0.8,0.1-1.2,0.1c-0.4,0-0.9-0.1-1.3-0.3c-0.3-0.2-0.5-0.4-0.6-0.7
	c-0.2-0.6-0.2-1.2-0.2-1.8v-5.2h-1.1v-1.2h1.1V271l1.5-0.9v3.2h1.5v1.2h-1.5v5.3c0,0.3,0,0.6,0.1,0.9c0.1,0.1,0.1,0.2,0.3,0.3
	c0.2,0.1,0.3,0.1,0.5,0.1C379.3,281.1,379.5,281,379.7,281z"/>
<path class="st2" d="M382.9,277h5.1c0-0.6-0.2-1.2-0.6-1.7c-0.5-0.6-1.2-0.9-1.9-0.9c-0.7,0-1.3,0.2-1.8,0.7
	C383.2,275.6,382.9,276.3,382.9,277z M388,279.5l1.6,0.2c-0.2,0.9-0.7,1.6-1.4,2.2c-1.8,1.2-4.2,1-5.8-0.5c-0.8-1-1.2-2.2-1.2-3.5
	c-0.1-1.3,0.3-2.6,1.2-3.6c0.8-0.8,1.9-1.3,3.1-1.3c1.1,0,2.2,0.4,3,1.2c0.8,1,1.2,2.2,1.2,3.5c0,0.1,0,0.2,0,0.4h-6.8
	c0,0.8,0.3,1.7,0.9,2.3c0.5,0.5,1.2,0.8,1.9,0.8c0.5,0,1-0.1,1.5-0.4C387.5,280.6,387.8,280,388,279.5L388,279.5z"/>
<path class="st2" d="M393.1,277.9c-0.1,0.9,0.2,1.9,0.7,2.6c0.4,0.5,1.1,0.9,1.7,0.9c0.7,0,1.3-0.3,1.7-0.8c0.5-0.7,0.8-1.6,0.7-2.5
	c0.1-1-0.2-1.9-0.7-2.7c-0.4-0.6-1.1-0.9-1.8-0.9c-0.7,0-1.3,0.3-1.7,0.8C393.2,276,393,276.9,393.1,277.9z M397.9,282.4v-1.1
	c-0.5,0.9-1.5,1.4-2.5,1.4c-0.7,0-1.4-0.2-2-0.6c-0.6-0.4-1.1-1-1.4-1.7c-0.3-0.8-0.5-1.6-0.5-2.5c0-0.8,0.1-1.7,0.5-2.5
	c0.3-0.7,0.7-1.3,1.4-1.7c0.6-0.4,1.3-0.6,2-0.6c0.5,0,1,0.1,1.5,0.4c0.4,0.2,0.7,0.5,1,0.9v-4.5h1.5v12.6H397.9L397.9,282.4z"/>
<path class="st2" d="M409.6,280.9h2.7c0.7,0,1.3-0.1,2-0.2c0.4-0.1,0.8-0.3,1.1-0.6c0.4-0.5,0.7-1,0.9-1.6c0.2-0.8,0.3-1.6,0.3-2.4
	c0.1-1-0.2-2.1-0.6-3c-0.4-0.6-0.9-1.1-1.6-1.4c-0.7-0.2-1.4-0.3-2.1-0.2h-2.6L409.6,280.9L409.6,280.9z M407.9,282.4v-12.6h4.3
	c0.8,0,1.5,0,2.2,0.2c0.7,0.1,1.3,0.5,1.8,0.9c0.7,0.6,1.2,1.3,1.5,2.1c0.3,1,0.5,2,0.5,3c0,0.9-0.1,1.7-0.3,2.5
	c-0.2,0.7-0.5,1.3-0.9,1.8c-0.3,0.4-0.7,0.8-1.1,1.1c-0.5,0.3-1,0.5-1.5,0.6c-0.7,0.2-1.3,0.2-2,0.2L407.9,282.4L407.9,282.4z"/>
<path class="st2" d="M426.8,277.9c-0.8,0.3-1.7,0.5-2.5,0.6c-0.5,0-0.9,0.2-1.4,0.3c-0.2,0.1-0.5,0.3-0.6,0.5
	c-0.4,0.6-0.3,1.3,0.2,1.8c0.4,0.3,0.9,0.4,1.4,0.4c0.6,0,1.1-0.1,1.6-0.4c0.4-0.2,0.8-0.6,1-1.1c0.2-0.5,0.3-1,0.2-1.5L426.8,277.9
	L426.8,277.9z M426.9,281.3c-0.5,0.4-1,0.8-1.6,1c-0.5,0.2-1.1,0.3-1.7,0.3c-0.8,0.1-1.7-0.2-2.3-0.7c-0.5-0.5-0.8-1.2-0.8-1.9
	c0-0.4,0.1-0.8,0.3-1.2c0.2-0.4,0.5-0.7,0.8-0.9c0.3-0.2,0.7-0.4,1.1-0.5c0.5-0.1,0.9-0.2,1.4-0.2c0.9-0.1,1.9-0.3,2.8-0.5
	c0-0.2,0-0.3,0-0.4c0-0.5-0.1-1-0.4-1.3c-0.5-0.4-1.1-0.6-1.8-0.5c-0.6,0-1.1,0.1-1.6,0.4c-0.4,0.3-0.7,0.8-0.8,1.4l-1.5-0.2
	c0.1-0.6,0.3-1.1,0.7-1.6c0.4-0.4,0.8-0.7,1.4-0.9c0.7-0.2,1.4-0.3,2.1-0.3c0.6,0,1.3,0.1,1.9,0.3c0.4,0.1,0.8,0.4,1.1,0.7
	c0.2,0.3,0.4,0.6,0.5,1c0.1,0.5,0.1,1,0.1,1.4v2.1c0,0.9,0,1.8,0.1,2.7c0.1,0.4,0.2,0.8,0.4,1.1h-1.6
	C427,282,426.9,281.7,426.9,281.3L426.9,281.3z"/>
<path class="st2" d="M434.6,281l0.2,1.4c-0.4,0.1-0.8,0.1-1.2,0.1c-0.4,0-0.9-0.1-1.3-0.3c-0.3-0.2-0.5-0.4-0.6-0.7
	c-0.2-0.6-0.2-1.2-0.2-1.8v-5.2h-1.1v-1.2h1.1V271l1.5-0.9v3.2h1.5v1.2h-1.5v5.3c0,0.3,0,0.6,0.1,0.9c0.1,0.1,0.2,0.2,0.3,0.3
	c0.2,0.1,0.3,0.1,0.5,0.1C434.2,281.1,434.4,281,434.6,281z"/>
<path class="st2" d="M442.5,277.9c-0.8,0.3-1.7,0.5-2.5,0.6c-0.5,0-0.9,0.2-1.4,0.3c-0.2,0.1-0.5,0.3-0.6,0.5
	c-0.4,0.6-0.3,1.3,0.3,1.8c0.4,0.3,0.9,0.4,1.4,0.4c0.6,0,1.1-0.1,1.6-0.4c0.4-0.2,0.8-0.6,1-1.1c0.2-0.5,0.3-1,0.2-1.5L442.5,277.9
	L442.5,277.9z M442.6,281.3c-0.5,0.4-1,0.8-1.6,1c-0.5,0.2-1.1,0.3-1.7,0.3c-0.8,0.1-1.7-0.2-2.3-0.7c-0.5-0.5-0.8-1.2-0.8-1.9
	c0-0.4,0.1-0.8,0.3-1.2c0.2-0.4,0.5-0.7,0.8-0.9c0.3-0.2,0.7-0.4,1.1-0.5c0.5-0.1,0.9-0.2,1.4-0.2c0.9-0.1,1.9-0.3,2.8-0.5
	c0-0.2,0-0.3,0-0.4c0.1-0.5-0.1-1-0.4-1.3c-0.5-0.4-1.1-0.6-1.8-0.5c-0.6,0-1.1,0.1-1.6,0.4c-0.4,0.3-0.7,0.8-0.8,1.4l-1.5-0.2
	c0.1-0.6,0.3-1.1,0.7-1.6c0.4-0.4,0.8-0.7,1.4-0.9c0.7-0.2,1.4-0.3,2.1-0.3c0.6,0,1.3,0.1,1.9,0.3c0.4,0.1,0.8,0.4,1.1,0.7
	c0.2,0.3,0.4,0.6,0.5,1c0.1,0.5,0.1,1,0.1,1.4v2.1c0,0.9,0,1.8,0.1,2.7c0.1,0.4,0.2,0.8,0.4,1.1h-1.6
	C442.7,282,442.6,281.7,442.6,281.3L442.6,281.3z"/>
<ellipse class="st2" cx="267.7" cy="173.8" rx="48.4" ry="48.4"/>
<path class="st4" d="M250.4,145.4h34.7v55.3h-4.9v-4.4h-24.9v4.4h-4.9V145.4z M280.1,151.5h-24.9v15.6h24.9L280.1,151.5L280.1,151.5
	z M280.1,173.1h-24.9v17.1h24.9L280.1,173.1L280.1,173.1z"/>
<path class="st5" d="M22.9,35.8h-6c0,0.3,0,0.7,0,1s0,0.7,0,1h6.4C23.2,37.1,23,36.5,22.9,35.8z M23.9,27.9h-5.1
	c-0.3,0.7-0.6,1.3-0.8,2h5.3C23.5,29.2,23.7,28.5,23.9,27.9L23.9,27.9z M22.8,33.8c0-0.7,0-1.3,0.1-2h-5.4c-0.2,0.7-0.3,1.3-0.4,2
	H22.8z M23.9,39.8h-6.8c0.1,0.7,0.2,1.3,0.4,2h7.5C24.6,41.1,24.2,40.4,23.9,39.8L23.9,39.8z M26.2,43.8h-8.2c0.2,0.7,0.5,1.3,0.8,2
	h9.3C27.5,45.1,26.8,44.4,26.2,43.8L26.2,43.8z M58.2,36.8c0-0.3,0-0.7,0-1h-7.1c-0.3-0.7-0.6-1.4-1-2H58c-0.1-0.7-0.2-1.3-0.4-2
	h-8.8c-0.6-0.7-1.2-1.4-1.9-2H57c-0.2-0.7-0.5-1.3-0.8-2H33.5v9.9h8v9.9H19.9c0.4,0.7,0.9,1.4,1.4,2h12.2v2H23.1
	c0.7,0.7,1.5,1.4,2.3,2h8.1v2h-4.8c5.6,2.6,12,2.6,17.6,0h-2.2c1-0.6,1.9-1.2,2.8-2h2.8c0.8-0.6,1.6-1.3,2.3-2h-3.2
	c0.5-0.6,0.9-1.3,1.3-2h3.7c0.5-0.6,1-1.3,1.4-2h-4.1c0.3-0.7,0.5-1.3,0.7-2h4.5c0.3-0.7,0.6-1.3,0.8-2h-5c0.1-0.7,0.1-1.3,0.1-2
	l0,0h5.4c0.2-0.7,0.3-1.3,0.4-2h-5.9c-0.1-0.7-0.2-1.3-0.4-2h6.5C58.2,37.4,58.2,37.1,58.2,36.8L58.2,36.8z M41.5,21.9H52
	c-0.7-0.7-1.5-1.4-2.3-2h-8.2V21.9z M26.3,23.9h-5c-0.5,0.6-1,1.3-1.4,2h5C25.3,25.2,25.8,24.6,26.3,23.9L26.3,23.9z M41.5,25.9
	h13.6c-0.4-0.7-0.9-1.4-1.4-2H41.5V25.9z M30.9,20h-5.5c-0.8,0.6-1.6,1.3-2.3,2h5.1C29,21.2,29.9,20.6,30.9,20z M37.5,16
	c-3.1,0-6.1,0.7-8.8,2h17.6C43.6,16.7,40.6,16,37.5,16z"/>
<path class="st6" d="M142.7,50.2h-1v-2.9c0.1-0.3-0.1-0.7-0.5-0.7c-0.1,0-0.1,0-0.2,0c-0.3,0-0.7,0.2-0.9,0.4v3.2h-1v-2.9
	c0.1-0.3-0.1-0.7-0.5-0.7c-0.1,0-0.1,0-0.2,0c-0.3,0-0.7,0.2-0.9,0.4v3.2h-1v-4.1l1-0.3v0.5c0.4-0.3,0.8-0.5,1.4-0.6
	c0.5,0,0.9,0.2,1.1,0.6c0.4-0.4,0.9-0.6,1.4-0.6c0.7,0,1.2,0.6,1.2,1.2c0,0,0,0,0,0.1V50.2L142.7,50.2z M132,48
	c-0.1,0.7,0.4,1.4,1.1,1.6c0,0,0.1,0,0.1,0c0.9-0.2,1.4-1.1,1.1-2c-0.1-0.6-0.6-1-1.1-1.1c-0.7,0-1.3,0.7-1.2,1.4
	C131.9,47.9,131.9,47.9,132,48z M135.5,48c0,1.3-1,2.4-2.3,2.4c-1.3,0-2.4-1-2.4-2.3c0-1.3,1-2.4,2.3-2.4c0,0,0.1,0,0.1,0
	c1.2-0.1,2.3,0.8,2.3,2.1C135.5,47.9,135.5,47.9,135.5,48z M129,45.7c0.5,0,1,0.1,1.5,0.3l-0.2,0.7c-0.3-0.2-0.7-0.2-1.1-0.2
	c-0.8,0-1.4,0.7-1.3,1.5c0,0,0,0,0,0c0,0.8,0.5,1.5,1.3,1.5c0.4,0,0.8-0.1,1.1-0.2l0.3,0.6c-0.5,0.2-1,0.3-1.5,0.3
	c-1.2,0.1-2.2-0.8-2.3-2c0-0.1,0-0.2,0-0.3C126.7,46.8,127.7,45.7,129,45.7C128.9,45.7,129,45.7,129,45.7L129,45.7z M124,46.4
	c-0.5,0-0.9,0.5-0.9,1h1.8C125,46.9,124.6,46.5,124,46.4C124.1,46.4,124.1,46.4,124,46.4L124,46.4z M124.5,49.5
	c0.4,0,0.8-0.1,1.2-0.2l0.2,0.6c-0.5,0.3-1.1,0.4-1.7,0.4c-1.1,0.1-2.1-0.7-2.2-1.8c0-0.1,0-0.3,0-0.4c-0.1-1.2,0.8-2.2,2-2.3
	c0,0,0.1,0,0.1,0c1.1,0,2,0.7,2,2.4h-2.9c-0.1,0.7,0.4,1.3,1.1,1.4C124.3,49.5,124.4,49.5,124.5,49.5L124.5,49.5z M120,43.9l1.1-0.3
	v6.6H120V43.9L120,43.9z M117.1,46.4c-0.5,0-0.9,0.5-0.9,1h1.8C118.1,46.9,117.7,46.5,117.1,46.4C117.2,46.4,117.2,46.4,117.1,46.4
	L117.1,46.4z M117.5,49.5c0.4,0,0.8-0.1,1.2-0.2l0.2,0.6c-0.5,0.3-1.1,0.4-1.7,0.4c-1.1,0.1-2.1-0.7-2.2-1.8c0-0.1,0-0.3,0-0.4
	c-0.1-1.2,0.8-2.2,2-2.3c0,0,0.1,0,0.1,0c1.1,0,2,0.7,2,2.4h-3c-0.1,0.7,0.4,1.3,1.1,1.4C117.4,49.5,117.5,49.5,117.5,49.5
	L117.5,49.5z M110.8,43.6h5.3v0.8H114v5.7h-1.1v-5.7h-2.1V43.6z M81,45.8v2.9c-0.1,0.3,0.2,0.7,0.5,0.7c0.1,0,0.1,0,0.2,0
	c0.4,0,0.8-0.2,1.1-0.4v-3.2h1v4.1l-1,0.3v-0.5c-0.4,0.4-1,0.6-1.5,0.5c-0.6,0.1-1.2-0.4-1.3-1.1c0-0.1,0-0.2,0-0.3v-3.1H81L81,45.8
	z M108.3,48.2h-0.6c-0.5-0.1-0.9,0.3-1,0.7c0,0.3,0.3,0.6,0.6,0.6c0,0,0.1,0,0.1,0c0.3,0,0.6-0.2,0.9-0.4V48.2L108.3,48.2z
	 M107,50.2c-0.7,0.1-1.2-0.4-1.3-1c0-0.1,0-0.1,0-0.2c0-0.8,0.8-1.5,1.6-1.5c0,0,0,0,0.1,0h0.9v-0.4c0.1-0.4-0.2-0.7-0.6-0.8
	c-0.1,0-0.1,0-0.2,0c-0.4,0-0.8,0.1-1.2,0.3l-0.2-0.6c0.5-0.3,1.1-0.4,1.8-0.4c0.7-0.1,1.4,0.4,1.5,1.1c0,0.1,0,0.2,0,0.2v2.5
	c0,0.2,0.1,0.5,0.2,0.7h-1.1c-0.1-0.1-0.1-0.3-0.1-0.4C107.9,50.1,107.5,50.2,107,50.2L107,50.2z M101.6,45.8h1l0.9,2.8l1-2.8h0.9
	l-1.7,4.4h-0.6l-0.8-2.2l-0.8,2.2H101l-1.6-4.4h1l1,2.9L102,47L101.6,45.8z M90.9,47.1c0,0.4,0.3,0.7,0.7,0.7c0,0,0.1,0,0.1,0
	c0.4,0,0.7-0.2,0.8-0.6c0,0,0-0.1,0-0.1c0-0.4-0.3-0.8-0.7-0.8c0,0,0,0-0.1,0C91.2,46.3,90.9,46.7,90.9,47.1
	C90.9,47.1,90.9,47.1,90.9,47.1z M90.3,51.1c0,0.5,0.8,0.7,1.4,0.7c0.6,0.1,1.1-0.2,1.4-0.8c0.1-0.3-0.1-0.6-0.5-0.7
	c-0.1,0-0.2,0-0.2,0H91C90.6,50.5,90.4,50.8,90.3,51.1L90.3,51.1z M91.3,48.5c-0.3,0-0.8,0.1-0.8,0.4s0.4,0.4,0.7,0.4h1.2
	c0.7-0.1,1.4,0.4,1.5,1.1c0,0.1,0,0.3,0,0.4c-0.2,1-1.2,1.8-2.3,1.7c-1.1,0-2.3-0.3-2.3-1.2c0-0.5,0.3-1,0.8-1.2
	c-0.4-0.2-0.6-0.6-0.5-1c0-0.5,0.3-0.9,0.8-1.1c-0.3-0.2-0.5-0.6-0.5-1c0-0.8,0.7-1.4,1.5-1.4c0,0,0.1,0,0.1,0c0.3,0,0.6,0,0.9,0.1
	h1.7v0.6h-0.9c0.2,0.2,0.3,0.5,0.3,0.7c0,0.8-0.7,1.5-1.6,1.4c0,0,0,0-0.1,0L91.3,48.5L91.3,48.5z M87.8,50.2v-2.9
	c0.1-0.3-0.2-0.7-0.5-0.7c-0.1,0-0.1,0-0.2,0c-0.4,0-0.8,0.2-1.1,0.4v3.2h-1v-4.1l1-0.3v0.5c0.4-0.4,1-0.6,1.5-0.5
	c0.7,0,1.2,0.5,1.3,1.2c0,0,0,0.1,0,0.1v3.1L87.8,50.2L87.8,50.2z M97.8,50.2v-2.9c0.1-0.3-0.2-0.7-0.5-0.7c-0.1,0-0.1,0-0.2,0
	c-0.4,0-0.8,0.2-1.1,0.4v3.2h-1.1v-6.3l1.1-0.3v2.7c0.4-0.4,1-0.6,1.5-0.5c0.7-0.1,1.2,0.4,1.3,1.1c0,0.1,0,0.1,0,0.2v3.1L97.8,50.2
	L97.8,50.2z M77.9,50.2v-2.9c0.1-0.3-0.2-0.7-0.5-0.7c-0.1,0-0.1,0-0.2,0c-0.4,0-0.8,0.2-1.1,0.4v3.2H75v-6.3l1.1-0.3v2.7
	c0.4-0.4,1-0.6,1.6-0.5c0.7,0,1.2,0.5,1.3,1.1c0,0.1,0,0.1,0,0.2v3.1L77.9,50.2L77.9,50.2z M74.2,49.7c-0.7,0.4-1.5,0.6-2.3,0.5
	c-1.9,0-3.4-1.5-3.4-3.4s1.5-3.4,3.4-3.4l0,0c0.8,0,1.5,0.1,2.2,0.5l-0.4,0.8c-0.6-0.3-1.2-0.4-1.8-0.4c-1.4,0.2-2.4,1.4-2.2,2.8
	c0.1,1.2,1.1,2.1,2.3,2.2c0.6,0,1.2-0.1,1.8-0.4L74.2,49.7z"/>
<path class="st6" d="M133.1,24.2c-0.2,0-0.4,0.1-0.5,0.2c-0.1,0.1-0.2,0.3-0.2,0.5c0,0.2,0.1,0.4,0.2,0.5c0.1,0.1,0.3,0.2,0.5,0.2
	h8.7c0.2,0,0.4-0.1,0.5-0.2c0.3-0.3,0.3-0.8,0-1.1c-0.1-0.1-0.3-0.2-0.5-0.2H133.1L133.1,24.2z M132,26.5c-0.2,0-0.4,0.1-0.5,0.2
	c-0.2,0.3-0.2,0.7,0,1c0.1,0.1,0.3,0.2,0.5,0.2h10.9c0.2,0,0.4-0.1,0.5-0.2c0.2-0.3,0.2-0.7,0-1c-0.1-0.1-0.3-0.2-0.5-0.2H132z
	 M133.1,28.9c-0.2,0-0.4,0.1-0.5,0.2c-0.1,0.1-0.2,0.3-0.2,0.5c0,0.2,0.1,0.4,0.2,0.5c0.1,0.1,0.3,0.2,0.5,0.2h8.7
	c0.4,0,0.7-0.3,0.7-0.7c0,0,0,0,0,0c0-0.2-0.1-0.4-0.2-0.5c-0.1-0.1-0.3-0.2-0.5-0.2H133.1L133.1,28.9z M133.1,31.2
	c-0.2,0-0.4,0.1-0.5,0.2c-0.1,0.1-0.2,0.3-0.2,0.5c0,0.2,0.1,0.4,0.2,0.5c0.1,0.1,0.3,0.2,0.5,0.2h8.7c0.2,0,0.4-0.1,0.5-0.2
	c0.1-0.1,0.2-0.3,0.2-0.5c0-0.2-0.1-0.4-0.2-0.5c-0.1-0.1-0.3-0.2-0.5-0.2L133.1,31.2L133.1,31.2z M134.1,35.1c-0.1,0-0.3,0-0.4,0.1
	c-0.1,0.1-0.1,0.2-0.1,0.3v1.6c0,0.1,0,0.2,0.1,0.3c0.1,0.1,0.2,0.1,0.4,0.1h6.6c0.1,0,0.3,0,0.4-0.1c0.1-0.1,0.1-0.2,0.1-0.3v-1.6
	c0-0.1,0-0.2-0.1-0.3c-0.1-0.1-0.2-0.1-0.4-0.1L134.1,35.1L134.1,35.1z M133.1,33.7h8.4c0.3,0,0.6,0.1,0.8,0.3
	c0.2,0.2,0.3,0.4,0.3,0.7v3.3c0,0.3-0.1,0.6-0.4,0.8c-0.2,0.2-0.5,0.3-0.8,0.4h-8.4c-0.3,0-0.5-0.1-0.7-0.3
	c-0.2-0.2-0.3-0.5-0.3-0.8v-3.3c0-0.3,0.1-0.5,0.3-0.7C132.6,33.8,132.9,33.7,133.1,33.7L133.1,33.7z M130.6,23.8
	c0.2,0,0.4,0.1,0.5,0.3c0.1,0.2,0.2,0.4,0.1,0.6c-0.2,1.1-0.5,2.2-0.9,3.3v10.4c0,0.4-0.3,0.8-0.7,0.8c0,0,0,0,0,0
	c-0.2,0-0.4-0.1-0.5-0.2c-0.1-0.2-0.2-0.4-0.2-0.6V31c-0.2,0.3-0.4,0.6-0.8,0.6c-0.2,0-0.4,0-0.5-0.2c-0.1-0.1-0.2-0.3-0.3-0.5
	c0-0.2,0.1-0.4,0.2-0.6c1.2-1.8,2-3.8,2.4-5.9c0-0.2,0.1-0.4,0.3-0.6C130.3,23.8,130.5,23.8,130.6,23.8L130.6,23.8z"/>
<path class="st6" d="M99.6,31.8v-0.2h-2.4V33h6c0.2,0,0.4,0.1,0.5,0.2c0.1,0.1,0.2,0.3,0.2,0.5c0,0.2-0.1,0.4-0.2,0.5
	c-0.1,0.1-0.3,0.2-0.5,0.2h-6v1.2h6.4c0.2,0,0.4,0.1,0.5,0.2c0.1,0.1,0.2,0.3,0.2,0.5c0,0.2-0.1,0.4-0.2,0.5
	c-0.1,0.1-0.3,0.2-0.5,0.2h-6.4v1.5c0,0.2-0.1,0.4-0.2,0.6c-0.1,0.1-0.3,0.2-0.6,0.2c-0.2,0-0.4-0.1-0.5-0.2
	c-0.1-0.2-0.2-0.4-0.2-0.6V37h-6.4c-0.2,0-0.4-0.1-0.5-0.2c-0.1-0.1-0.2-0.3-0.2-0.5c0-0.2,0.1-0.4,0.2-0.5c0.1-0.1,0.3-0.2,0.5-0.2
	h6.4v-1.2h-6c-0.2,0-0.4-0.1-0.5-0.2c-0.1-0.1-0.2-0.3-0.2-0.5c0-0.2,0.1-0.4,0.2-0.5c0.1-0.1,0.3-0.2,0.5-0.2h2.1v-1.4h-2.9
	c-0.2,0-0.4-0.1-0.5-0.2c-0.1-0.1-0.2-0.3-0.2-0.5c0-0.2,0.1-0.4,0.2-0.5c0.1-0.1,0.3-0.2,0.5-0.2h2.9V30c0-0.2,0.1-0.4,0.2-0.6
	c0.1-0.1,0.3-0.2,0.6-0.2c0.2,0,0.4,0.1,0.6,0.2c0.1,0.2,0.2,0.4,0.2,0.6v0.2h2.4v-1.4h-6c-0.2,0-0.4-0.1-0.5-0.2
	c-0.1-0.2-0.2-0.3-0.2-0.5c0-0.2,0.1-0.4,0.2-0.5c0.1-0.1,0.3-0.2,0.5-0.2h13.4c0.2,0,0.4,0.1,0.5,0.2c0.1,0.1,0.2,0.3,0.2,0.5
	c0,0.2-0.1,0.4-0.2,0.5c-0.1,0.1-0.3,0.2-0.5,0.2h-2.1v1.5h2.9c0.2,0,0.4,0,0.5,0.2c0.1,0.1,0.2,0.3,0.2,0.5c0,0.2-0.1,0.4-0.2,0.5
	c-0.1,0.1-0.3,0.2-0.5,0.2h-2.9v0.2c0,0.2-0.1,0.4-0.2,0.6c-0.1,0.1-0.3,0.2-0.6,0.2c-0.2,0-0.4-0.1-0.6-0.2
	C99.7,32.2,99.6,32,99.6,31.8C99.6,31.8,99.6,31.8,99.6,31.8z M97.3,28.7v1.5h2.4v-1.5L97.3,28.7L97.3,28.7z M93.4,31.6V33h2.4v-1.4
	H93.4z M104.3,25.4c0,0.2-0.1,0.4-0.2,0.5c-0.1,0.1-0.3,0.2-0.5,0.2h-3.5v0.1c0,0.2-0.1,0.4-0.2,0.6c-0.3,0.3-0.8,0.3-1.1,0
	c0,0,0,0,0,0c-0.1-0.2-0.2-0.4-0.2-0.6v0h-4.3v0.1c0,0.2-0.1,0.4-0.2,0.6C94,26.9,93.8,27,93.6,27c-0.2,0-0.4-0.1-0.6-0.2
	c-0.2-0.2-0.3-0.4-0.2-0.6v0h-3.4c-0.2,0-0.4-0.1-0.5-0.2c-0.1-0.1-0.2-0.3-0.2-0.5c0-0.2,0.1-0.4,0.2-0.5c0.1-0.1,0.3-0.2,0.5-0.2
	h3.4v-0.3c0-0.2,0.1-0.4,0.2-0.6c0.3-0.3,0.8-0.3,1.1,0c0.2,0.2,0.2,0.4,0.2,0.6v0.4h4.4v-0.4c0-0.2,0.1-0.4,0.2-0.6
	c0.1-0.1,0.3-0.2,0.6-0.2c0.2,0,0.4,0.1,0.5,0.2c0.1,0.2,0.2,0.4,0.2,0.6v0.4h3.5c0.2,0,0.4,0.1,0.5,0.2
	C104.3,25,104.3,25.2,104.3,25.4L104.3,25.4z"/>
<path class="st6" d="M82.2,27.1c0.1,0,0.3,0.1,0.4,0.2c0.1,0.1,0.1,0.2,0.1,0.4v6.8c0,0.1-0.1,0.2-0.2,0.3c-0.1,0.1-0.2,0.1-0.3,0.1
	h-5v-7.8H82.2z M70.3,34.8c-0.1-0.1-0.1-0.2-0.1-0.3v-6.8c0-0.1,0.1-0.3,0.2-0.4c0.1-0.1,0.2-0.2,0.3-0.1h5v7.8h-5
	C70.5,34.9,70.4,34.9,70.3,34.8z M75.8,23.8c-0.1,0.2-0.2,0.4-0.2,0.6v1.2H70c-0.4,0-0.7,0.2-1,0.4c-0.3,0.3-0.4,0.6-0.4,1v8
	c0,0.4,0.2,0.7,0.4,1c0.3,0.3,0.6,0.4,1,0.4h5.6v1.9c0,0.2,0.1,0.5,0.2,0.7c0.2,0.2,0.4,0.2,0.6,0.2c0.2,0,0.4-0.1,0.6-0.2
	c0.2-0.2,0.2-0.4,0.2-0.7v-1.8h5.5c0.4,0,0.7-0.2,1-0.5c0.3-0.3,0.4-0.6,0.4-1v-8c0-0.4-0.1-0.7-0.4-1c-0.3-0.3-0.6-0.4-1-0.4h-5.6
	v-1.2c0-0.2-0.1-0.4-0.2-0.6C76.7,23.5,76.1,23.5,75.8,23.8L75.8,23.8z"/>
<path class="st6" d="M122.9,37.8h-5.3c-0.2,0-0.4,0-0.6-0.2c-0.1-0.2-0.2-0.5-0.1-0.8h5c0.3,0,0.5-0.1,0.7-0.3
	c0.2-0.2,0.3-0.5,0.3-0.7v-3.5c0-0.2-0.1-0.5-0.3-0.6c-0.2-0.2-0.5-0.3-0.8-0.3h-11.7c-0.2,0-0.5,0.1-0.6,0.3
	c-0.2,0.2-0.3,0.4-0.2,0.6v3.5c0,0.3,0.1,0.5,0.2,0.7c0.2,0.2,0.4,0.3,0.6,0.3h5.2v0.5c0,0.5,0.2,1,0.6,1.3c0.3,0.2,0.7,0.4,1.1,0.3
	h5.8c0.3,0,0.6-0.3,0.6-0.6c0,0,0,0,0,0C123.5,38.1,123.3,37.8,122.9,37.8L122.9,37.8z M121.5,34.8v0.5c0,0.1,0,0.2-0.1,0.3
	c-0.1,0.1-0.2,0.1-0.3,0.1h-4.2v-0.9L121.5,34.8L121.5,34.8z M121.1,32.7c0.1,0,0.2,0,0.3,0.1c0.1,0.1,0.1,0.2,0.1,0.3v0.5h-4.6v-1
	L121.1,32.7L121.1,32.7z M115.4,34.8v0.9h-4.2c-0.1,0-0.2,0-0.3-0.1c-0.1-0.1-0.1-0.2-0.1-0.3v-0.6L115.4,34.8L115.4,34.8z
	 M110.8,33c0-0.1,0-0.2,0.1-0.3c0.1-0.1,0.2-0.1,0.3-0.1h4.2v0.9h-4.6V33z"/>
<path class="st6" d="M113.4,28.1c0.1,0,0.3,0,0.4,0.1c0.1,0.1,0.1,0.2,0.1,0.4c0,0.1,0,0.3-0.1,0.4c-0.1,0.1-0.2,0.2-0.4,0.2h-2.7
	c-0.1,0-0.3-0.1-0.4-0.2c-0.1-0.1-0.2-0.2-0.2-0.4c0-0.1,0.1-0.3,0.2-0.4c0.1-0.1,0.2-0.1,0.4-0.1H113.4z"/>
<path class="st6" d="M114.3,29.8c0.1,0,0.3,0,0.4,0.1c0.1,0.1,0.2,0.2,0.2,0.4c0,0.1-0.1,0.3-0.2,0.4c-0.1,0.1-0.2,0.2-0.4,0.2h-2.7
	c-0.2,0-0.3-0.1-0.4-0.2c-0.1-0.1-0.1-0.2-0.1-0.4c0-0.1,0-0.3,0.1-0.4c0.1-0.1,0.3-0.1,0.4-0.1H114.3z"/>
<path class="st6" d="M120.7,28.1c0.1,0,0.3,0,0.4,0.1c0.1,0.1,0.1,0.2,0.1,0.4c0,0.1,0,0.3-0.1,0.4c-0.1,0.1-0.2,0.2-0.4,0.2H118
	c-0.2,0-0.3-0.1-0.4-0.2c-0.1-0.1-0.2-0.2-0.2-0.4c0-0.1,0.1-0.3,0.2-0.4c0.1-0.1,0.3-0.1,0.4-0.1H120.7z"/>
<path class="st6" d="M121.6,29.8c0.1,0,0.3,0,0.4,0.1c0.1,0.1,0.1,0.2,0.1,0.4c0,0.1,0,0.3-0.1,0.4c-0.1,0.1-0.2,0.2-0.4,0.2h-2.7
	c-0.2,0-0.3,0-0.4-0.2c-0.1-0.1-0.2-0.2-0.2-0.4c0-0.1,0.1-0.3,0.2-0.4c0.1-0.1,0.3-0.2,0.4-0.1H121.6z"/>
<path class="st6" d="M122.5,27.5c0.1,0,0.2,0,0.2,0.1c0.1,0.1,0.1,0.2,0.1,0.3v2.2c0,0.2,0.1,0.4,0.2,0.6c0.1,0.1,0.3,0.2,0.5,0.2
	c0.2,0,0.4-0.1,0.5-0.2c0.1-0.2,0.2-0.4,0.2-0.6v-2.7c0-0.3-0.1-0.6-0.3-0.9c-0.2-0.2-0.5-0.4-0.8-0.4h-6.2v-0.8h5.3
	c0.2,0,0.3-0.1,0.4-0.2c0.1-0.1,0.2-0.3,0.2-0.5c0-0.2-0.1-0.3-0.2-0.5c-0.1-0.1-0.3-0.2-0.4-0.2h-12c-0.2,0-0.3,0.1-0.5,0.2
	c-0.1,0.1-0.2,0.3-0.2,0.5c0,0.2,0.1,0.3,0.2,0.5c0.1,0.1,0.3,0.2,0.5,0.2h5.3v0.8h-6.2c-0.3,0-0.6,0.1-0.8,0.4
	c-0.2,0.2-0.4,0.5-0.3,0.9v2.7c0,0.2,0.1,0.4,0.2,0.6c0.1,0.1,0.3,0.2,0.5,0.2c0.2,0,0.4-0.1,0.5-0.2c0.2-0.2,0.2-0.4,0.2-0.6v-2.2
	c0-0.1,0-0.2,0.1-0.3c0.1-0.1,0.1-0.1,0.2-0.1h5.6v2.8c0,0.2,0.1,0.4,0.2,0.6c0.1,0.1,0.3,0.2,0.5,0.2c0.2,0,0.4-0.1,0.5-0.2
	c0.1-0.2,0.2-0.4,0.2-0.6v-2.8H122.5L122.5,27.5z"/>
<path class="st2" d="M20.7,281c-2.9-2.8-13.2-9.7-18.9-9v28.7h27.7C31.2,295.3,23.7,284,20.7,281z"/>
<path class="st2" d="M2.1,128.8H1.7v31.7H2c38.2,2.5,70.1,14.5,97.6,41.8s39.5,59.2,41.9,97.2c0,0.4,0.1,0.7,0.2,1.1h31.5
	c0.1-0.4,0.2-0.8,0.2-1.2c-0.2-44.2-20.1-88.5-51.3-119.6S46.6,129,2.1,128.8z"/>
<path class="st2" d="M125.5,299.5c0-31.4-15.1-63.8-37.2-85.8s-54.6-37-86.2-37H1.8v31c9.1,1.4,41.1,5.8,64,28.5
	c19,19,24.6,37.8,27.8,63.5c0.1,0.4,0.2,0.7,0.3,1.1h31.4C125.4,300.3,125.5,299.9,125.5,299.5z"/>
<path class="st2" d="M77.8,299.4c-0.1-18.7-10.2-39.1-23.3-52.1s-33.6-23.1-52.4-23.2H1.7v31.5c5.6,1.2,19.6,3.6,30.2,14.2
	c11.1,11,13.3,26,14.4,30.9h31.2C77.7,300.3,77.8,299.9,77.8,299.4z"/>
<rect x="1.1" y="1" class="st7" width="461.9" height="300"/>
<path class="st8" d="M146.5,193.3h-11.3v-74.4c-3.2,3-6.7,5.7-10.4,8c-3.8,2.4-7.8,4.5-12,6.1v-11.3c6-2.9,11.5-6.6,16.4-11.1
	c4.8-4.4,8.1-8.6,10-12.8h7.3L146.5,193.3L146.5,193.3z"/>
<path class="st8" d="M175.3,168.4l11.8-1c0.9,6.1,3,10.6,6.2,13.5c3,2.9,7.1,4.5,11.2,4.4c5.3,0,10.3-2.3,13.8-6.3
	c3.9-4.2,5.8-9.9,5.8-17.1c0-6.8-1.9-12.1-5.6-15.8c-3.7-3.7-8.8-5.8-14.1-5.6c-3.3,0-6.6,0.8-9.6,2.4c-2.9,1.6-5.4,3.9-7.1,6.8
	l-10.6-1.4l8.9-48.8h45.5v11.2h-36.6l-4.9,25.6c5-3.8,11-5.9,17.3-6c7.5-0.1,14.7,3,20,8.3c5.7,5.6,8.5,13.1,8.5,22.5
	c0.2,8.7-2.8,17.3-8.5,23.9c-5.7,6.7-13.3,10-22.8,10c-7.9,0-14.6-2.3-20.1-7C179.2,183.3,176.1,176.8,175.3,168.4z"/>
<path class="st2" d="M146.2,193.3h-11.3v-74.4c-3.2,3-6.7,5.7-10.4,7.9c-3.8,2.4-7.8,4.5-12,6.1v-11.3c6-2.9,11.5-6.6,16.4-11.1
	c4.8-4.4,8.1-8.6,10-12.8h7.3L146.2,193.3L146.2,193.3z"/>
<path class="st2" d="M175,168.4l11.8-1c0.9,6.1,3,10.6,6.2,13.5c3,2.9,7.1,4.5,11.2,4.4c5.3,0,10.3-2.3,13.8-6.3
	c3.8-4.2,5.8-9.9,5.8-17.1c0-6.8-1.9-12.1-5.6-15.8c-3.7-3.7-8.8-5.8-14.1-5.6c-3.3,0-6.6,0.8-9.6,2.4c-2.9,1.6-5.3,3.9-7,6.8
	l-10.6-1.4l8.9-48.8h45.5v11.2h-36.7l-4.9,25.6c5-3.8,11-5.9,17.3-6c7.5-0.1,14.7,3,20,8.3c5.7,5.6,8.5,13.1,8.5,22.5
	c0.2,8.7-2.8,17.3-8.5,23.9c-5.7,6.7-13.3,10-22.8,10c-7.9,0-14.6-2.3-20.1-7C178.8,183.3,175.7,176.8,175,168.4z"/>
<g>
	<path class="st2" d="M197.7,282.6h-1.6v-10.1c-0.4,0.4-0.9,0.7-1.5,1.1s-1.2,0.6-1.7,0.8v-1.5c0.9-0.4,1.7-0.9,2.3-1.5
		s1.1-1.2,1.4-1.7h1V282.6z"/>
	<path class="st2" d="M201.7,279.2l1.7-0.1c0.1,0.8,0.4,1.4,0.9,1.8s1,0.6,1.6,0.6c0.8,0,1.4-0.3,1.9-0.9s0.8-1.3,0.8-2.3
		c0-0.9-0.3-1.6-0.8-2.1s-1.2-0.8-2-0.8c-0.5,0-1,0.1-1.4,0.3c-0.4,0.2-0.7,0.5-1,0.9l-1.5-0.2l1.2-6.6h6.4v1.5h-5.1l-0.7,3.5
		c0.8-0.5,1.6-0.8,2.4-0.8c1.1,0,2.1,0.4,2.8,1.2s1.2,1.8,1.2,3c0,1.2-0.3,2.2-1,3c-0.8,1-2,1.6-3.4,1.6c-1.2,0-2.1-0.3-2.9-1
		S201.8,280.3,201.7,279.2z"/>
</g>
</svg>
