<svg id="圖層_1" data-name="圖層 1" xmlns="http://www.w3.org/2000/svg" viewBox="0 0 464 302"><defs><style>.cls-1,.cls-7{fill:#fff;}.cls-1,.cls-12{stroke:#ccc;stroke-linecap:round;stroke-linejoin:round;stroke-width:2px;}.cls-2{fill:#040000;}.cls-3,.cls-5{fill:#4a92bc;}.cls-3,.cls-4,.cls-8,.cls-9{fill-rule:evenodd;}.cls-4{fill:#6d6d6f;}.cls-11,.cls-6{fill:#4d92c0;}.cls-8{fill:#0e64a0;}.cls-10,.cls-9{fill:#221714;}.cls-11{stroke:#fff;stroke-miterlimit:10;stroke-width:16px;}.cls-12{fill:none;}</style></defs><title>3day</title><rect class="cls-1" x="1" y="1" width="462" height="300"/><path class="cls-2" d="M379.53,180.72l5.78-.86a7,7,0,0,0,1.48,4.11,3.74,3.74,0,0,0,6.05-.27,7.59,7.59,0,0,0,1.27-4.67,7,7,0,0,0-1.22-4.36,3.64,3.64,0,0,0-3-1.58,8.63,8.63,0,0,0-2.73.54l0.65-5.94a4.93,4.93,0,0,0,3.67-1.24,4.86,4.86,0,0,0,1.33-3.65,4.56,4.56,0,0,0-1-3.08,3.12,3.12,0,0,0-2.47-1.11,3.35,3.35,0,0,0-2.61,1.28,6.55,6.55,0,0,0-1.31,3.8L380,162.56q0.86-5.21,3.35-7.57a8.77,8.77,0,0,1,6.28-2.36,8.31,8.31,0,0,1,6.76,3,10.29,10.29,0,0,1,2.5,6.71,9,9,0,0,1-1.13,4.48,10.4,10.4,0,0,1-3.38,3.5,7.4,7.4,0,0,1,4.26,3.09,10.27,10.27,0,0,1,1.65,6,12.34,12.34,0,0,1-3.1,8.63,9.65,9.65,0,0,1-7.38,3.41,9.39,9.39,0,0,1-6.94-2.87A12.39,12.39,0,0,1,379.53,180.72Z" transform="translate(-0.22 0)"/><path class="cls-2" d="M411.39,152.63q4.53,0,7.33,4.32t2.8,15.1q0,10.76-2.8,15.07t-7.31,4.32a8.45,8.45,0,0,1-7.33-4.28q-2.8-4.28-2.8-15.19,0-10.71,2.8-15T411.39,152.63Zm0,6q-1.77,0-2.82,2.33t-1.05,11q0,8.71,1.05,11t2.82,2.32q1.79,0,2.83-2.33t1-11q0-8.71-1-11T411.41,158.67Z" transform="translate(-0.22 0)"/><path class="cls-2" d="M432.94,152.63q4.53,0,7.33,4.32t2.8,15.1q0,10.76-2.8,15.07T433,191.43a8.45,8.45,0,0,1-7.33-4.28q-2.8-4.28-2.8-15.19,0-10.71,2.8-15T432.94,152.63Zm0,6q-1.77,0-2.82,2.33t-1.05,11q0,8.71,1.05,11t2.82,2.32q1.79,0,2.83-2.33t1-11q0-8.71-1-11T433,158.67Z" transform="translate(-0.22 0)"/><path class="cls-2" d="M337.49,186.73v-17.9h2.81l5.85,12v-12h2.68v17.9h-2.9l-5.77-11.67v11.67h-2.68Z" transform="translate(-0.22 0)"/><path class="cls-2" d="M354.61,186.73V171.86h-4.24v-3h11.37v3H357.5v14.87h-2.89Z" transform="translate(-0.22 0)"/><path class="cls-2" d="M366.41,184.08V179a5.33,5.33,0,0,1-2.8-2.07,6.08,6.08,0,0,1-.89-3.36,5.49,5.49,0,0,1,1-3.36,3.8,3.8,0,0,1,2.69-1.57v-1.21h1.42v1.21a3.84,3.84,0,0,1,2.47,1.33,5.65,5.65,0,0,1,1.17,2.92l-2.47.4a2.48,2.48,0,0,0-1.17-2v4.77a6,6,0,0,1,3.19,2.06,5.7,5.7,0,0,1,.85,3.24,6.3,6.3,0,0,1-1.07,3.72,4.45,4.45,0,0,1-3,1.86v2.28h-1.42V187a4.2,4.2,0,0,1-2.74-1.58,7.3,7.3,0,0,1-1.35-3.72l2.55-.34a4.61,4.61,0,0,0,.58,1.68A2.94,2.94,0,0,0,366.41,184.08Zm0-12.82a1.91,1.91,0,0,0-.92.83,2.52,2.52,0,0,0-.34,1.29,2.41,2.41,0,0,0,.31,1.2,2.29,2.29,0,0,0,.95.9v-4.22Zm1.42,13a1.94,1.94,0,0,0,1.19-.85,2.77,2.77,0,0,0,.46-1.59,2.53,2.53,0,0,0-.38-1.41,2.42,2.42,0,0,0-1.26-.91v4.76Z" transform="translate(-0.22 0)"/><path class="cls-3" d="M279.84,242.51H290.6v2.13H279.84v-2.13Zm-1.74,6.67h13.46v2H287.4v9.5a2.31,2.31,0,0,1-1,2.06q-0.82.67-4.14,0.67l-1-2.43h2.35c0.82,0,1.26-.23,1.31-0.67v-9.13H278.1v-2Zm-2.63-8,2,0.67a0.42,0.42,0,0,1,.37.3,0.47,0.47,0,0,1-.2.3,4.62,4.62,0,0,0-1.54,1.31,24.74,24.74,0,0,1-4.56,3.62l-2.13-1.17A19.91,19.91,0,0,0,275.48,241.14Zm1.26,4.66,2,0.67a0.39,0.39,0,0,1,.37.3,0.47,0.47,0,0,1-.2.27,6.22,6.22,0,0,0-2,2.11c-0.43.57-.88,1.1-1.34,1.61v12.47h-2.33V253.14q-1,.94-2.11,1.86L269,253.84A27.89,27.89,0,0,0,276.74,245.81Z" transform="translate(-0.22 0)"/><path class="cls-3" d="M305,253.84v-1.26h-2.63v1.26H305Zm-2.63-4.07V251H305v-1.27h-2.63Zm-2,4.07v-1.26h-2.7v1.26h2.7Zm-2.7-2.8h2.7v-1.27h-2.7V251Zm8.43-8.16a4.5,4.5,0,0,0-1,.2,26.29,26.29,0,0,1-2.65.5V245h5.13v1.86h-5.13V248H307v7.54h-4.66v1.26h4.46v1.83h-4.46v1.39q2.45-.22,4.83-0.52v1.14a14.87,14.87,0,0,0,1.46-3,28.42,28.42,0,0,0,1.09-5.13q0.2-1.61.3-4.86h-2v-2h2c0-1.35,0-2.87,0-4.56l2,0.1c0.35,0,.52.08,0.52,0.2a0.93,0.93,0,0,1-.37.47c0,1.36,0,2.62,0,3.79h4.38a114,114,0,0,1-.42,12.94,6.22,6.22,0,0,1-1.14,3.57,4.18,4.18,0,0,1-3.17,1l-1.06-2.23q2.26,0,2.68-.59a5.11,5.11,0,0,0,.62-2.28,87.77,87.77,0,0,0,.37-10.39h-2.31a58.12,58.12,0,0,1-.45,6,30,30,0,0,1-1.09,5.11,18,18,0,0,1-2.16,4.51L306.33,262l0.37-.49q-3.6.49-10.73,1.26a0.68,0.68,0,0,1-.47.4,0.31,0.31,0,0,1-.27-0.35l-0.52-2.18c1.9-.1,3.78-0.22,5.63-0.37v-1.56h-4.66v-1.83h4.66v-1.26H295.6V248h4.73v-1.17h-5.43V245h5.43V243.8q-2,.15-4.34.15l-0.89-1.83h2.7a24,24,0,0,0,7.66-1.17l1.59,1.64a0.45,0.45,0,0,1,.15.39c0,0.13,0,.2-0.07.2a0.88,0.88,0,0,1-.52-0.17A2.73,2.73,0,0,0,306.06,242.88Z" transform="translate(-0.22 0)"/><path class="cls-3" d="M329.26,240.85l2.25,0.17c0.43,0,.65.14,0.65,0.32a1.23,1.23,0,0,1-.5.67v5.93h8.73v2.13h-8.73v9.67h10.66V262H320.64v-2.23h8.63V240.85Z" transform="translate(-0.22 0)"/><path class="cls-3" d="M362.05,252h3.67v-2.53h-3.67V252Zm-5.33,0h3.4v-2.53h-3.4V252Zm0-4.26h1.81a18.42,18.42,0,0,0-1.34-2.83l1.76-.37a16.14,16.14,0,0,1,1.46,3.2h1.46l1.24-3.2,1.51,0.3c0.28,0,.42.14,0.42,0.28a0.86,0.86,0,0,1-.4.59l-0.87,2h1.94v-4h-9v4ZM350,240.95l1.59,0.84a0.51,0.51,0,0,1,.35.32,0.61,0.61,0,0,1-.37.49l-2.35,3.23q0.72,0.52,1.39,1l1.64-2.43,1.59,1a0.51,0.51,0,0,1,.24.42c0,0.13-.16.23-0.47,0.28l-3.94,5.43c0.89-.07,1.77-0.15,2.63-0.25-0.13-.41-0.27-0.82-0.42-1.22l1.84-.37a23.39,23.39,0,0,1,1,2.88V241.91h13V261.1a1.77,1.77,0,0,1-1.46,1.81,8.68,8.68,0,0,1-2.3.32l-0.76-1.93,1.83-.05a0.67,0.67,0,0,0,.77-0.72v-6.69h-5.43v2.7c0,0.2.17,0.3,0.5,0.3h4.26v1.73h-5.23q-1.47,0-1.46-1.14v-3.6h-1.64v9.4h-2v-2.55L353,261a41.39,41.39,0,0,0-1.14-5.13l1.94-.4q0.52,1.76.86,3.44V254l-1.56.32c-0.1-.43-0.2-0.85-0.3-1.26l-1.34.2v10h-2v-9.72l-2.43.32a0.67,0.67,0,0,1-.47.4c-0.13,0-.22-0.12-0.25-0.35l-0.45-2,1.49-.1,2.15-3.22q-2-1.54-3.64-2.68l1.16-1.56,0.67,0.42Zm-3.1,14.53,1.86,0.52a0.25,0.25,0,0,1,.27.27,0.87,0.87,0,0,1-.37.57,30.61,30.61,0,0,1-1.16,4.76l-1.93-.69a10.75,10.75,0,0,0,.72-2.11A24.4,24.4,0,0,0,346.93,255.48Z" transform="translate(-0.22 0)"/><path class="cls-3" d="M382.06,247.94h4.84v-7l2.21,0.17q0.62,0,.62.32a1.15,1.15,0,0,1-.5.57v5.93h4.66v2.13h-4.66v13.17h-2.33V250.07h-4.84v-2.13Zm-7.73,12.2h4.83v-2.68h-4.83v2.68ZM372.76,252h7.93v1.83h-7.93V252Zm0-3.3h7.93v1.83h-7.93v-1.83Zm0-7.07h7.93v1.93h-7.93v-1.93Zm-0.67,13.83h9.3v7.36h-2.23v-0.77h-4.83v1.36h-2.23v-8Zm-0.79-10.27h10.46v2H371.3v-2Z" transform="translate(-0.22 0)"/><path class="cls-3" d="M402,258.48h12.69v-6.1H402v6.1Zm0-8.13h12.69v-6.1H402v6.1Zm-2.31-8.23H417v20.63h-2.33v-2.13H402v2.13h-2.31V242.11Z" transform="translate(-0.22 0)"/><path class="cls-3" d="M441.54,240.75l2.33,0.3a0.34,0.34,0,0,1,.37.3,0.91,0.91,0,0,1-.57.57v9.59a2.61,2.61,0,0,1-.79,2.11c-0.45.46-1.57,0.69-3.37,0.69l-0.87-2.11h1.86a1,1,0,0,0,1-1.07V240.75ZM436.71,242l2,0.17c0.37,0,.54.14,0.54,0.32a0.91,0.91,0,0,1-.37.47v8.16h-2.14V242Zm-6.59,5.13V243.8h-2.43v3.35h2.43Zm-5.33,8.53h7.76v-3.1l2,0.17c0.38,0,.57.13,0.57,0.32a1.16,1.16,0,0,1-.37.57v2h7.74v2h-7.74v2.83h10v2H422.56v-2h10V257.7h-7.76v-2Zm-1.26-13.86h10.86v2h-2.23v3.35h3.1v1.93h-3.1v4.86h-2v-4.86h-2.7a10.19,10.19,0,0,1-.54,1.68,9.76,9.76,0,0,1-2.56,3.47l-2.06-1.07a8.05,8.05,0,0,0,2.53-2.85,7.63,7.63,0,0,0,.52-1.24h-2.65v-1.93h3V243.8h-2.13v-2Z" transform="translate(-0.22 0)"/><path class="cls-4" d="M296.08,54.13V47.67l-4.55,6.45h4.55Zm0,5V55.73h-6.31V54.13l6.64-9.27h1.46v9.27h2v1.61h-2v3.43h-1.79Z" transform="translate(-0.22 0)"/><path class="cls-4" d="M309.8,53.55V51.87H316v5.31A10.81,10.81,0,0,1,313,58.84a8.68,8.68,0,0,1-3.1.56,8.4,8.4,0,0,1-3.89-.9,6,6,0,0,1-2.64-2.61,8.09,8.09,0,0,1-.89-3.82,8.76,8.76,0,0,1,.89-3.9,5.89,5.89,0,0,1,2.56-2.69,8.13,8.13,0,0,1,3.84-.88,7.67,7.67,0,0,1,2.85.5,4.7,4.7,0,0,1,2,1.4,6.06,6.06,0,0,1,1.1,2.34l-1.74.47a5.18,5.18,0,0,0-.81-1.72,3.27,3.27,0,0,0-1.39-1,5.17,5.17,0,0,0-2-.38,6,6,0,0,0-2.28.4,4.28,4.28,0,0,0-1.55,1,5,5,0,0,0-.91,1.42,7.4,7.4,0,0,0-.56,2.88,6.9,6.9,0,0,0,.67,3.2,4.25,4.25,0,0,0,1.95,1.91,6.15,6.15,0,0,0,2.72.63,6.55,6.55,0,0,0,2.44-.47,6.36,6.36,0,0,0,1.81-1V53.55H309.8Z" transform="translate(-0.22 0)"/><path class="cls-4" d="M327.59,51.65h3.76A4,4,0,0,0,334,51a2.42,2.42,0,0,0,.78-1.92,2.54,2.54,0,0,0-.46-1.54,2.15,2.15,0,0,0-1.21-.84,8.35,8.35,0,0,0-1.8-.13h-3.72v5.12Zm-1.93,7.51V44.85h5.49a13.08,13.08,0,0,1,2.21.14,4.41,4.41,0,0,1,1.8.67A3.44,3.44,0,0,1,336.32,47a4.26,4.26,0,0,1,.44,2,4.35,4.35,0,0,1-1.18,3.09c-0.79.85-2.21,1.27-4.27,1.27h-3.73v5.82h-1.93Z" transform="translate(-0.22 0)"/><path class="cls-4" d="M339.58,59.16V48.79h1.61v1.57a4.23,4.23,0,0,1,1.14-1.45,2,2,0,0,1,1.15-.35,3.56,3.56,0,0,1,1.84.57l-0.61,1.63a2.6,2.6,0,0,0-1.31-.38,1.73,1.73,0,0,0-1.05.35,1.86,1.86,0,0,0-.66,1,6.79,6.79,0,0,0-.3,2v5.43h-1.79Z" transform="translate(-0.22 0)"/><path class="cls-4" d="M348.33,53h5.88a3.48,3.48,0,0,0-.67-2,2.76,2.76,0,0,0-2.21-1,2.84,2.84,0,0,0-2.07.81A3.18,3.18,0,0,0,348.33,53Zm5.87,2.84L356,56a4.46,4.46,0,0,1-1.62,2.47,4.94,4.94,0,0,1-3,.88,4.86,4.86,0,0,1-3.67-1.4,5.42,5.42,0,0,1-1.35-3.93A5.67,5.67,0,0,1,347.75,50a4.68,4.68,0,0,1,3.55-1.44A4.55,4.55,0,0,1,354.76,50a5.57,5.57,0,0,1,1.34,4c0,0.1,0,.26,0,0.47h-7.86a3.92,3.92,0,0,0,1,2.62,2.93,2.93,0,0,0,2.2.91,2.78,2.78,0,0,0,1.68-.51A3.39,3.39,0,0,0,354.19,55.82Z" transform="translate(-0.22 0)"/><path class="cls-4" d="M360.51,54a4.44,4.44,0,0,0,.82,3,2.52,2.52,0,0,0,2,1,2.6,2.6,0,0,0,2-1,4.65,4.65,0,0,0,.85-3.07,4.53,4.53,0,0,0-.83-3,2.51,2.51,0,0,0-2-1,2.59,2.59,0,0,0-2,1A4.66,4.66,0,0,0,360.51,54Zm-1.62,9.1V48.79h1.63v1.35a3.93,3.93,0,0,1,1.3-1.18,3.58,3.58,0,0,1,1.75-.4,4.12,4.12,0,0,1,3.94,2.61A7,7,0,0,1,368,53.9a6.84,6.84,0,0,1-.58,2.87,4.42,4.42,0,0,1-4,2.63,3.35,3.35,0,0,1-1.6-.37,3.65,3.65,0,0,1-1.17-.94v5h-1.79Z" transform="translate(-0.22 0)"/><path class="cls-4" d="M377.53,54a13.54,13.54,0,0,1-2.92.66,6.53,6.53,0,0,0-1.56.35,1.54,1.54,0,0,0-.7.57,1.46,1.46,0,0,0-.25.83,1.48,1.48,0,0,0,.54,1.17,2.34,2.34,0,0,0,1.58.47,3.74,3.74,0,0,0,1.84-.44,2.77,2.77,0,0,0,1.18-1.22,4.24,4.24,0,0,0,.29-1.76V54Zm0.15,3.92a6.83,6.83,0,0,1-1.91,1.17,5.54,5.54,0,0,1-2,.34,3.86,3.86,0,0,1-2.67-.83,2.73,2.73,0,0,1-.93-2.13,2.77,2.77,0,0,1,.35-1.39,2.9,2.9,0,0,1,.92-1,4.34,4.34,0,0,1,1.29-.58,12.33,12.33,0,0,1,1.59-.26,16.82,16.82,0,0,0,3.18-.61V52.12a1.92,1.92,0,0,0-.51-1.51,3,3,0,0,0-2-.59,3.18,3.18,0,0,0-1.86.43,2.61,2.61,0,0,0-.89,1.54l-1.74-.23a4.16,4.16,0,0,1,.78-1.78,3.41,3.41,0,0,1,1.58-1,7.12,7.12,0,0,1,2.39-.37,6.43,6.43,0,0,1,2.19.31,2.92,2.92,0,0,1,1.24.79,2.77,2.77,0,0,1,.56,1.19,9.74,9.74,0,0,1,.09,1.62v2.34a24.16,24.16,0,0,0,.11,3.1,3.77,3.77,0,0,0,.45,1.25H378A3.58,3.58,0,0,1,377.68,57.88Z" transform="translate(-0.22 0)"/><path class="cls-4" d="M382.72,59.16V48.79h1.79V59.16h-1.79Zm0-12.29v-2h1.79v2h-1.79Z" transform="translate(-0.22 0)"/><path class="cls-4" d="M389,54a4.48,4.48,0,0,0,.85,3,2.58,2.58,0,0,0,2,1,2.54,2.54,0,0,0,2-.94,4.3,4.3,0,0,0,.82-2.87,4.82,4.82,0,0,0-.83-3.12,2.58,2.58,0,0,0-2.05-1,2.48,2.48,0,0,0-2,1A4.68,4.68,0,0,0,389,54Zm5.64,5.18V57.85a3.28,3.28,0,0,1-2.95,1.54,4.22,4.22,0,0,1-2.32-.68,4.5,4.5,0,0,1-1.64-1.91,6.5,6.5,0,0,1-.58-2.82,7.34,7.34,0,0,1,.52-2.82,4.09,4.09,0,0,1,1.58-1.94,4.27,4.27,0,0,1,2.35-.67,3.53,3.53,0,0,1,1.7.4,3.45,3.45,0,0,1,1.21,1V44.85h1.78V59.16h-1.66Z" transform="translate(-0.22 0)"/><path class="cls-4" d="M412.88,55.37l1.76,0.22a4.41,4.41,0,0,1-1.47,2.8,4.33,4.33,0,0,1-2.91,1A4.57,4.57,0,0,1,406.77,58a5.6,5.6,0,0,1-1.31-4,7.12,7.12,0,0,1,.57-2.94,3.9,3.9,0,0,1,1.72-1.89,5.18,5.18,0,0,1,2.52-.63,4.42,4.42,0,0,1,2.81.85,3.9,3.9,0,0,1,1.4,2.43l-1.74.26a2.81,2.81,0,0,0-.88-1.57,2.29,2.29,0,0,0-1.52-.53,2.79,2.79,0,0,0-2.19,1,4.46,4.46,0,0,0-.85,3,4.62,4.62,0,0,0,.81,3,2.68,2.68,0,0,0,2.13.95,2.5,2.5,0,0,0,1.75-.63A3.1,3.1,0,0,0,412.88,55.37Z" transform="translate(-0.22 0)"/><path class="cls-4" d="M423.5,54a13.49,13.49,0,0,1-2.92.66A6.5,6.5,0,0,0,419,55a1.55,1.55,0,0,0-.71.57,1.45,1.45,0,0,0-.25.83,1.47,1.47,0,0,0,.54,1.17,2.33,2.33,0,0,0,1.58.47,3.74,3.74,0,0,0,1.84-.44,2.78,2.78,0,0,0,1.18-1.22,4.24,4.24,0,0,0,.29-1.76V54Zm0.15,3.92a6.78,6.78,0,0,1-1.91,1.17,5.54,5.54,0,0,1-2,.34,3.87,3.87,0,0,1-2.67-.83,2.73,2.73,0,0,1-.93-2.13,2.77,2.77,0,0,1,.35-1.39,2.85,2.85,0,0,1,.92-1,4.29,4.29,0,0,1,1.28-.58,12.43,12.43,0,0,1,1.59-.26,16.82,16.82,0,0,0,3.18-.61V52.12a1.92,1.92,0,0,0-.51-1.51,3,3,0,0,0-2-.59,3.17,3.17,0,0,0-1.86.43,2.61,2.61,0,0,0-.89,1.54l-1.74-.23a4.2,4.2,0,0,1,.78-1.78,3.41,3.41,0,0,1,1.58-1,7.14,7.14,0,0,1,2.39-.37,6.42,6.42,0,0,1,2.19.31,2.92,2.92,0,0,1,1.24.79,2.8,2.8,0,0,1,.56,1.19,9.74,9.74,0,0,1,.09,1.62v2.34a24.16,24.16,0,0,0,.11,3.1,3.85,3.85,0,0,0,.45,1.25H424A3.58,3.58,0,0,1,423.65,57.88Z" transform="translate(-0.22 0)"/><path class="cls-4" d="M428.67,59.16V48.79h1.61v1.57a4.23,4.23,0,0,1,1.14-1.45,2,2,0,0,1,1.15-.35,3.56,3.56,0,0,1,1.84.57l-0.61,1.63a2.59,2.59,0,0,0-1.31-.38,1.73,1.73,0,0,0-1.05.35,1.87,1.87,0,0,0-.66,1,6.79,6.79,0,0,0-.3,2v5.43h-1.79Z" transform="translate(-0.22 0)"/><path class="cls-4" d="M437.26,54a4.46,4.46,0,0,0,.85,3,2.58,2.58,0,0,0,2,1,2.55,2.55,0,0,0,2-.94,4.32,4.32,0,0,0,.81-2.87A4.82,4.82,0,0,0,442.1,51,2.58,2.58,0,0,0,440,50a2.48,2.48,0,0,0-2,1A4.64,4.64,0,0,0,437.26,54Zm5.65,5.18V57.85A3.29,3.29,0,0,1,440,59.4a4.2,4.2,0,0,1-2.32-.68A4.52,4.52,0,0,1,436,56.8a6.5,6.5,0,0,1-.58-2.82,7.29,7.29,0,0,1,.52-2.82,4.09,4.09,0,0,1,1.58-1.94,4.25,4.25,0,0,1,2.35-.67A3.55,3.55,0,0,1,442.78,50V44.85h1.78V59.16H442.9Z" transform="translate(-0.22 0)"/><path class="cls-4" d="M335.5,31.19V23.13l-5.7,8.07h5.7Zm0,6.3V33.2h-7.89v-2l8.29-11.59h1.83V31.19h2.46v2h-2.46v4.29H335.5Z" transform="translate(-0.22 0)"/><path class="cls-4" d="M351.88,30.47v-2.1h7.71V35a13.72,13.72,0,0,1-3.66,2.09,11.07,11.07,0,0,1-3.87.7,10.48,10.48,0,0,1-4.87-1.13,7.53,7.53,0,0,1-3.31-3.27,10.15,10.15,0,0,1-1.11-4.77,10.93,10.93,0,0,1,1.11-4.88,7.34,7.34,0,0,1,3.19-3.36,10.18,10.18,0,0,1,4.8-1.1,9.63,9.63,0,0,1,3.56.63,5.84,5.84,0,0,1,2.5,1.75,7.72,7.72,0,0,1,1.38,2.93l-2.17.59a6.45,6.45,0,0,0-1-2.15,4.13,4.13,0,0,0-1.74-1.25,6.41,6.41,0,0,0-2.51-.47,7.54,7.54,0,0,0-2.85.49,5.35,5.35,0,0,0-1.94,1.3,6.21,6.21,0,0,0-1.15,1.77,9.16,9.16,0,0,0-.7,3.6,8.7,8.7,0,0,0,.83,4,5.35,5.35,0,0,0,2.44,2.39,7.67,7.67,0,0,0,3.4.78,8.19,8.19,0,0,0,3-.59,7.92,7.92,0,0,0,2.26-1.26V30.47h-5.35Z" transform="translate(-0.22 0)"/><path class="cls-4" d="M390.35,31.69H383.8v2h6.55v-2Zm0-1.85V27.9H383.8v1.95h6.55Zm0-3.8V24.1H383.8V26h6.55ZM393.52,18V19.9H388.3l-0.71,2.25h4.95V35.62h-2a11.62,11.62,0,0,0,3.79,2.52l-1.58,1.67a15.75,15.75,0,0,1-3.58-3.32l0.81-.87h-5.64l1.12,0.65a0.49,0.49,0,0,1,.23.33,0.28,0.28,0,0,1-.28.27,24.44,24.44,0,0,1-4.09,2.95l-1.78-1.37a17.76,17.76,0,0,0,4.24-2.82h-2.16V22.15h3.66L386,19.9h-5.66V18h13.2Zm-14.77.57,1.06,0.68a0.41,0.41,0,0,1,.23.3,0.84,0.84,0,0,1-.51.6l-2.74,4c0.61,0.4,1.19.77,1.75,1.17l-0.71.48H379l0.48-.1a0.82,0.82,0,0,1,.51.2L381,26.52a0.4,0.4,0,0,1,.23.3,0.83,0.83,0,0,1-.51.6l-1.4,3.7-1.68-.57,1-2.85h-2v9.37a2.12,2.12,0,0,1-.81,1.82c-0.46.4-1.62,0.62-3.45,0.62l-0.89-2.15h1.88a0.9,0.9,0,0,0,1.09-.67v-9h-3.58V25.75h4.77a24.13,24.13,0,0,0-3.38-2.05l1.5-1.18c0.51,0.23,1,.45,1.45.7L377,20.38h-5.69V18.43h6.45l0.48-.1A0.81,0.81,0,0,1,378.75,18.53Z" transform="translate(-0.22 0)"/><path class="cls-4" d="M410,32.19l-2.09,1.37A21.36,21.36,0,0,0,405,29.37l1.6-1.27A25.61,25.61,0,0,1,410,32.19Zm2.89-9V17.46l2.43,0.27c0.28,0,.43.15,0.43,0.32a1,1,0,0,1-.61.68v4.5h3.58v2.15h-3.58V36.59a2.57,2.57,0,0,1-1,2.2c-0.56.48-1.93,0.72-4.16,0.72l-0.89-2.24h2.41a1.16,1.16,0,0,0,1.37-1.08V25.38h-9.34V23.23h9.34ZM404.07,18a0.46,0.46,0,0,1,.38.33,0.81,0.81,0,0,1-.71.6c-0.63,1.47-1.22,2.77-1.78,3.87V39.71h-2.29v-13c-0.56.88-1.19,1.78-1.88,2.72l-1.7-1.67a32.8,32.8,0,0,0,3.32-5A45,45,0,0,0,402,17.06Z" transform="translate(-0.22 0)"/><path class="cls-4" d="M433,17.23c0.35,0.05.56,0.15,0.56,0.32a0.94,0.94,0,0,1-.38.5v2.12h8.13v2h-8.13v3.29h11.4V27.6h-11.4v2.2a47.77,47.77,0,0,1,8.13,4.64L439.76,36a60.42,60.42,0,0,0-6.63-3.85v7.67h-2.18V27.6h-9.24V25.45h9.24V17.06Z" transform="translate(-0.22 0)"/><path class="cls-3" d="M202.58,279.1l1.55-.21a3.4,3.4,0,0,0,.91,1.89,2.23,2.23,0,0,0,1.55.58,2.51,2.51,0,0,0,1.84-.76,2.55,2.55,0,0,0,.75-1.87,2.37,2.37,0,0,0-.7-1.76,2.4,2.4,0,0,0-1.76-.69,4.51,4.51,0,0,0-1.09.17l0.17-1.35,0.25,0a3.18,3.18,0,0,0,1.78-.52,1.76,1.76,0,0,0,.79-1.59,1.87,1.87,0,0,0-.58-1.41,2,2,0,0,0-1.48-.56,2.12,2.12,0,0,0-1.5.57,2.84,2.84,0,0,0-.77,1.7l-1.55-.27a4,4,0,0,1,1.29-2.41,3.73,3.73,0,0,1,2.49-.85,4.11,4.11,0,0,1,1.89.44,3.17,3.17,0,0,1,1.33,1.2,3.09,3.09,0,0,1,.46,1.62,2.65,2.65,0,0,1-.44,1.48,3,3,0,0,1-1.3,1.07,2.93,2.93,0,0,1,1.73,1.07,3.25,3.25,0,0,1,.61,2,3.7,3.7,0,0,1-1.2,2.79,4.21,4.21,0,0,1-3,1.15,4,4,0,0,1-2.75-1A3.81,3.81,0,0,1,202.58,279.1Z" transform="translate(-0.22 0)"/><path class="cls-3" d="M220.57,280.93h2.68a6.59,6.59,0,0,0,2-.23,2.81,2.81,0,0,0,1.13-.65,4,4,0,0,0,.92-1.59,7.91,7.91,0,0,0,.33-2.42,5.82,5.82,0,0,0-.65-3,3.25,3.25,0,0,0-1.57-1.42,6.63,6.63,0,0,0-2.15-.25h-2.64v9.6Zm-1.67,1.48V269.85h4.34a10.35,10.35,0,0,1,2.24.18,4.22,4.22,0,0,1,1.84.9,5.14,5.14,0,0,1,1.49,2.15,8.46,8.46,0,0,1,.49,3,8.87,8.87,0,0,1-.33,2.54,6.26,6.26,0,0,1-.86,1.83,4.5,4.5,0,0,1-1.15,1.14,4.7,4.7,0,0,1-1.5.63,8.65,8.65,0,0,1-2,.22H218.9Z" transform="translate(-0.22 0)"/><path class="cls-3" d="M237.73,277.85a11.3,11.3,0,0,1-2.52.58,5.7,5.7,0,0,0-1.35.31,1.32,1.32,0,0,0-.61.5,1.29,1.29,0,0,0-.22.73,1.31,1.31,0,0,0,.47,1,2,2,0,0,0,1.37.41,3.19,3.19,0,0,0,1.59-.39,2.41,2.41,0,0,0,1-1.07,3.78,3.78,0,0,0,.25-1.54v-0.57Zm0.13,3.45a5.65,5.65,0,0,1-1.65,1,4.72,4.72,0,0,1-1.7.3,3.31,3.31,0,0,1-2.3-.73,2.41,2.41,0,0,1-.81-1.87,2.53,2.53,0,0,1,1.1-2.11,3.75,3.75,0,0,1,1.11-.5,10.74,10.74,0,0,1,1.37-.23,14,14,0,0,0,2.75-.53v-0.4a1.71,1.71,0,0,0-.44-1.33,2.58,2.58,0,0,0-1.76-.52,2.72,2.72,0,0,0-1.61.38,2.32,2.32,0,0,0-.76,1.35l-1.51-.21a3.73,3.73,0,0,1,.68-1.56,3,3,0,0,1,1.37-.92,6.09,6.09,0,0,1,2.06-.32,5.5,5.5,0,0,1,1.89.28,2.52,2.52,0,0,1,1.07.69,2.4,2.4,0,0,1,.48,1,8.41,8.41,0,0,1,.08,1.43v2.06a23,23,0,0,0,.09,2.72,3.54,3.54,0,0,0,.39,1.09h-1.61A3.18,3.18,0,0,1,237.86,281.29Z" transform="translate(-0.22 0)"/><path class="cls-3" d="M242.14,285.93L242,284.48a3.49,3.49,0,0,0,.89.14,1.68,1.68,0,0,0,.82-0.17,1.37,1.37,0,0,0,.5-0.48,7.08,7.08,0,0,0,.47-1.15l0.14-.38-3.46-9.12H243l1.89,5.28q0.37,1,.66,2.11a20.5,20.5,0,0,1,.64-2.08l1.95-5.31h1.54l-3.46,9.26a18.67,18.67,0,0,1-.87,2.07,3.11,3.11,0,0,1-.94,1.12,2.26,2.26,0,0,1-1.27.36A3.13,3.13,0,0,1,242.14,285.93Z" transform="translate(-0.22 0)"/><path class="cls-3" d="M258.79,275.83H262a3.45,3.45,0,0,0,2.29-.6,2.13,2.13,0,0,0,.68-1.69,2.28,2.28,0,0,0-.4-1.35,1.85,1.85,0,0,0-1-.74,7.1,7.1,0,0,0-1.55-.11h-3.22v4.49Zm-1.66,6.59V269.85h4.74a11.36,11.36,0,0,1,1.91.12,3.82,3.82,0,0,1,1.55.59,3.1,3.1,0,0,1,1,1.21,4.08,4.08,0,0,1-.64,4.43q-1,1.11-3.68,1.11h-3.22v5.11h-1.66Z" transform="translate(-0.22 0)"/><path class="cls-3" d="M275,277.85a11.34,11.34,0,0,1-2.52.58,5.74,5.74,0,0,0-1.35.31,1.33,1.33,0,0,0-.61.5,1.3,1.3,0,0,0-.21.73,1.32,1.32,0,0,0,.47,1,2,2,0,0,0,1.37.41,3.21,3.21,0,0,0,1.59-.39,2.4,2.4,0,0,0,1-1.07,3.67,3.67,0,0,0,.25-1.54v-0.57Zm0.13,3.45a5.61,5.61,0,0,1-1.65,1,4.7,4.7,0,0,1-1.7.3,3.32,3.32,0,0,1-2.31-.73,2.42,2.42,0,0,1-.81-1.87,2.47,2.47,0,0,1,.31-1.22,2.54,2.54,0,0,1,.8-0.89,3.7,3.7,0,0,1,1.11-.5,11.06,11.06,0,0,1,1.37-.23,14,14,0,0,0,2.75-.53c0-.21,0-0.34,0-0.4a1.71,1.71,0,0,0-.44-1.33,2.58,2.58,0,0,0-1.76-.52,2.71,2.71,0,0,0-1.61.38,2.32,2.32,0,0,0-.77,1.35l-1.51-.21a3.77,3.77,0,0,1,.68-1.56,3,3,0,0,1,1.36-.92,6.12,6.12,0,0,1,2.07-.32,5.51,5.51,0,0,1,1.89.28,2.53,2.53,0,0,1,1.07.69,2.47,2.47,0,0,1,.48,1,9,9,0,0,1,.07,1.43v2.06a21.82,21.82,0,0,0,.1,2.72,3.45,3.45,0,0,0,.39,1.09h-1.61A3.25,3.25,0,0,1,275.11,281.29Z" transform="translate(-0.22 0)"/><path class="cls-3" d="M278.85,279.7l1.52-.24a2.16,2.16,0,0,0,.72,1.41,2.5,2.5,0,0,0,1.64.49,2.41,2.41,0,0,0,1.58-.43,1.29,1.29,0,0,0,.52-1,0.94,0.94,0,0,0-.45-0.82,6.8,6.8,0,0,0-1.58-.52,14.57,14.57,0,0,1-2.35-.74,2.34,2.34,0,0,1-1-.87,2.3,2.3,0,0,1-.34-1.22,2.34,2.34,0,0,1,.28-1.13,2.51,2.51,0,0,1,.76-0.86,3.23,3.23,0,0,1,1-.45,4.72,4.72,0,0,1,1.33-.19,5.25,5.25,0,0,1,1.88.31,2.56,2.56,0,0,1,1.2.84,3.27,3.27,0,0,1,.53,1.41l-1.51.21a1.65,1.65,0,0,0-.6-1.1,2.18,2.18,0,0,0-1.4-.39,2.53,2.53,0,0,0-1.52.35,1,1,0,0,0-.45.82,0.85,0.85,0,0,0,.19.54,1.37,1.37,0,0,0,.59.41c0.15,0.06.61,0.19,1.36,0.39a18.85,18.85,0,0,1,2.29.72,2.31,2.31,0,0,1,1,.81,2.27,2.27,0,0,1,.37,1.32,2.58,2.58,0,0,1-.45,1.46,2.87,2.87,0,0,1-1.3,1.05,4.7,4.7,0,0,1-1.92.37,4.25,4.25,0,0,1-2.7-.74A3.42,3.42,0,0,1,278.85,279.7Z" transform="translate(-0.22 0)"/><path class="cls-3" d="M288.15,279.7l1.53-.24a2.17,2.17,0,0,0,.71,1.41,2.52,2.52,0,0,0,1.65.49,2.42,2.42,0,0,0,1.58-.43,1.28,1.28,0,0,0,.52-1,0.94,0.94,0,0,0-.45-0.82,6.86,6.86,0,0,0-1.58-.52,14.57,14.57,0,0,1-2.35-.74,2.33,2.33,0,0,1-1-.87,2.3,2.3,0,0,1-.34-1.22,2.34,2.34,0,0,1,.28-1.13,2.48,2.48,0,0,1,.76-0.86,3.24,3.24,0,0,1,1-.45,4.74,4.74,0,0,1,1.34-.19,5.26,5.26,0,0,1,1.88.31,2.56,2.56,0,0,1,1.2.84,3.19,3.19,0,0,1,.53,1.41l-1.51.21a1.65,1.65,0,0,0-.6-1.1,2.18,2.18,0,0,0-1.4-.39,2.53,2.53,0,0,0-1.52.35,1,1,0,0,0-.45.82,0.84,0.84,0,0,0,.19.54,1.37,1.37,0,0,0,.59.41c0.15,0.06.61,0.19,1.36,0.39a18.76,18.76,0,0,1,2.29.72,2.33,2.33,0,0,1,1,.81,2.27,2.27,0,0,1,.37,1.32,2.6,2.6,0,0,1-.45,1.46,2.89,2.89,0,0,1-1.3,1.05,4.7,4.7,0,0,1-1.92.37,4.26,4.26,0,0,1-2.7-.74A3.42,3.42,0,0,1,288.15,279.7Z" transform="translate(-0.22 0)"/><path class="cls-3" d="M304.5,277.86a3.89,3.89,0,0,0,.76,2.62,2.54,2.54,0,0,0,3.83,0,4,4,0,0,0,.76-2.67,3.77,3.77,0,0,0-.76-2.56,2.55,2.55,0,0,0-3.83,0A3.86,3.86,0,0,0,304.5,277.86Zm-1.59,0a4.7,4.7,0,0,1,1.41-3.75,4.24,4.24,0,0,1,2.86-1,4.09,4.09,0,0,1,3.07,1.23,4.69,4.69,0,0,1,1.19,3.4,6.05,6.05,0,0,1-.53,2.77,3.72,3.72,0,0,1-1.54,1.57,4.44,4.44,0,0,1-2.2.56,4.08,4.08,0,0,1-3.09-1.22A4.89,4.89,0,0,1,302.91,277.86Z" transform="translate(-0.22 0)"/><path class="cls-3" d="M314.15,282.42v-7.91h-1.36v-1.2h1.36v-1a4.32,4.32,0,0,1,.16-1.36,2,2,0,0,1,.78-1,2.86,2.86,0,0,1,1.57-.37,7.56,7.56,0,0,1,1.44.16l-0.23,1.34A5.22,5.22,0,0,0,317,271a1.36,1.36,0,0,0-1,.3,1.63,1.63,0,0,0-.29,1.12v0.84h1.78v1.2h-1.78v7.91h-1.53Z" transform="translate(-0.22 0)"/><path class="cls-3" d="M333,269.85h1.66v7.26a8.56,8.56,0,0,1-.43,3,3.67,3.67,0,0,1-1.55,1.82,5.51,5.51,0,0,1-2.94.7,6,6,0,0,1-2.89-.61,3.45,3.45,0,0,1-1.6-1.76,8.34,8.34,0,0,1-.48-3.15v-7.26h1.66v7.25a7.08,7.08,0,0,0,.3,2.42,2.32,2.32,0,0,0,1,1.19,3.61,3.61,0,0,0,1.81.42,3.44,3.44,0,0,0,2.61-.83,4.79,4.79,0,0,0,.78-3.2v-7.25Z" transform="translate(-0.22 0)"/><path class="cls-3" d="M337.81,282.42v-9.11h1.39v1.29a3.29,3.29,0,0,1,2.9-1.5,3.79,3.79,0,0,1,1.51.3,2.37,2.37,0,0,1,1,.78,2.92,2.92,0,0,1,.48,1.14,8.69,8.69,0,0,1,.08,1.5v5.6h-1.54v-5.54a4.1,4.1,0,0,0-.18-1.41,1.46,1.46,0,0,0-.64-0.75,2,2,0,0,0-1.07-.28,2.48,2.48,0,0,0-1.7.63,3.07,3.07,0,0,0-.71,2.38v5h-1.55Z" transform="translate(-0.22 0)"/><rect class="cls-5" x="347.85" y="269.85" width="1.55" height="12.57"/><path class="cls-3" d="M352.54,282.42v-9.11h1.55v9.11h-1.55Zm0-10.8v-1.77h1.55v1.77h-1.55Z" transform="translate(-0.22 0)"/><path class="cls-3" d="M357,282.42v-9.11h1.38v1.28a3.25,3.25,0,0,1,1.14-1.07,3.2,3.2,0,0,1,1.62-.41,3,3,0,0,1,1.66.42,2.23,2.23,0,0,1,.91,1.18,3.27,3.27,0,0,1,2.81-1.6,2.76,2.76,0,0,1,2.09.75,3.21,3.21,0,0,1,.73,2.31v6.25h-1.53v-5.74a4.21,4.21,0,0,0-.15-1.33,1.31,1.31,0,0,0-.55-0.66,1.7,1.7,0,0,0-.93-0.25,2.15,2.15,0,0,0-1.59.64,2.82,2.82,0,0,0-.64,2v5.29h-1.54V276.5A2.62,2.62,0,0,0,362,275a1.43,1.43,0,0,0-1.24-.51,2.25,2.25,0,0,0-1.2.34,1.92,1.92,0,0,0-.8,1,5.57,5.57,0,0,0-.25,1.9v4.73H357Z" transform="translate(-0.22 0)"/><path class="cls-3" d="M372.13,282.42v-9.11h1.55v9.11h-1.55Zm0-10.8v-1.77h1.55v1.77h-1.55Z" transform="translate(-0.22 0)"/><path class="cls-3" d="M379.92,281l0.22,1.36a5.79,5.79,0,0,1-1.16.14,2.67,2.67,0,0,1-1.3-.27,1.48,1.48,0,0,1-.65-0.7,5.53,5.53,0,0,1-.19-1.82v-5.24H375.7v-1.2h1.13v-2.25l1.54-.93v3.18h1.55v1.2h-1.55v5.33a2.72,2.72,0,0,0,.08.85,0.64,0.64,0,0,0,.27.3,1,1,0,0,0,.53.11A5.41,5.41,0,0,0,379.92,281Z" transform="translate(-0.22 0)"/><path class="cls-3" d="M383.12,277h5.09a3.11,3.11,0,0,0-.58-1.73,2.37,2.37,0,0,0-1.91-.89,2.46,2.46,0,0,0-1.79.71A2.82,2.82,0,0,0,383.12,277Zm5.07,2.49,1.59,0.2a3.85,3.85,0,0,1-1.4,2.17,4.74,4.74,0,0,1-5.78-.46,4.81,4.81,0,0,1-1.17-3.45,5,5,0,0,1,1.18-3.57,4,4,0,0,1,3.07-1.27,3.89,3.89,0,0,1,3,1.25,4.93,4.93,0,0,1,1.16,3.5c0,0.09,0,.23,0,0.41H383a3.51,3.51,0,0,0,.85,2.3,2.53,2.53,0,0,0,1.91.8,2.37,2.37,0,0,0,1.45-.44A3,3,0,0,0,388.19,279.48Z" transform="translate(-0.22 0)"/><path class="cls-3" d="M393.28,277.87a4,4,0,0,0,.74,2.62,2.22,2.22,0,0,0,1.74.87,2.18,2.18,0,0,0,1.72-.82,3.81,3.81,0,0,0,.71-2.53,4.28,4.28,0,0,0-.72-2.74,2.21,2.21,0,0,0-1.78-.87,2.14,2.14,0,0,0-1.72.84A4.14,4.14,0,0,0,393.28,277.87Zm4.88,4.55v-1.15a2.84,2.84,0,0,1-2.55,1.35,3.58,3.58,0,0,1-2-.6,4,4,0,0,1-1.41-1.68,5.81,5.81,0,0,1-.5-2.48,6.47,6.47,0,0,1,.46-2.47,3.56,3.56,0,0,1,1.36-1.7,3.64,3.64,0,0,1,2-.59,3.05,3.05,0,0,1,1.46.35,3.12,3.12,0,0,1,1,.91v-4.51h1.54v12.57h-1.43Z" transform="translate(-0.22 0)"/><path class="cls-3" d="M409.82,280.93h2.68a6.54,6.54,0,0,0,2-.23,2.78,2.78,0,0,0,1.13-.65,4,4,0,0,0,.92-1.59,7.81,7.81,0,0,0,.33-2.42,5.85,5.85,0,0,0-.65-3,3.26,3.26,0,0,0-1.57-1.42,6.61,6.61,0,0,0-2.15-.25h-2.64v9.6Zm-1.66,1.48V269.85h4.33a10.36,10.36,0,0,1,2.24.18,4.22,4.22,0,0,1,1.84.9,5.08,5.08,0,0,1,1.49,2.15,8.32,8.32,0,0,1,.5,3,8.87,8.87,0,0,1-.33,2.54,6.26,6.26,0,0,1-.86,1.83,4.54,4.54,0,0,1-1.14,1.14,4.67,4.67,0,0,1-1.5.63,8.73,8.73,0,0,1-2,.22h-4.54Z" transform="translate(-0.22 0)"/><path class="cls-3" d="M427,277.85a11.26,11.26,0,0,1-2.52.58,5.7,5.7,0,0,0-1.35.31,1.33,1.33,0,0,0-.61.5,1.37,1.37,0,0,0,.25,1.76,2,2,0,0,0,1.37.41,3.19,3.19,0,0,0,1.59-.39,2.41,2.41,0,0,0,1-1.07,3.68,3.68,0,0,0,.25-1.54v-0.57Zm0.13,3.45a5.61,5.61,0,0,1-1.65,1,4.72,4.72,0,0,1-1.7.3,3.32,3.32,0,0,1-2.31-.73,2.42,2.42,0,0,1-.8-1.87,2.5,2.5,0,0,1,.3-1.22,2.55,2.55,0,0,1,.8-0.89,3.7,3.7,0,0,1,1.11-.5,11,11,0,0,1,1.37-.23,13.9,13.9,0,0,0,2.75-.53c0-.21,0-0.34,0-0.4a1.71,1.71,0,0,0-.44-1.33,2.57,2.57,0,0,0-1.75-.52,2.72,2.72,0,0,0-1.61.38,2.32,2.32,0,0,0-.77,1.35l-1.51-.21a3.77,3.77,0,0,1,.68-1.56,3,3,0,0,1,1.37-.92,6.11,6.11,0,0,1,2.06-.32,5.53,5.53,0,0,1,1.9.28,2.55,2.55,0,0,1,1.07.69,2.4,2.4,0,0,1,.48,1,8.87,8.87,0,0,1,.08,1.43v2.06a21.82,21.82,0,0,0,.1,2.72,3.37,3.37,0,0,0,.39,1.09h-1.61A3.25,3.25,0,0,1,427.11,281.29Z" transform="translate(-0.22 0)"/><path class="cls-3" d="M434.83,281l0.22,1.36a5.82,5.82,0,0,1-1.17.14,2.67,2.67,0,0,1-1.3-.27,1.49,1.49,0,0,1-.65-0.7,5.42,5.42,0,0,1-.19-1.82v-5.24h-1.13v-1.2h1.13v-2.25l1.54-.93v3.18h1.55v1.2h-1.55v5.33a2.76,2.76,0,0,0,.08.85,0.66,0.66,0,0,0,.27.3,1,1,0,0,0,.52.11A5.5,5.5,0,0,0,434.83,281Z" transform="translate(-0.22 0)"/><path class="cls-3" d="M442.68,277.85a11.35,11.35,0,0,1-2.52.58,5.7,5.7,0,0,0-1.35.31,1.33,1.33,0,0,0-.61.5,1.36,1.36,0,0,0,.26,1.76,2,2,0,0,0,1.36.41,3.17,3.17,0,0,0,1.59-.39,2.41,2.41,0,0,0,1-1.07,3.78,3.78,0,0,0,.25-1.54v-0.57Zm0.13,3.45a5.68,5.68,0,0,1-1.65,1,4.72,4.72,0,0,1-1.7.3,3.31,3.31,0,0,1-2.31-.73,2.42,2.42,0,0,1-.81-1.87,2.5,2.5,0,0,1,.3-1.22,2.54,2.54,0,0,1,.8-0.89,3.77,3.77,0,0,1,1.11-.5,10.67,10.67,0,0,1,1.37-.23,13.94,13.94,0,0,0,2.75-.53c0-.21,0-0.34,0-0.4a1.71,1.71,0,0,0-.43-1.33,2.59,2.59,0,0,0-1.76-.52,2.72,2.72,0,0,0-1.61.38,2.34,2.34,0,0,0-.77,1.35l-1.51-.21a3.73,3.73,0,0,1,.68-1.56,3,3,0,0,1,1.36-.92,6.11,6.11,0,0,1,2.07-.32,5.51,5.51,0,0,1,1.89.28,2.54,2.54,0,0,1,1.07.69,2.44,2.44,0,0,1,.48,1,8.41,8.41,0,0,1,.08,1.43v2.06a22.33,22.33,0,0,0,.09,2.72,3.54,3.54,0,0,0,.39,1.09h-1.61A3.32,3.32,0,0,1,442.81,281.29Z" transform="translate(-0.22 0)"/><ellipse class="cls-6" cx="267.69" cy="173.81" rx="48.39" ry="48.44"/><path class="cls-7" d="M250.6,145.39h34.68v55.3h-4.93v-4.39H255.48v4.39H250.6v-55.3Zm29.75,6.1H255.48v15.56h24.88V151.49Zm0,21.61H255.48v17.09h24.88V173.1Z" transform="translate(-0.22 0)"/><path class="cls-8" d="M23.16,35.79h-6c0,0.33,0,.66,0,1s0,0.66,0,1h6.42A14.94,14.94,0,0,1,23.16,35.79Zm1-7.92h-5.1a20.35,20.35,0,0,0-.81,2h5.26A14.79,14.79,0,0,1,24.18,27.88ZM23,33.81a16.55,16.55,0,0,1,.12-2H17.68a19.64,19.64,0,0,0-.37,2H23Zm1.15,5.94H17.31a19.68,19.68,0,0,0,.37,2h7.46A14.78,14.78,0,0,1,24.18,39.75Zm2.31,4H18.27a21.12,21.12,0,0,0,.81,2h9.29A16.38,16.38,0,0,1,26.49,43.71Zm31.95-6.92c0-.33,0-0.66,0-1H51.28a17.06,17.06,0,0,0-1-2h7.91c-0.09-.67-0.22-1.33-0.38-2H49a15.7,15.7,0,0,0-1.89-2H57.26a21.2,21.2,0,0,0-.81-2H33.77v9.9h8v9.9H20.15a21.25,21.25,0,0,0,1.38,2H33.76v2H23.3a19.76,19.76,0,0,0,2.33,2h8.13v2H28.95a20.63,20.63,0,0,0,17.63,0H44.35a15.73,15.73,0,0,0,2.77-2H49.9a19.73,19.73,0,0,0,2.33-2H49a16.62,16.62,0,0,0,1.34-2H54a20.09,20.09,0,0,0,1.38-2H51.29a15.29,15.29,0,0,0,.65-2h4.51c0.3-.65.58-1.3,0.81-2H52.31a16.21,16.21,0,0,0,.12-2v0h5.41c0.16-.65.29-1.31,0.38-2H52.31a16.17,16.17,0,0,0-.38-2h6.48C58.43,37.44,58.44,37.11,58.44,36.78ZM41.73,21.93H52.23a20.08,20.08,0,0,0-2.33-2H41.73v2Zm-15.25,2h-5a21.77,21.77,0,0,0-1.38,2h5A15.66,15.66,0,0,1,26.49,23.92Zm15.25,2H55.37a21.1,21.1,0,0,0-1.38-2H41.73v2ZM31.15,20H25.63a20.32,20.32,0,0,0-2.33,2h5.07A15.48,15.48,0,0,1,31.15,20Zm6.61-4a20.58,20.58,0,0,0-8.82,2H46.58A20.54,20.54,0,0,0,37.76,16Z" transform="translate(-0.22 0)"/><path class="cls-9" d="M142.88,50.15h-1V47.28a0.63,0.63,0,0,0-.64-0.76,1.58,1.58,0,0,0-.91.41v3.22h-1V47.28a0.62,0.62,0,0,0-.63-0.76,1.7,1.7,0,0,0-.91.42v3.22h-1V46.08l1-.27,0,0.46a2.06,2.06,0,0,1,1.35-.56,1.13,1.13,0,0,1,1.11.58,2.1,2.1,0,0,1,1.45-.58A1.2,1.2,0,0,1,142.88,47v3.13ZM132.18,48a1.36,1.36,0,0,0,1.22,1.56,1.62,1.62,0,0,0,0-3.13A1.32,1.32,0,0,0,132.18,48Zm3.57,0a2.35,2.35,0,1,1-2.35-2.27A2.21,2.21,0,0,1,135.75,48Zm-6.55-2.27a3.24,3.24,0,0,1,1.46.27l-0.22.66a2.53,2.53,0,0,0-1.11-.21A1.42,1.42,0,0,0,128,48a1.46,1.46,0,0,0,1.3,1.54,3,3,0,0,0,1.12-.19L130.71,50a3.08,3.08,0,0,1-1.52.28A2.15,2.15,0,0,1,126.91,48,2.26,2.26,0,0,1,129.2,45.71Zm-4.94.71a1,1,0,0,0-.92,1h1.81A0.91,0.91,0,0,0,124.27,46.42Zm0.42,3.09a2.55,2.55,0,0,0,1.19-.23l0.23,0.58a3.41,3.41,0,0,1-1.73.37A2,2,0,0,1,122.21,48a2.16,2.16,0,0,1,2.09-2.3c1.05,0,2,.71,2,2.37h-2.94A1.27,1.27,0,0,0,124.69,49.52Zm-4.45-5.66,1.06-.28v6.57h-1.06V43.86Zm-2.88,2.57a1,1,0,0,0-.92,1h1.81A0.92,0.92,0,0,0,117.36,46.42Zm0.42,3.09a2.57,2.57,0,0,0,1.19-.23l0.24,0.58a3.43,3.43,0,0,1-1.73.37A2,2,0,0,1,115.31,48a2.16,2.16,0,0,1,2.09-2.3c1.05,0,2,.71,2,2.37h-3A1.27,1.27,0,0,0,117.78,49.52ZM111,43.58h5.29v0.84h-2.08v5.73h-1.13V44.42H111V43.58ZM81.26,45.81v2.87a0.62,0.62,0,0,0,.65.74A1.8,1.8,0,0,0,83,49V45.81h1v4.06l-1,.28,0-.46a2.34,2.34,0,0,1-1.51.55,1.17,1.17,0,0,1-1.25-1.33v-3.1h1.05Zm27.23,2.34-0.61,0a0.88,0.88,0,0,0-1,.73,0.61,0.61,0,0,0,.72.58,1.57,1.57,0,0,0,.89-0.38v-1Zm-1.25,2.09A1.19,1.19,0,0,1,105.9,49a1.54,1.54,0,0,1,1.67-1.46l0.91,0V47.17a0.68,0.68,0,0,0-.79-0.77,2.87,2.87,0,0,0-1.21.28l-0.24-.56a3.89,3.89,0,0,1,1.76-.42A1.3,1.3,0,0,1,109.52,47v2.48a2.1,2.1,0,0,0,.16.69h-1.1a0.8,0.8,0,0,1-.09-0.39A2.05,2.05,0,0,1,107.23,50.24Zm-5.38-4.43h1l0.94,2.84,1-2.84h0.89l-1.68,4.4h-0.57L102.6,48l-0.85,2.22h-0.57l-1.55-4.4h1l1,2.93L102.27,47ZM91.1,47.11a0.72,0.72,0,0,0,.79.74,0.7,0.7,0,0,0,.78-0.74,0.74,0.74,0,0,0-.78-0.77A0.77,0.77,0,0,0,91.1,47.11Zm-0.56,4c0,0.49.77,0.67,1.38,0.67A1.37,1.37,0,0,0,93.31,51a0.6,0.6,0,0,0-.7-0.71H91.2A1.23,1.23,0,0,0,90.54,51.15Zm1-2.66c-0.27,0-.75.07-0.75,0.43s0.45,0.42.74,0.42h1.23a1.34,1.34,0,0,1,1.52,1.51A2.2,2.2,0,0,1,92,52.5c-1.11,0-2.35-.27-2.35-1.23a1.33,1.33,0,0,1,.78-1.16,1,1,0,0,1-.54-0.95,1.2,1.2,0,0,1,.76-1.09,1.1,1.1,0,0,1-.52-1,1.47,1.47,0,0,1,1.62-1.39,3.16,3.16,0,0,1,.86.1h1.66v0.56H93.35a1.08,1.08,0,0,1,.3.73A1.51,1.51,0,0,1,92,48.5H91.52ZM88,50.15V47.28a0.64,0.64,0,0,0-.69-0.75,2,2,0,0,0-1.1.42v3.19h-1V46.08l1-.27,0,0.45a2.27,2.27,0,0,1,1.53-.55A1.22,1.22,0,0,1,89,47v3.11H88Zm10,0V47.28a0.64,0.64,0,0,0-.7-0.75,2,2,0,0,0-1.08.42v3.19H95.11V43.86l1.05-.29v2.68a2.16,2.16,0,0,1,1.54-.55A1.2,1.2,0,0,1,99,47v3.11h-1Zm-19.89,0V47.28a0.64,0.64,0,0,0-.7-0.75,2,2,0,0,0-1.08.42v3.19H75.22V43.86l1.05-.29v2.68a2.16,2.16,0,0,1,1.55-.55A1.2,1.2,0,0,1,79.1,47v3.11h-1Zm-3.65-.42a4.11,4.11,0,0,1-2.3.54,3.41,3.41,0,0,1,0-6.83,4,4,0,0,1,2.2.5L74,44.73a3.6,3.6,0,0,0-1.79-.41,2.55,2.55,0,0,0,.06,5.07A3.46,3.46,0,0,0,74.05,49Z" transform="translate(-0.22 0)"/><path class="cls-9" d="M133.27,24.22a0.72,0.72,0,0,0-.54.21,0.7,0.7,0,0,0-.19.53,0.7,0.7,0,0,0,.19.52,0.76,0.76,0,0,0,.54.21H142a0.7,0.7,0,0,0,.53-0.21,0.83,0.83,0,0,0,0-1.06,0.67,0.67,0,0,0-.52-0.2h-8.78Zm-1.07,2.31a0.67,0.67,0,0,0-.54.21,0.79,0.79,0,0,0,0,1,0.69,0.69,0,0,0,.54.21h10.92a0.69,0.69,0,0,0,.52-0.21,0.81,0.81,0,0,0,0-1,0.72,0.72,0,0,0-.52-0.21H132.2Zm1.07,2.35a0.68,0.68,0,0,0-.54.21,0.78,0.78,0,0,0-.19.52,0.76,0.76,0,0,0,.19.52,0.71,0.71,0,0,0,.54.22H142a0.71,0.71,0,0,0,.72-0.74,0.7,0.7,0,0,0-.19-0.5,0.71,0.71,0,0,0-.52-0.23h-8.78Zm0,2.31a0.74,0.74,0,0,0-.54.21,0.75,0.75,0,0,0-.19.51,0.79,0.79,0,0,0,.19.53,0.73,0.73,0,0,0,.54.21H142a0.72,0.72,0,0,0,.53-0.21,0.78,0.78,0,0,0,.19-0.53,0.75,0.75,0,0,0-.19-0.53A0.7,0.7,0,0,0,142,31.2h-8.78Zm1.06,3.92a0.46,0.46,0,0,0-.35.1,0.49,0.49,0,0,0-.11.32v1.61a0.44,0.44,0,0,0,.11.34,0.51,0.51,0,0,0,.37.13h6.59a0.53,0.53,0,0,0,.39-0.12,0.46,0.46,0,0,0,.09-0.34V35.59a0.47,0.47,0,0,0-.09-0.33,0.5,0.5,0,0,0-.38-0.14h-6.62Zm-1-1.46h8.45a1.14,1.14,0,0,1,.84.3,0.9,0.9,0,0,1,.31.69v3.27a1.13,1.13,0,0,1-.37.82,1.11,1.11,0,0,1-.78.36h-8.45a0.85,0.85,0,0,1-.7-0.35,1.18,1.18,0,0,1-.28-0.83V34.64a1,1,0,0,1,.29-0.7A1,1,0,0,1,133.34,33.65Zm-2.47-9.84a0.79,0.79,0,0,1,.47.3,0.88,0.88,0,0,1,.11.64,21.18,21.18,0,0,1-.92,3.33V38.51a0.78,0.78,0,0,1-.76.82,0.77,0.77,0,0,1-.54-0.21,0.88,0.88,0,0,1-.21-0.6V31a1.15,1.15,0,0,1-.8.64,0.7,0.7,0,0,1-.53-0.16A0.84,0.84,0,0,1,127.4,31a1.06,1.06,0,0,1,.22-0.62A14,14,0,0,0,130,24.5a0.83,0.83,0,0,1,.32-0.56A0.88,0.88,0,0,1,130.87,23.81Z" transform="translate(-0.22 0)"/><path class="cls-9" d="M99.86,31.81V31.6H97.49V33h6a0.64,0.64,0,0,1,.49.18,0.81,0.81,0,0,1,.2.52,0.77,0.77,0,0,1-.19.49,0.67,0.67,0,0,1-.5.22h-6v1.16h6.38a0.66,0.66,0,0,1,.49.19,0.78,0.78,0,0,1,.19.52,0.88,0.88,0,0,1-.19.52,0.61,0.61,0,0,1-.5.18H97.49v1.53a0.82,0.82,0,0,1-.22.59,0.78,0.78,0,0,1-.55.22,0.73,0.73,0,0,1-.54-0.23A0.77,0.77,0,0,1,96,38.51V37H89.59a0.66,0.66,0,0,1-.51-0.2,0.81,0.81,0,0,1-.19-0.5,0.8,0.8,0,0,1,.19-0.5,0.7,0.7,0,0,1,.51-0.2H96V34.42H90a0.7,0.7,0,0,1-.52-0.2,0.73,0.73,0,0,1-.17-0.5,0.78,0.78,0,0,1,.19-0.51A0.72,0.72,0,0,1,90,33h2.07V31.6H89.14a0.69,0.69,0,0,1-.51-0.19,0.75,0.75,0,0,1-.2-0.51,0.76,0.76,0,0,1,.2-0.5,0.66,0.66,0,0,1,.51-0.2h2.95V30a0.81,0.81,0,0,1,.21-0.59,0.76,0.76,0,0,1,.55-0.23,0.77,0.77,0,0,1,.55.23,0.82,0.82,0,0,1,.21.59v0.16H96V28.73H90a0.74,0.74,0,0,1-.51-0.19A0.83,0.83,0,0,1,89.33,28a0.85,0.85,0,0,1,.19-0.49,0.71,0.71,0,0,1,.51-0.2h13.42a0.64,0.64,0,0,1,.49.18,0.77,0.77,0,0,1,.2.51,0.79,0.79,0,0,1-.19.49,0.61,0.61,0,0,1-.5.22h-2.07v1.48h2.94a0.61,0.61,0,0,1,.49.18,0.7,0.7,0,0,1,.19.52,0.65,0.65,0,0,1-.18.49,0.62,0.62,0,0,1-.5.21h-2.94v0.21a0.81,0.81,0,0,1-.21.55,0.77,0.77,0,0,1-.55.23,0.75,0.75,0,0,1-.55-0.23,0.81,0.81,0,0,1-.21-0.54h0Zm-2.37-3.09v1.48h2.37V28.73H97.49ZM93.61,31.6V33H96V31.6H93.61Zm10.95-6.2a0.74,0.74,0,0,1-.18.49,0.69,0.69,0,0,1-.5.21h-3.46v0.06a0.79,0.79,0,0,1-.22.59,0.77,0.77,0,0,1-1.09,0,0.78,0.78,0,0,1-.21-0.59V26.11H94.56v0.06a0.79,0.79,0,0,1-.22.59,0.74,0.74,0,0,1-.54.22,0.75,0.75,0,0,1-.55-0.23A0.8,0.8,0,0,1,93,26.16V26.11H89.59a0.7,0.7,0,0,1-.51-0.19,0.76,0.76,0,0,1-.19-0.51,0.74,0.74,0,0,1,.19-0.5,0.69,0.69,0,0,1,.51-0.2H93V24.36a0.82,0.82,0,0,1,.21-0.59,0.76,0.76,0,0,1,1.3.59v0.35H98.9V24.36a0.8,0.8,0,0,1,.21-0.59,0.77,0.77,0,0,1,.55-0.22,0.78,0.78,0,0,1,.54.22,0.82,0.82,0,0,1,.22.59v0.35h3.46a0.7,0.7,0,0,1,.5.2A0.75,0.75,0,0,1,104.56,25.41Z" transform="translate(-0.22 0)"/><path class="cls-9" d="M82.4,27.15a0.53,0.53,0,0,1,.37.16,0.49,0.49,0,0,1,.14.35v6.77a0.51,0.51,0,0,1-.15.33,0.43,0.43,0,0,1-.33.14h-5V27.15H82.4ZM70.49,34.76a0.45,0.45,0,0,1-.14-0.33V27.66a0.51,0.51,0,0,1,.15-0.36,0.46,0.46,0,0,1,.35-0.15h5V34.9h-5A0.52,0.52,0,0,1,70.49,34.76Zm5.53-11a0.85,0.85,0,0,0-.21.61v1.17H70.25a1.47,1.47,0,0,0-1,.42,1.44,1.44,0,0,0-.43,1v8a1.38,1.38,0,0,0,.45,1,1.51,1.51,0,0,0,1,.43h5.56v1.94a0.93,0.93,0,0,0,.22.67,0.84,0.84,0,0,0,.6.23,0.8,0.8,0,0,0,.58-0.23,1,1,0,0,0,.24-0.67V36.49H83a1.57,1.57,0,0,0,1-.45,1.62,1.62,0,0,0,.42-1V27a1.56,1.56,0,0,0-.39-1A1.37,1.37,0,0,0,83,25.56H77.45V24.38a0.87,0.87,0,0,0-.22-0.61A0.94,0.94,0,0,0,76,23.77Z" transform="translate(-0.22 0)"/><path class="cls-9" d="M123.13,37.82h-5.34a0.8,0.8,0,0,1-.55-0.17,1.23,1.23,0,0,1-.11-0.76h5a1,1,0,0,0,.7-0.31,1,1,0,0,0,.33-0.73V32.36a0.85,0.85,0,0,0-.27-0.63,1.14,1.14,0,0,0-.76-0.27H110.45a0.86,0.86,0,0,0-.64.26,0.83,0.83,0,0,0-.24.64v3.48a1,1,0,0,0,.25.73,0.87,0.87,0,0,0,.62.31h5.17v0.55a1.72,1.72,0,0,0,.61,1.3,1.75,1.75,0,0,0,1.08.35h5.82a0.63,0.63,0,0,0,.63-0.64A0.62,0.62,0,0,0,123.13,37.82Zm-1.42-3v0.5a0.39,0.39,0,0,1-.1.29,0.42,0.42,0,0,1-.3.1h-4.18V34.78h4.58Zm-0.4-2.12a0.39,0.39,0,0,1,.32.13,0.41,0.41,0,0,1,.08.29v0.49h-4.58V32.66h4.18Zm-5.7,2.12v0.89h-4.19a0.38,0.38,0,0,1-.3-0.1,0.38,0.38,0,0,1-.09-0.28V34.78h4.58ZM111,33a0.41,0.41,0,0,1,.09-0.28,0.38,0.38,0,0,1,.29-0.09h4.19v0.91H111V33Z" transform="translate(-0.22 0)"/><path class="cls-10" d="M113.63,28.14a0.52,0.52,0,0,1,.38.14,0.54,0.54,0,0,1,.14.39,0.56,0.56,0,0,1-.14.38,0.49,0.49,0,0,1-.38.16h-2.69a0.49,0.49,0,0,1-.39-0.16,0.5,0.5,0,0,1-.15-0.38,0.55,0.55,0,0,1,.15-0.39,0.53,0.53,0,0,1,.39-0.14h2.69Z" transform="translate(-0.22 0)"/><path class="cls-10" d="M114.55,29.78a0.52,0.52,0,0,1,.38.14,0.54,0.54,0,0,1,.15.39,0.55,0.55,0,0,1-.15.38,0.49,0.49,0,0,1-.38.16h-2.69a0.51,0.51,0,0,1-.4-0.16,0.51,0.51,0,0,1-.14-0.38,0.57,0.57,0,0,1,.14-0.39,0.54,0.54,0,0,1,.4-0.14h2.69Z" transform="translate(-0.22 0)"/><path class="cls-10" d="M120.88,28.14a0.53,0.53,0,0,1,.38.14,0.54,0.54,0,0,1,.14.39,0.56,0.56,0,0,1-.14.38,0.5,0.5,0,0,1-.38.16H118.2a0.51,0.51,0,0,1-.4-0.16,0.51,0.51,0,0,1-.15-0.38,0.57,0.57,0,0,1,.15-0.39,0.54,0.54,0,0,1,.4-0.14h2.68Z" transform="translate(-0.22 0)"/><path class="cls-10" d="M121.8,29.78a0.53,0.53,0,0,1,.38.14,0.52,0.52,0,0,1,.14.39,0.53,0.53,0,0,1-.14.38,0.5,0.5,0,0,1-.38.16h-2.68a0.5,0.5,0,0,1-.4-0.16,0.51,0.51,0,0,1-.15-0.38,0.57,0.57,0,0,1,.15-0.39,0.53,0.53,0,0,1,.4-0.14h2.68Z" transform="translate(-0.22 0)"/><path class="cls-10" d="M122.68,27.54a0.39,0.39,0,0,1,.24.11,0.41,0.41,0,0,1,.09.26v2.24a0.86,0.86,0,0,0,.23.6,0.72,0.72,0,0,0,.51.19,0.87,0.87,0,0,0,.51-0.22,0.85,0.85,0,0,0,.21-0.57V27.48a1.15,1.15,0,0,0-.34-0.85,1.19,1.19,0,0,0-.85-0.35h-6.2V25.49h5.3a0.64,0.64,0,0,0,.45-0.2,0.72,0.72,0,0,0,.17-0.45,0.79,0.79,0,0,0-.17-0.46,0.63,0.63,0,0,0-.45-0.16h-12a0.63,0.63,0,0,0-.46.18,0.6,0.6,0,0,0-.18.45,0.68,0.68,0,0,0,.18.47,0.65,0.65,0,0,0,.46.18h5.28v0.78h-6.2a1.16,1.16,0,0,0-.84.35,1.13,1.13,0,0,0-.34.85v2.68a0.85,0.85,0,0,0,.21.57,0.87,0.87,0,0,0,.5.22,0.73,0.73,0,0,0,.51-0.19,0.84,0.84,0,0,0,.23-0.6V27.91a0.4,0.4,0,0,1,.1-0.26,0.36,0.36,0,0,1,.24-0.11h5.59v2.75a0.82,0.82,0,0,0,.21.59,0.76,0.76,0,0,0,.51.2,0.74,0.74,0,0,0,.52-0.21,0.85,0.85,0,0,0,.22-0.58V27.54h5.59Z" transform="translate(-0.22 0)"/><path class="cls-11" d="M163.54,161.9l11.2-1.83q3.51,22.05,17.79,22,7.71,0,13.36-6.53t5.65-16.93q0-9.78-5.18-15.74a16.23,16.23,0,0,0-12.73-6,26.76,26.76,0,0,0-7.93,1.53l1.3-12.05,1.76,0.15q8.34,0,13.54-5.1t5.2-13.63q0-7.84-4.35-12.6a13.86,13.86,0,0,0-10.62-4.76,14.15,14.15,0,0,0-11,5q-4.47,5-5.69,15.14l-11.2-2.44q2.13-14.34,9.6-21.67a25.87,25.87,0,0,1,37,.91Q219,95.67,219,108.17a27.09,27.09,0,0,1-3.3,13.49,23.87,23.87,0,0,1-9.21,9.23,20.44,20.44,0,0,1,9,5,25.46,25.46,0,0,1,5.77,9.38,37.14,37.14,0,0,1,2.2,13.11q0,15.4-9.07,25.2t-21.72,9.8a26.45,26.45,0,0,1-19.89-8.54Q164.69,176.32,163.54,161.9Z" transform="translate(-0.22 0)"/><path class="cls-6" d="M163.54,161.9l11.2-1.83q3.51,22.05,17.79,22,7.71,0,13.36-6.53t5.65-16.93q0-9.78-5.18-15.74a16.23,16.23,0,0,0-12.73-6,26.76,26.76,0,0,0-7.93,1.53l1.3-12.05,1.76,0.15q8.34,0,13.54-5.1t5.2-13.63q0-7.84-4.35-12.6a13.86,13.86,0,0,0-10.62-4.76,14.15,14.15,0,0,0-11,5q-4.47,5-5.69,15.14l-11.2-2.44q2.13-14.34,9.6-21.67a25.87,25.87,0,0,1,37,.91Q219,95.67,219,108.17a27.09,27.09,0,0,1-3.3,13.49,23.87,23.87,0,0,1-9.21,9.23,20.44,20.44,0,0,1,9,5,25.46,25.46,0,0,1,5.77,9.38,37.14,37.14,0,0,1,2.2,13.11q0,15.4-9.07,25.2t-21.72,9.8a26.45,26.45,0,0,1-19.89-8.54Q164.69,176.32,163.54,161.9Z" transform="translate(-0.22 0)"/><path class="cls-6" d="M20.87,281C18,278.16,7.63,271.28,2,272v28.67H29.72C31.38,295.31,23.89,284,20.87,281Z" transform="translate(-0.22 0)"/><path class="cls-6" d="M2.37,128.81l-0.4,0v31.73l0.22,0C40.44,163,72.33,175,99.82,202.37s39.47,59.16,41.94,97.25a5.45,5.45,0,0,0,.21,1.07h31.51a4.44,4.44,0,0,0,.18-1.24c-0.18-44.24-20.09-88.48-51.28-119.55S46.78,129,2.37,128.81Z" transform="translate(-0.22 0)"/><path class="cls-6" d="M125.73,299.45c0-31.42-15.07-63.81-37.18-85.84s-54.63-37-86.17-37l-0.4,0v31c9.14,1.39,41.14,5.75,64,28.54,19,19,24.58,37.83,27.84,63.55a6.69,6.69,0,0,0,.31,1.07h31.41A4.57,4.57,0,0,0,125.73,299.45Z" transform="translate(-0.22 0)"/><path class="cls-6" d="M78,299.44c-0.09-18.7-10.22-39.15-23.26-52.14S21.14,224.22,2.37,224.13l-0.4,0v31.47c5.62,1.23,19.61,3.63,30.18,14.16,11.07,11,13.26,26,14.43,30.91H77.8A4.44,4.44,0,0,0,78,299.44Z" transform="translate(-0.22 0)"/><rect class="cls-12" x="1.06" y="1" width="461.88" height="300"/></svg>